G04 EAGLE Gerber RS-274X export*
G75*
%MOMM*%
%FSLAX34Y34*%
%LPD*%
%INCopper Layer 15*%
%IPPOS*%
%AMOC8*
5,1,8,0,0,1.08239X$1,22.5*%
G01*
%ADD10C,1.422400*%
%ADD11C,1.244600*%
%ADD12C,1.120000*%
%ADD13C,1.400000*%
%ADD14C,1.960000*%
%ADD15C,4.191000*%
%ADD16C,0.254000*%
%ADD17C,0.654800*%

G36*
X1012109Y2556D02*
X1012109Y2556D01*
X1012227Y2563D01*
X1012266Y2575D01*
X1012306Y2581D01*
X1012417Y2624D01*
X1012530Y2661D01*
X1012564Y2683D01*
X1012602Y2698D01*
X1012698Y2767D01*
X1012799Y2831D01*
X1012826Y2861D01*
X1012859Y2884D01*
X1012935Y2976D01*
X1013017Y3063D01*
X1013036Y3098D01*
X1013062Y3129D01*
X1013113Y3237D01*
X1013170Y3341D01*
X1013180Y3381D01*
X1013198Y3417D01*
X1013220Y3534D01*
X1013250Y3649D01*
X1013253Y3709D01*
X1013257Y3729D01*
X1013256Y3750D01*
X1013260Y3810D01*
X1013459Y1266190D01*
X1013444Y1266308D01*
X1013436Y1266427D01*
X1013424Y1266465D01*
X1013419Y1266505D01*
X1013375Y1266616D01*
X1013338Y1266729D01*
X1013317Y1266764D01*
X1013302Y1266801D01*
X1013232Y1266897D01*
X1013168Y1266998D01*
X1013139Y1267026D01*
X1013115Y1267058D01*
X1013023Y1267135D01*
X1012937Y1267216D01*
X1012901Y1267236D01*
X1012870Y1267261D01*
X1012762Y1267312D01*
X1012658Y1267370D01*
X1012619Y1267380D01*
X1012582Y1267397D01*
X1012465Y1267419D01*
X1012350Y1267449D01*
X1012290Y1267453D01*
X1012270Y1267457D01*
X1012250Y1267455D01*
X1012189Y1267459D01*
X3810Y1267459D01*
X3692Y1267444D01*
X3573Y1267437D01*
X3535Y1267424D01*
X3494Y1267419D01*
X3384Y1267376D01*
X3271Y1267339D01*
X3236Y1267317D01*
X3199Y1267302D01*
X3103Y1267233D01*
X3002Y1267169D01*
X2974Y1267139D01*
X2941Y1267116D01*
X2865Y1267024D01*
X2784Y1266937D01*
X2764Y1266902D01*
X2739Y1266871D01*
X2688Y1266763D01*
X2630Y1266659D01*
X2620Y1266619D01*
X2603Y1266583D01*
X2581Y1266466D01*
X2551Y1266351D01*
X2547Y1266291D01*
X2543Y1266271D01*
X2545Y1266250D01*
X2541Y1266190D01*
X2541Y3810D01*
X2556Y3692D01*
X2563Y3573D01*
X2576Y3535D01*
X2581Y3494D01*
X2624Y3384D01*
X2661Y3271D01*
X2683Y3236D01*
X2698Y3199D01*
X2767Y3103D01*
X2831Y3002D01*
X2861Y2974D01*
X2884Y2941D01*
X2976Y2865D01*
X3063Y2784D01*
X3098Y2764D01*
X3129Y2739D01*
X3237Y2688D01*
X3341Y2630D01*
X3381Y2620D01*
X3417Y2603D01*
X3534Y2581D01*
X3649Y2551D01*
X3709Y2547D01*
X3729Y2543D01*
X3750Y2545D01*
X3810Y2541D01*
X1011991Y2541D01*
X1012109Y2556D01*
G37*
%LPC*%
G36*
X153572Y255777D02*
X153572Y255777D01*
X151637Y257712D01*
X151637Y417928D01*
X153572Y419863D01*
X399288Y419863D01*
X399406Y419878D01*
X399525Y419885D01*
X399563Y419898D01*
X399604Y419903D01*
X399714Y419946D01*
X399827Y419983D01*
X399862Y420005D01*
X399899Y420020D01*
X399995Y420089D01*
X400096Y420153D01*
X400124Y420183D01*
X400157Y420206D01*
X400233Y420298D01*
X400314Y420385D01*
X400334Y420420D01*
X400359Y420451D01*
X400410Y420559D01*
X400468Y420663D01*
X400478Y420703D01*
X400495Y420739D01*
X400517Y420856D01*
X400547Y420971D01*
X400551Y421031D01*
X400555Y421051D01*
X400553Y421072D01*
X400557Y421132D01*
X400557Y445196D01*
X400549Y445265D01*
X400550Y445335D01*
X400529Y445422D01*
X400517Y445511D01*
X400492Y445576D01*
X400475Y445644D01*
X400433Y445724D01*
X400400Y445807D01*
X400359Y445863D01*
X400327Y445925D01*
X400266Y445992D01*
X400214Y446064D01*
X400160Y446109D01*
X400113Y446161D01*
X400038Y446210D01*
X399969Y446267D01*
X399905Y446297D01*
X399847Y446335D01*
X399762Y446364D01*
X399681Y446403D01*
X399612Y446416D01*
X399546Y446438D01*
X399457Y446446D01*
X399369Y446462D01*
X399299Y446458D01*
X399229Y446464D01*
X399141Y446448D01*
X399051Y446443D01*
X398985Y446421D01*
X398916Y446409D01*
X398834Y446372D01*
X398749Y446345D01*
X398690Y446307D01*
X398626Y446279D01*
X398556Y446223D01*
X398480Y446175D01*
X398432Y446124D01*
X398378Y446080D01*
X398323Y446008D01*
X398262Y445943D01*
X398228Y445882D01*
X398186Y445826D01*
X398115Y445682D01*
X396730Y442336D01*
X394264Y439870D01*
X391043Y438536D01*
X387557Y438536D01*
X384336Y439870D01*
X381870Y442336D01*
X380536Y445557D01*
X380536Y449043D01*
X381870Y452264D01*
X384336Y454730D01*
X387557Y456064D01*
X391043Y456064D01*
X394264Y454730D01*
X396730Y452264D01*
X398115Y448918D01*
X398150Y448858D01*
X398176Y448793D01*
X398228Y448720D01*
X398273Y448642D01*
X398321Y448592D01*
X398362Y448536D01*
X398432Y448478D01*
X398494Y448414D01*
X398554Y448377D01*
X398607Y448333D01*
X398689Y448295D01*
X398765Y448248D01*
X398832Y448227D01*
X398895Y448197D01*
X398983Y448180D01*
X399069Y448154D01*
X399139Y448151D01*
X399208Y448138D01*
X399297Y448143D01*
X399387Y448139D01*
X399455Y448153D01*
X399525Y448157D01*
X399610Y448185D01*
X399698Y448203D01*
X399761Y448234D01*
X399827Y448255D01*
X399903Y448303D01*
X399984Y448343D01*
X400037Y448388D01*
X400096Y448425D01*
X400158Y448491D01*
X400226Y448549D01*
X400266Y448606D01*
X400314Y448657D01*
X400357Y448736D01*
X400409Y448809D01*
X400434Y448875D01*
X400468Y448936D01*
X400490Y449022D01*
X400522Y449107D01*
X400530Y449176D01*
X400547Y449244D01*
X400557Y449404D01*
X400557Y461108D01*
X402492Y463043D01*
X408899Y463043D01*
X409037Y463060D01*
X409176Y463073D01*
X409195Y463080D01*
X409215Y463083D01*
X409344Y463134D01*
X409475Y463181D01*
X409492Y463192D01*
X409510Y463200D01*
X409623Y463281D01*
X409738Y463359D01*
X409751Y463375D01*
X409768Y463386D01*
X409857Y463494D01*
X409949Y463598D01*
X409958Y463616D01*
X409971Y463631D01*
X410030Y463757D01*
X410093Y463881D01*
X410098Y463901D01*
X410106Y463919D01*
X410132Y464055D01*
X410163Y464191D01*
X410162Y464212D01*
X410166Y464231D01*
X410157Y464370D01*
X410153Y464509D01*
X410147Y464529D01*
X410146Y464549D01*
X410103Y464681D01*
X410065Y464815D01*
X410054Y464832D01*
X410048Y464851D01*
X409974Y464969D01*
X409903Y465089D01*
X409885Y465110D01*
X409878Y465120D01*
X409863Y465134D01*
X409797Y465209D01*
X407270Y467736D01*
X405936Y470957D01*
X405936Y474443D01*
X407270Y477664D01*
X409736Y480130D01*
X412957Y481464D01*
X414528Y481464D01*
X414646Y481479D01*
X414765Y481486D01*
X414803Y481499D01*
X414844Y481504D01*
X414954Y481547D01*
X415067Y481584D01*
X415102Y481606D01*
X415139Y481621D01*
X415235Y481690D01*
X415336Y481754D01*
X415364Y481784D01*
X415397Y481807D01*
X415473Y481899D01*
X415554Y481986D01*
X415574Y482021D01*
X415599Y482052D01*
X415650Y482160D01*
X415708Y482264D01*
X415718Y482304D01*
X415735Y482340D01*
X415757Y482457D01*
X415787Y482572D01*
X415791Y482632D01*
X415795Y482652D01*
X415793Y482673D01*
X415797Y482733D01*
X415797Y506828D01*
X418103Y509134D01*
X418104Y509134D01*
X420272Y511303D01*
X572008Y511303D01*
X572126Y511318D01*
X572245Y511325D01*
X572283Y511338D01*
X572324Y511343D01*
X572434Y511386D01*
X572547Y511423D01*
X572582Y511445D01*
X572619Y511460D01*
X572715Y511529D01*
X572816Y511593D01*
X572844Y511623D01*
X572877Y511646D01*
X572953Y511738D01*
X573034Y511825D01*
X573054Y511860D01*
X573079Y511891D01*
X573130Y511999D01*
X573188Y512103D01*
X573198Y512143D01*
X573215Y512179D01*
X573237Y512296D01*
X573267Y512411D01*
X573271Y512471D01*
X573275Y512491D01*
X573273Y512512D01*
X573277Y512572D01*
X573277Y899668D01*
X573262Y899786D01*
X573255Y899905D01*
X573242Y899943D01*
X573237Y899984D01*
X573194Y900094D01*
X573157Y900207D01*
X573135Y900242D01*
X573120Y900279D01*
X573051Y900375D01*
X572987Y900476D01*
X572957Y900504D01*
X572934Y900537D01*
X572842Y900613D01*
X572755Y900694D01*
X572720Y900714D01*
X572689Y900739D01*
X572581Y900790D01*
X572477Y900848D01*
X572437Y900858D01*
X572401Y900875D01*
X572284Y900897D01*
X572169Y900927D01*
X572109Y900931D01*
X572089Y900935D01*
X572068Y900933D01*
X572008Y900937D01*
X460912Y900937D01*
X458977Y902872D01*
X458977Y1113028D01*
X458962Y1113146D01*
X458955Y1113265D01*
X458942Y1113303D01*
X458937Y1113344D01*
X458894Y1113454D01*
X458857Y1113567D01*
X458835Y1113602D01*
X458820Y1113639D01*
X458751Y1113735D01*
X458687Y1113836D01*
X458657Y1113864D01*
X458634Y1113897D01*
X458542Y1113973D01*
X458455Y1114054D01*
X458420Y1114074D01*
X458389Y1114099D01*
X458281Y1114150D01*
X458177Y1114208D01*
X458137Y1114218D01*
X458101Y1114235D01*
X457984Y1114257D01*
X457869Y1114287D01*
X457809Y1114291D01*
X457789Y1114295D01*
X457768Y1114293D01*
X457708Y1114297D01*
X427892Y1114297D01*
X425957Y1116232D01*
X425957Y1210408D01*
X427892Y1212343D01*
X463648Y1212343D01*
X465583Y1210408D01*
X465583Y1203307D01*
X465589Y1203258D01*
X465587Y1203208D01*
X465609Y1203101D01*
X465623Y1202992D01*
X465641Y1202945D01*
X465651Y1202897D01*
X465699Y1202798D01*
X465740Y1202696D01*
X465769Y1202656D01*
X465791Y1202611D01*
X465862Y1202528D01*
X465926Y1202439D01*
X465965Y1202407D01*
X465997Y1202369D01*
X466087Y1202306D01*
X466171Y1202236D01*
X466216Y1202215D01*
X466257Y1202186D01*
X466360Y1202147D01*
X466459Y1202100D01*
X466508Y1202091D01*
X466554Y1202073D01*
X466664Y1202061D01*
X466771Y1202041D01*
X466821Y1202044D01*
X466870Y1202038D01*
X466979Y1202053D01*
X467089Y1202060D01*
X467136Y1202076D01*
X467185Y1202083D01*
X467338Y1202135D01*
X470520Y1203453D01*
X474360Y1203453D01*
X477908Y1201983D01*
X480623Y1199268D01*
X482093Y1195720D01*
X482093Y1191880D01*
X480623Y1188332D01*
X477908Y1185617D01*
X474360Y1184147D01*
X470520Y1184147D01*
X467338Y1185465D01*
X467290Y1185479D01*
X467245Y1185500D01*
X467137Y1185520D01*
X467031Y1185549D01*
X466981Y1185550D01*
X466932Y1185559D01*
X466823Y1185553D01*
X466713Y1185554D01*
X466665Y1185543D01*
X466615Y1185540D01*
X466511Y1185506D01*
X466404Y1185480D01*
X466360Y1185457D01*
X466313Y1185442D01*
X466220Y1185383D01*
X466123Y1185332D01*
X466086Y1185298D01*
X466044Y1185272D01*
X465969Y1185191D01*
X465887Y1185118D01*
X465860Y1185076D01*
X465826Y1185040D01*
X465773Y1184944D01*
X465713Y1184852D01*
X465696Y1184805D01*
X465672Y1184761D01*
X465645Y1184655D01*
X465609Y1184551D01*
X465605Y1184502D01*
X465593Y1184453D01*
X465583Y1184293D01*
X465583Y1129792D01*
X465598Y1129674D01*
X465605Y1129555D01*
X465618Y1129517D01*
X465623Y1129476D01*
X465666Y1129366D01*
X465703Y1129253D01*
X465725Y1129218D01*
X465740Y1129181D01*
X465809Y1129085D01*
X465873Y1128984D01*
X465903Y1128956D01*
X465926Y1128923D01*
X466018Y1128847D01*
X466105Y1128766D01*
X466140Y1128746D01*
X466171Y1128721D01*
X466279Y1128670D01*
X466383Y1128612D01*
X466423Y1128602D01*
X466459Y1128585D01*
X466576Y1128563D01*
X466691Y1128533D01*
X466751Y1128529D01*
X466771Y1128525D01*
X466792Y1128527D01*
X466852Y1128523D01*
X478888Y1128523D01*
X480823Y1126588D01*
X480823Y913892D01*
X480838Y913774D01*
X480845Y913655D01*
X480858Y913617D01*
X480863Y913576D01*
X480906Y913466D01*
X480943Y913353D01*
X480965Y913318D01*
X480980Y913281D01*
X481049Y913185D01*
X481113Y913084D01*
X481143Y913056D01*
X481166Y913023D01*
X481258Y912947D01*
X481345Y912866D01*
X481380Y912846D01*
X481411Y912821D01*
X481519Y912770D01*
X481623Y912712D01*
X481663Y912702D01*
X481699Y912685D01*
X481816Y912663D01*
X481931Y912633D01*
X481991Y912629D01*
X482011Y912625D01*
X482032Y912627D01*
X482092Y912623D01*
X583028Y912623D01*
X584963Y910688D01*
X584963Y496472D01*
X583028Y494537D01*
X436372Y494537D01*
X436254Y494522D01*
X436135Y494515D01*
X436097Y494502D01*
X436056Y494497D01*
X435946Y494454D01*
X435833Y494417D01*
X435798Y494395D01*
X435761Y494380D01*
X435665Y494311D01*
X435564Y494247D01*
X435536Y494217D01*
X435503Y494194D01*
X435427Y494102D01*
X435346Y494015D01*
X435326Y493980D01*
X435301Y493949D01*
X435250Y493841D01*
X435192Y493737D01*
X435182Y493697D01*
X435165Y493661D01*
X435143Y493544D01*
X435113Y493429D01*
X435109Y493369D01*
X435105Y493349D01*
X435107Y493328D01*
X435103Y493268D01*
X435103Y482015D01*
X435109Y481966D01*
X435107Y481916D01*
X435129Y481809D01*
X435143Y481700D01*
X435161Y481654D01*
X435171Y481605D01*
X435219Y481506D01*
X435260Y481404D01*
X435289Y481364D01*
X435311Y481319D01*
X435382Y481236D01*
X435446Y481147D01*
X435485Y481115D01*
X435517Y481077D01*
X435607Y481014D01*
X435691Y480944D01*
X435736Y480923D01*
X435777Y480894D01*
X435880Y480855D01*
X435979Y480809D01*
X436028Y480799D01*
X436074Y480782D01*
X436184Y480769D01*
X436291Y480749D01*
X436341Y480752D01*
X436390Y480746D01*
X436499Y480762D01*
X436609Y480768D01*
X436656Y480784D01*
X436705Y480791D01*
X436858Y480843D01*
X438357Y481464D01*
X441843Y481464D01*
X445064Y480130D01*
X447530Y477664D01*
X448864Y474443D01*
X448864Y470957D01*
X447530Y467736D01*
X445064Y465270D01*
X441843Y463936D01*
X438357Y463936D01*
X436858Y464557D01*
X436810Y464570D01*
X436765Y464591D01*
X436657Y464612D01*
X436551Y464641D01*
X436501Y464642D01*
X436452Y464651D01*
X436343Y464644D01*
X436233Y464646D01*
X436185Y464635D01*
X436135Y464632D01*
X436031Y464598D01*
X435924Y464572D01*
X435880Y464549D01*
X435833Y464533D01*
X435740Y464475D01*
X435643Y464423D01*
X435606Y464390D01*
X435564Y464363D01*
X435489Y464283D01*
X435407Y464209D01*
X435380Y464168D01*
X435346Y464132D01*
X435293Y464036D01*
X435233Y463944D01*
X435216Y463897D01*
X435192Y463853D01*
X435165Y463747D01*
X435129Y463643D01*
X435125Y463593D01*
X435113Y463545D01*
X435103Y463385D01*
X435103Y456615D01*
X435109Y456566D01*
X435107Y456516D01*
X435129Y456409D01*
X435143Y456300D01*
X435161Y456254D01*
X435171Y456205D01*
X435219Y456106D01*
X435260Y456004D01*
X435289Y455964D01*
X435311Y455919D01*
X435382Y455836D01*
X435446Y455747D01*
X435485Y455715D01*
X435517Y455677D01*
X435607Y455614D01*
X435691Y455544D01*
X435736Y455523D01*
X435777Y455494D01*
X435880Y455455D01*
X435979Y455409D01*
X436028Y455399D01*
X436074Y455382D01*
X436184Y455369D01*
X436291Y455349D01*
X436341Y455352D01*
X436390Y455346D01*
X436499Y455362D01*
X436609Y455368D01*
X436656Y455384D01*
X436705Y455391D01*
X436858Y455443D01*
X438357Y456064D01*
X441843Y456064D01*
X445064Y454730D01*
X447530Y452264D01*
X448864Y449043D01*
X448864Y445557D01*
X447530Y442336D01*
X445064Y439870D01*
X441843Y438536D01*
X438357Y438536D01*
X436858Y439157D01*
X436810Y439170D01*
X436765Y439191D01*
X436657Y439212D01*
X436551Y439241D01*
X436501Y439242D01*
X436452Y439251D01*
X436343Y439244D01*
X436233Y439246D01*
X436185Y439235D01*
X436135Y439232D01*
X436031Y439198D01*
X435924Y439172D01*
X435880Y439149D01*
X435833Y439133D01*
X435740Y439075D01*
X435643Y439023D01*
X435606Y438990D01*
X435564Y438963D01*
X435489Y438883D01*
X435407Y438809D01*
X435380Y438768D01*
X435346Y438732D01*
X435293Y438636D01*
X435233Y438544D01*
X435216Y438497D01*
X435192Y438453D01*
X435165Y438347D01*
X435129Y438243D01*
X435125Y438193D01*
X435113Y438145D01*
X435103Y437985D01*
X435103Y399952D01*
X433168Y398017D01*
X189992Y398017D01*
X189874Y398002D01*
X189755Y397995D01*
X189717Y397982D01*
X189676Y397977D01*
X189566Y397934D01*
X189453Y397897D01*
X189418Y397875D01*
X189381Y397860D01*
X189285Y397791D01*
X189184Y397727D01*
X189156Y397697D01*
X189123Y397674D01*
X189047Y397582D01*
X188966Y397495D01*
X188946Y397460D01*
X188921Y397429D01*
X188870Y397321D01*
X188812Y397217D01*
X188802Y397177D01*
X188785Y397141D01*
X188763Y397024D01*
X188733Y396909D01*
X188729Y396849D01*
X188725Y396829D01*
X188727Y396808D01*
X188723Y396748D01*
X188723Y257712D01*
X186788Y255777D01*
X153572Y255777D01*
G37*
%LPD*%
G36*
X185440Y258322D02*
X185440Y258322D01*
X185459Y258320D01*
X185561Y258342D01*
X185663Y258359D01*
X185680Y258368D01*
X185700Y258372D01*
X185789Y258425D01*
X185880Y258474D01*
X185894Y258488D01*
X185911Y258498D01*
X185978Y258577D01*
X186050Y258652D01*
X186058Y258670D01*
X186071Y258685D01*
X186110Y258781D01*
X186153Y258875D01*
X186155Y258895D01*
X186163Y258913D01*
X186181Y259080D01*
X186181Y400559D01*
X431800Y400559D01*
X431820Y400562D01*
X431839Y400560D01*
X431941Y400582D01*
X432043Y400599D01*
X432060Y400608D01*
X432080Y400612D01*
X432169Y400665D01*
X432260Y400714D01*
X432274Y400728D01*
X432291Y400738D01*
X432358Y400817D01*
X432430Y400892D01*
X432438Y400910D01*
X432451Y400925D01*
X432490Y401021D01*
X432533Y401115D01*
X432535Y401135D01*
X432543Y401153D01*
X432561Y401320D01*
X432561Y442448D01*
X432551Y442513D01*
X432550Y442578D01*
X432527Y442658D01*
X432522Y442691D01*
X432512Y442708D01*
X432503Y442739D01*
X431336Y445557D01*
X431336Y449043D01*
X432503Y451861D01*
X432518Y451924D01*
X432543Y451985D01*
X432552Y452068D01*
X432559Y452100D01*
X432558Y452119D01*
X432561Y452152D01*
X432561Y467848D01*
X432551Y467913D01*
X432550Y467978D01*
X432527Y468058D01*
X432522Y468091D01*
X432512Y468108D01*
X432503Y468139D01*
X431336Y470957D01*
X431336Y474443D01*
X432503Y477261D01*
X432517Y477319D01*
X432533Y477354D01*
X432534Y477364D01*
X432543Y477385D01*
X432552Y477468D01*
X432559Y477500D01*
X432558Y477519D01*
X432561Y477552D01*
X432561Y497079D01*
X581660Y497079D01*
X581680Y497082D01*
X581699Y497080D01*
X581801Y497102D01*
X581903Y497119D01*
X581920Y497128D01*
X581940Y497132D01*
X582029Y497185D01*
X582120Y497234D01*
X582134Y497248D01*
X582151Y497258D01*
X582218Y497337D01*
X582290Y497412D01*
X582298Y497430D01*
X582311Y497445D01*
X582350Y497541D01*
X582393Y497635D01*
X582395Y497655D01*
X582403Y497673D01*
X582421Y497840D01*
X582421Y909320D01*
X582418Y909340D01*
X582420Y909359D01*
X582398Y909461D01*
X582382Y909563D01*
X582372Y909580D01*
X582368Y909600D01*
X582315Y909689D01*
X582266Y909780D01*
X582252Y909794D01*
X582242Y909811D01*
X582163Y909878D01*
X582088Y909950D01*
X582070Y909958D01*
X582055Y909971D01*
X581959Y910010D01*
X581865Y910053D01*
X581845Y910055D01*
X581827Y910063D01*
X581660Y910081D01*
X478281Y910081D01*
X478281Y1125220D01*
X478278Y1125240D01*
X478280Y1125259D01*
X478258Y1125361D01*
X478242Y1125463D01*
X478232Y1125480D01*
X478228Y1125500D01*
X478175Y1125589D01*
X478126Y1125680D01*
X478112Y1125694D01*
X478102Y1125711D01*
X478023Y1125778D01*
X477948Y1125850D01*
X477930Y1125858D01*
X477915Y1125871D01*
X477819Y1125910D01*
X477725Y1125953D01*
X477705Y1125955D01*
X477687Y1125963D01*
X477520Y1125981D01*
X463041Y1125981D01*
X463041Y1191115D01*
X463031Y1191180D01*
X463030Y1191246D01*
X463007Y1191326D01*
X463002Y1191358D01*
X462992Y1191375D01*
X462983Y1191407D01*
X462787Y1191880D01*
X462787Y1195720D01*
X462983Y1196193D01*
X462998Y1196257D01*
X463023Y1196318D01*
X463032Y1196401D01*
X463039Y1196433D01*
X463038Y1196452D01*
X463041Y1196485D01*
X463041Y1209040D01*
X463038Y1209060D01*
X463040Y1209079D01*
X463018Y1209181D01*
X463002Y1209283D01*
X462992Y1209300D01*
X462988Y1209320D01*
X462935Y1209409D01*
X462886Y1209500D01*
X462872Y1209514D01*
X462862Y1209531D01*
X462783Y1209598D01*
X462708Y1209670D01*
X462690Y1209678D01*
X462675Y1209691D01*
X462579Y1209730D01*
X462485Y1209773D01*
X462465Y1209775D01*
X462447Y1209783D01*
X462280Y1209801D01*
X429260Y1209801D01*
X429240Y1209798D01*
X429221Y1209800D01*
X429119Y1209778D01*
X429017Y1209762D01*
X429000Y1209752D01*
X428980Y1209748D01*
X428891Y1209695D01*
X428800Y1209646D01*
X428786Y1209632D01*
X428769Y1209622D01*
X428702Y1209543D01*
X428631Y1209468D01*
X428622Y1209450D01*
X428609Y1209435D01*
X428570Y1209339D01*
X428527Y1209245D01*
X428525Y1209225D01*
X428517Y1209207D01*
X428499Y1209040D01*
X428499Y1117600D01*
X428502Y1117580D01*
X428500Y1117561D01*
X428522Y1117459D01*
X428539Y1117357D01*
X428548Y1117340D01*
X428552Y1117320D01*
X428605Y1117231D01*
X428654Y1117140D01*
X428668Y1117126D01*
X428678Y1117109D01*
X428757Y1117042D01*
X428832Y1116971D01*
X428850Y1116962D01*
X428865Y1116949D01*
X428961Y1116910D01*
X429055Y1116867D01*
X429075Y1116865D01*
X429093Y1116857D01*
X429260Y1116839D01*
X461519Y1116839D01*
X461519Y904240D01*
X461522Y904220D01*
X461520Y904201D01*
X461542Y904099D01*
X461559Y903997D01*
X461568Y903980D01*
X461572Y903960D01*
X461625Y903871D01*
X461674Y903780D01*
X461688Y903766D01*
X461698Y903749D01*
X461777Y903682D01*
X461852Y903611D01*
X461870Y903602D01*
X461885Y903589D01*
X461981Y903550D01*
X462075Y903507D01*
X462095Y903505D01*
X462113Y903497D01*
X462280Y903479D01*
X575819Y903479D01*
X575819Y508761D01*
X421640Y508761D01*
X421550Y508747D01*
X421459Y508739D01*
X421429Y508727D01*
X421397Y508722D01*
X421317Y508679D01*
X421233Y508643D01*
X421201Y508617D01*
X421180Y508606D01*
X421158Y508583D01*
X421102Y508538D01*
X418562Y505998D01*
X418509Y505924D01*
X418449Y505855D01*
X418437Y505825D01*
X418418Y505799D01*
X418391Y505712D01*
X418357Y505627D01*
X418353Y505586D01*
X418346Y505563D01*
X418347Y505531D01*
X418339Y505460D01*
X418339Y481187D01*
X418358Y481073D01*
X418375Y480956D01*
X418378Y480951D01*
X418379Y480944D01*
X418433Y480842D01*
X418486Y480737D01*
X418491Y480733D01*
X418494Y480727D01*
X418578Y480647D01*
X418662Y480565D01*
X418668Y480561D01*
X418672Y480558D01*
X418689Y480550D01*
X418809Y480484D01*
X419664Y480130D01*
X422130Y477664D01*
X423464Y474443D01*
X423464Y470957D01*
X422130Y467736D01*
X419664Y465270D01*
X418809Y464916D01*
X418709Y464854D01*
X418609Y464795D01*
X418605Y464790D01*
X418600Y464787D01*
X418525Y464697D01*
X418449Y464608D01*
X418447Y464602D01*
X418443Y464597D01*
X418401Y464489D01*
X418357Y464380D01*
X418356Y464372D01*
X418355Y464367D01*
X418354Y464349D01*
X418339Y464213D01*
X418339Y460501D01*
X403860Y460501D01*
X403840Y460498D01*
X403821Y460500D01*
X403719Y460478D01*
X403617Y460462D01*
X403600Y460452D01*
X403580Y460448D01*
X403491Y460395D01*
X403400Y460346D01*
X403386Y460332D01*
X403369Y460322D01*
X403302Y460243D01*
X403231Y460168D01*
X403222Y460150D01*
X403209Y460135D01*
X403170Y460039D01*
X403127Y459945D01*
X403125Y459925D01*
X403117Y459907D01*
X403099Y459740D01*
X403099Y417321D01*
X154940Y417321D01*
X154920Y417318D01*
X154901Y417320D01*
X154799Y417298D01*
X154697Y417282D01*
X154680Y417272D01*
X154660Y417268D01*
X154571Y417215D01*
X154480Y417166D01*
X154466Y417152D01*
X154449Y417142D01*
X154382Y417063D01*
X154311Y416988D01*
X154302Y416970D01*
X154289Y416955D01*
X154250Y416859D01*
X154207Y416765D01*
X154205Y416745D01*
X154197Y416727D01*
X154179Y416560D01*
X154179Y259080D01*
X154182Y259060D01*
X154180Y259041D01*
X154202Y258939D01*
X154219Y258837D01*
X154228Y258820D01*
X154232Y258800D01*
X154285Y258711D01*
X154334Y258620D01*
X154348Y258606D01*
X154358Y258589D01*
X154437Y258522D01*
X154512Y258451D01*
X154530Y258442D01*
X154545Y258429D01*
X154641Y258390D01*
X154735Y258347D01*
X154755Y258345D01*
X154773Y258337D01*
X154940Y258319D01*
X185420Y258319D01*
X185440Y258322D01*
G37*
%LPC*%
G36*
X33426Y1208404D02*
X33426Y1208404D01*
X24791Y1211981D01*
X18181Y1218591D01*
X14604Y1227226D01*
X14604Y1236574D01*
X18181Y1245209D01*
X24791Y1251819D01*
X33426Y1255396D01*
X42774Y1255396D01*
X51409Y1251819D01*
X58019Y1245209D01*
X61596Y1236574D01*
X61596Y1227226D01*
X58019Y1218591D01*
X51409Y1211981D01*
X42774Y1208404D01*
X33426Y1208404D01*
G37*
%LPD*%
%LPC*%
G36*
X973226Y1208404D02*
X973226Y1208404D01*
X964591Y1211981D01*
X957981Y1218591D01*
X954404Y1227226D01*
X954404Y1236574D01*
X957981Y1245209D01*
X964591Y1251819D01*
X973226Y1255396D01*
X982574Y1255396D01*
X991209Y1251819D01*
X997819Y1245209D01*
X1001396Y1236574D01*
X1001396Y1227226D01*
X997819Y1218591D01*
X991209Y1211981D01*
X982574Y1208404D01*
X973226Y1208404D01*
G37*
%LPD*%
%LPC*%
G36*
X33426Y14604D02*
X33426Y14604D01*
X24791Y18181D01*
X18181Y24791D01*
X14604Y33426D01*
X14604Y42774D01*
X18181Y51409D01*
X24791Y58019D01*
X33426Y61596D01*
X42774Y61596D01*
X51409Y58019D01*
X58019Y51409D01*
X61596Y42774D01*
X61596Y33426D01*
X58019Y24791D01*
X51409Y18181D01*
X42774Y14604D01*
X33426Y14604D01*
G37*
%LPD*%
%LPC*%
G36*
X973226Y14604D02*
X973226Y14604D01*
X964591Y18181D01*
X957981Y24791D01*
X954404Y33426D01*
X954404Y42774D01*
X957981Y51409D01*
X964591Y58019D01*
X973226Y61596D01*
X982574Y61596D01*
X991209Y58019D01*
X997819Y51409D01*
X1001396Y42774D01*
X1001396Y33426D01*
X997819Y24791D01*
X991209Y18181D01*
X982574Y14604D01*
X973226Y14604D01*
G37*
%LPD*%
%LPC*%
G36*
X864470Y559979D02*
X864470Y559979D01*
X858390Y562497D01*
X853737Y567150D01*
X851219Y573230D01*
X851219Y579810D01*
X853737Y585890D01*
X858390Y590543D01*
X864470Y593061D01*
X871050Y593061D01*
X877130Y590543D01*
X881783Y585890D01*
X884301Y579810D01*
X884301Y573230D01*
X881783Y567150D01*
X877130Y562497D01*
X871050Y559979D01*
X864470Y559979D01*
G37*
%LPD*%
%LPC*%
G36*
X114470Y559979D02*
X114470Y559979D01*
X108390Y562497D01*
X103737Y567150D01*
X101219Y573230D01*
X101219Y579810D01*
X103737Y585890D01*
X108390Y590543D01*
X114470Y593061D01*
X121050Y593061D01*
X127130Y590543D01*
X131783Y585890D01*
X134301Y579810D01*
X134301Y573230D01*
X131783Y567150D01*
X127130Y562497D01*
X121050Y559979D01*
X114470Y559979D01*
G37*
%LPD*%
%LPC*%
G36*
X864470Y869979D02*
X864470Y869979D01*
X858390Y872497D01*
X853737Y877150D01*
X851219Y883230D01*
X851219Y889810D01*
X853737Y895890D01*
X858390Y900543D01*
X864470Y903061D01*
X871050Y903061D01*
X877130Y900543D01*
X881783Y895890D01*
X884301Y889810D01*
X884301Y883230D01*
X881783Y877150D01*
X877130Y872497D01*
X871050Y869979D01*
X864470Y869979D01*
G37*
%LPD*%
%LPC*%
G36*
X114470Y869979D02*
X114470Y869979D01*
X108390Y872497D01*
X103737Y877150D01*
X101219Y883230D01*
X101219Y889810D01*
X103737Y895890D01*
X108390Y900543D01*
X114470Y903061D01*
X121050Y903061D01*
X127130Y900543D01*
X131783Y895890D01*
X134301Y889810D01*
X134301Y883230D01*
X131783Y877150D01*
X127130Y872497D01*
X121050Y869979D01*
X114470Y869979D01*
G37*
%LPD*%
%LPC*%
G36*
X513193Y870485D02*
X513193Y870485D01*
X511056Y871370D01*
X509420Y873006D01*
X508535Y875143D01*
X508535Y876582D01*
X508523Y876680D01*
X508520Y876780D01*
X508503Y876837D01*
X508495Y876897D01*
X508459Y876990D01*
X508431Y877085D01*
X508400Y877137D01*
X508378Y877193D01*
X508320Y877273D01*
X508269Y877359D01*
X508227Y877402D01*
X508192Y877450D01*
X508115Y877514D01*
X508045Y877584D01*
X507993Y877615D01*
X507947Y877653D01*
X507857Y877695D01*
X507771Y877746D01*
X507713Y877763D01*
X507659Y877789D01*
X507561Y877807D01*
X507466Y877835D01*
X507406Y877837D01*
X507347Y877848D01*
X507247Y877842D01*
X507148Y877845D01*
X507089Y877832D01*
X507029Y877829D01*
X506935Y877798D01*
X506837Y877776D01*
X506746Y877737D01*
X506727Y877731D01*
X506716Y877724D01*
X506690Y877713D01*
X506622Y877678D01*
X505459Y877300D01*
X505459Y884021D01*
X512180Y884021D01*
X512100Y883776D01*
X512064Y883585D01*
X512041Y883464D01*
X512052Y883276D01*
X512060Y883147D01*
X512061Y883146D01*
X512119Y882968D01*
X512158Y882845D01*
X512159Y882844D01*
X512248Y882703D01*
X512329Y882576D01*
X512329Y882575D01*
X512425Y882485D01*
X512560Y882358D01*
X512561Y882358D01*
X512690Y882286D01*
X512839Y882204D01*
X513006Y882161D01*
X513147Y882125D01*
X513148Y882125D01*
X513307Y882115D01*
X515507Y882115D01*
X517703Y881205D01*
X517718Y881196D01*
X517789Y881141D01*
X517853Y881113D01*
X517912Y881077D01*
X517998Y881050D01*
X518080Y881015D01*
X518149Y881004D01*
X518216Y880983D01*
X518306Y880979D01*
X518394Y880965D01*
X518464Y880971D01*
X518534Y880968D01*
X518622Y880986D01*
X518711Y880994D01*
X518777Y881018D01*
X518845Y881032D01*
X518926Y881072D01*
X519010Y881102D01*
X519068Y881141D01*
X519131Y881172D01*
X519199Y881230D01*
X519274Y881280D01*
X519320Y881333D01*
X519373Y881378D01*
X519425Y881452D01*
X519484Y881519D01*
X519516Y881581D01*
X519556Y881638D01*
X519588Y881722D01*
X519629Y881802D01*
X519644Y881870D01*
X519669Y881936D01*
X519679Y882025D01*
X519698Y882112D01*
X519696Y882182D01*
X519704Y882252D01*
X519692Y882341D01*
X519689Y882430D01*
X519669Y882497D01*
X519660Y882567D01*
X519608Y882719D01*
X518819Y884622D01*
X518819Y888418D01*
X520272Y891924D01*
X522956Y894608D01*
X526462Y896061D01*
X530258Y896061D01*
X533764Y894608D01*
X536448Y891924D01*
X537901Y888418D01*
X537901Y884622D01*
X537589Y883870D01*
X537577Y883826D01*
X537561Y883793D01*
X537561Y883790D01*
X537555Y883777D01*
X537534Y883669D01*
X537505Y883563D01*
X537504Y883513D01*
X537495Y883464D01*
X537502Y883355D01*
X537500Y883245D01*
X537512Y883197D01*
X537515Y883147D01*
X537549Y883043D01*
X537574Y882936D01*
X537597Y882892D01*
X537613Y882845D01*
X537672Y882752D01*
X537723Y882655D01*
X537756Y882618D01*
X537783Y882576D01*
X537863Y882501D01*
X537937Y882419D01*
X537978Y882392D01*
X538015Y882358D01*
X538111Y882305D01*
X538203Y882245D01*
X538250Y882228D01*
X538293Y882204D01*
X538399Y882177D01*
X538503Y882141D01*
X538553Y882137D01*
X538601Y882125D01*
X538762Y882115D01*
X540907Y882115D01*
X543103Y881205D01*
X543118Y881196D01*
X543189Y881141D01*
X543253Y881113D01*
X543312Y881077D01*
X543398Y881050D01*
X543480Y881015D01*
X543549Y881004D01*
X543616Y880983D01*
X543706Y880979D01*
X543794Y880965D01*
X543864Y880971D01*
X543934Y880968D01*
X544022Y880986D01*
X544111Y880994D01*
X544177Y881018D01*
X544245Y881032D01*
X544326Y881072D01*
X544410Y881102D01*
X544468Y881141D01*
X544531Y881172D01*
X544599Y881230D01*
X544674Y881280D01*
X544720Y881333D01*
X544773Y881378D01*
X544825Y881452D01*
X544884Y881519D01*
X544916Y881581D01*
X544956Y881638D01*
X544988Y881722D01*
X545029Y881802D01*
X545044Y881870D01*
X545069Y881936D01*
X545079Y882025D01*
X545098Y882112D01*
X545096Y882182D01*
X545104Y882252D01*
X545092Y882341D01*
X545089Y882430D01*
X545069Y882497D01*
X545060Y882567D01*
X545008Y882719D01*
X544219Y884622D01*
X544219Y888418D01*
X545672Y891924D01*
X548356Y894608D01*
X551862Y896061D01*
X555658Y896061D01*
X559164Y894608D01*
X561848Y891924D01*
X563301Y888418D01*
X563301Y884622D01*
X561848Y881116D01*
X559164Y878432D01*
X555658Y876979D01*
X551862Y876979D01*
X548356Y878432D01*
X547414Y879374D01*
X547359Y879416D01*
X547310Y879467D01*
X547233Y879514D01*
X547162Y879569D01*
X547099Y879596D01*
X547039Y879633D01*
X546953Y879659D01*
X546871Y879695D01*
X546802Y879706D01*
X546735Y879726D01*
X546645Y879731D01*
X546557Y879745D01*
X546487Y879738D01*
X546417Y879742D01*
X546330Y879723D01*
X546240Y879715D01*
X546174Y879691D01*
X546106Y879677D01*
X546025Y879638D01*
X545941Y879607D01*
X545883Y879568D01*
X545820Y879538D01*
X545752Y879479D01*
X545678Y879429D01*
X545631Y879376D01*
X545578Y879331D01*
X545526Y879258D01*
X545467Y879190D01*
X545435Y879128D01*
X545395Y879071D01*
X545363Y878987D01*
X545322Y878907D01*
X545307Y878839D01*
X545282Y878774D01*
X545272Y878684D01*
X545253Y878597D01*
X545255Y878527D01*
X545247Y878458D01*
X545260Y878369D01*
X545262Y878279D01*
X545282Y878212D01*
X545292Y878143D01*
X545344Y877990D01*
X545565Y877457D01*
X545565Y875143D01*
X544680Y873006D01*
X543044Y871370D01*
X540907Y870485D01*
X538593Y870485D01*
X536456Y871370D01*
X534820Y873006D01*
X533935Y875143D01*
X533935Y876603D01*
X533929Y876652D01*
X533931Y876702D01*
X533909Y876809D01*
X533895Y876919D01*
X533877Y876965D01*
X533867Y877013D01*
X533819Y877112D01*
X533778Y877214D01*
X533749Y877254D01*
X533727Y877299D01*
X533656Y877383D01*
X533592Y877472D01*
X533553Y877503D01*
X533521Y877541D01*
X533431Y877604D01*
X533347Y877674D01*
X533302Y877696D01*
X533261Y877724D01*
X533158Y877763D01*
X533059Y877810D01*
X533010Y877819D01*
X532964Y877837D01*
X532854Y877849D01*
X532747Y877870D01*
X532697Y877867D01*
X532648Y877872D01*
X532539Y877857D01*
X532429Y877850D01*
X532382Y877835D01*
X532333Y877828D01*
X532180Y877776D01*
X530258Y876979D01*
X526462Y876979D01*
X522956Y878432D01*
X522014Y879374D01*
X521959Y879416D01*
X521910Y879467D01*
X521833Y879514D01*
X521762Y879569D01*
X521699Y879596D01*
X521639Y879633D01*
X521553Y879659D01*
X521471Y879695D01*
X521402Y879706D01*
X521335Y879726D01*
X521245Y879731D01*
X521157Y879745D01*
X521087Y879738D01*
X521017Y879742D01*
X520930Y879723D01*
X520840Y879715D01*
X520774Y879691D01*
X520706Y879677D01*
X520625Y879638D01*
X520541Y879607D01*
X520483Y879568D01*
X520420Y879538D01*
X520352Y879479D01*
X520278Y879429D01*
X520231Y879376D01*
X520178Y879331D01*
X520126Y879258D01*
X520067Y879190D01*
X520035Y879128D01*
X519995Y879071D01*
X519963Y878987D01*
X519922Y878907D01*
X519907Y878839D01*
X519882Y878774D01*
X519872Y878684D01*
X519853Y878597D01*
X519855Y878527D01*
X519847Y878458D01*
X519860Y878369D01*
X519862Y878279D01*
X519882Y878212D01*
X519892Y878143D01*
X519944Y877990D01*
X520165Y877457D01*
X520165Y875143D01*
X519280Y873006D01*
X517644Y871370D01*
X515507Y870485D01*
X513193Y870485D01*
G37*
%LPD*%
%LPC*%
G36*
X442308Y54659D02*
X442308Y54659D01*
X436780Y56949D01*
X432549Y61180D01*
X430259Y66708D01*
X430259Y72692D01*
X432549Y78220D01*
X436780Y82451D01*
X442308Y84741D01*
X448292Y84741D01*
X453820Y82451D01*
X458051Y78220D01*
X460341Y72692D01*
X460341Y66708D01*
X458051Y61180D01*
X453820Y56949D01*
X448292Y54659D01*
X442308Y54659D01*
G37*
%LPD*%
%LPC*%
G36*
X542308Y54659D02*
X542308Y54659D01*
X536780Y56949D01*
X532549Y61180D01*
X530259Y66708D01*
X530259Y72692D01*
X532549Y78220D01*
X536780Y82451D01*
X542308Y84741D01*
X548292Y84741D01*
X553820Y82451D01*
X558051Y78220D01*
X560341Y72692D01*
X560341Y66708D01*
X558051Y61180D01*
X553820Y56949D01*
X548292Y54659D01*
X542308Y54659D01*
G37*
%LPD*%
%LPC*%
G36*
X259193Y870485D02*
X259193Y870485D01*
X257056Y871370D01*
X255420Y873006D01*
X254535Y875143D01*
X254535Y876603D01*
X254529Y876652D01*
X254531Y876702D01*
X254509Y876809D01*
X254495Y876919D01*
X254477Y876965D01*
X254467Y877013D01*
X254419Y877112D01*
X254378Y877214D01*
X254349Y877254D01*
X254327Y877299D01*
X254256Y877383D01*
X254192Y877472D01*
X254153Y877503D01*
X254121Y877541D01*
X254031Y877604D01*
X253947Y877674D01*
X253902Y877696D01*
X253861Y877724D01*
X253758Y877763D01*
X253659Y877810D01*
X253610Y877819D01*
X253564Y877837D01*
X253454Y877849D01*
X253347Y877870D01*
X253297Y877867D01*
X253248Y877872D01*
X253139Y877857D01*
X253029Y877850D01*
X252982Y877835D01*
X252933Y877828D01*
X252780Y877776D01*
X250858Y876979D01*
X247062Y876979D01*
X243556Y878432D01*
X240872Y881116D01*
X239419Y884622D01*
X239419Y888418D01*
X240872Y891924D01*
X243556Y894608D01*
X247062Y896061D01*
X250858Y896061D01*
X254364Y894608D01*
X257048Y891924D01*
X258501Y888418D01*
X258501Y884622D01*
X258189Y883870D01*
X258177Y883826D01*
X258161Y883793D01*
X258161Y883790D01*
X258155Y883777D01*
X258134Y883669D01*
X258105Y883563D01*
X258104Y883513D01*
X258095Y883464D01*
X258102Y883355D01*
X258100Y883245D01*
X258112Y883197D01*
X258115Y883147D01*
X258149Y883043D01*
X258174Y882936D01*
X258197Y882892D01*
X258213Y882845D01*
X258271Y882752D01*
X258323Y882655D01*
X258356Y882618D01*
X258383Y882576D01*
X258463Y882501D01*
X258537Y882419D01*
X258578Y882392D01*
X258615Y882358D01*
X258711Y882305D01*
X258802Y882245D01*
X258849Y882228D01*
X258893Y882204D01*
X258999Y882177D01*
X259103Y882141D01*
X259153Y882137D01*
X259201Y882125D01*
X259362Y882115D01*
X260250Y882115D01*
X260348Y882127D01*
X260447Y882130D01*
X260505Y882147D01*
X260565Y882155D01*
X260657Y882191D01*
X260753Y882219D01*
X260805Y882249D01*
X260861Y882272D01*
X260941Y882330D01*
X261026Y882380D01*
X261102Y882446D01*
X261118Y882458D01*
X261126Y882468D01*
X261131Y882472D01*
X261135Y882475D01*
X261136Y882477D01*
X261147Y882486D01*
X264448Y885787D01*
X264508Y885865D01*
X264576Y885937D01*
X264605Y885990D01*
X264642Y886038D01*
X264682Y886129D01*
X264730Y886216D01*
X264745Y886274D01*
X264769Y886330D01*
X264784Y886428D01*
X264809Y886524D01*
X264815Y886624D01*
X264819Y886644D01*
X264817Y886656D01*
X264819Y886684D01*
X264819Y888418D01*
X266272Y891924D01*
X268956Y894608D01*
X272462Y896061D01*
X276258Y896061D01*
X279764Y894608D01*
X282448Y891924D01*
X283901Y888418D01*
X283901Y884622D01*
X282448Y881116D01*
X279764Y878432D01*
X276258Y876979D01*
X272462Y876979D01*
X268972Y878425D01*
X268944Y878433D01*
X268917Y878446D01*
X268791Y878475D01*
X268665Y878509D01*
X268636Y878509D01*
X268607Y878516D01*
X268477Y878512D01*
X268347Y878514D01*
X268319Y878507D01*
X268289Y878506D01*
X268165Y878470D01*
X268038Y878440D01*
X268012Y878426D01*
X267984Y878418D01*
X267872Y878352D01*
X267757Y878291D01*
X267735Y878271D01*
X267710Y878256D01*
X267589Y878150D01*
X266536Y877097D01*
X266476Y877019D01*
X266408Y876947D01*
X266379Y876894D01*
X266342Y876846D01*
X266302Y876755D01*
X266254Y876668D01*
X266239Y876610D01*
X266215Y876554D01*
X266200Y876456D01*
X266175Y876360D01*
X266169Y876260D01*
X266165Y876240D01*
X266167Y876228D01*
X266165Y876200D01*
X266165Y875143D01*
X265280Y873006D01*
X263644Y871370D01*
X261507Y870485D01*
X259193Y870485D01*
G37*
%LPD*%
%LPC*%
G36*
X187045Y102359D02*
X187045Y102359D01*
X182510Y104238D01*
X179038Y107710D01*
X178021Y110166D01*
X177996Y110209D01*
X177979Y110255D01*
X177918Y110346D01*
X177863Y110442D01*
X177829Y110478D01*
X177801Y110519D01*
X177718Y110591D01*
X177642Y110670D01*
X177599Y110696D01*
X177562Y110729D01*
X177465Y110779D01*
X177371Y110836D01*
X177323Y110851D01*
X177279Y110874D01*
X177172Y110898D01*
X177067Y110930D01*
X177017Y110932D01*
X176969Y110943D01*
X176859Y110940D01*
X176749Y110945D01*
X176701Y110935D01*
X176651Y110934D01*
X176545Y110903D01*
X176438Y110881D01*
X176393Y110859D01*
X176345Y110845D01*
X176251Y110790D01*
X176152Y110741D01*
X176114Y110709D01*
X176071Y110684D01*
X175951Y110577D01*
X174744Y109370D01*
X172607Y108485D01*
X170293Y108485D01*
X168156Y109370D01*
X166520Y111006D01*
X165635Y113143D01*
X165635Y115457D01*
X166520Y117594D01*
X168156Y119230D01*
X170293Y120115D01*
X172607Y120115D01*
X174744Y119230D01*
X175716Y118257D01*
X175755Y118227D01*
X175789Y118190D01*
X175881Y118129D01*
X175968Y118062D01*
X176013Y118042D01*
X176055Y118015D01*
X176159Y117979D01*
X176259Y117936D01*
X176308Y117928D01*
X176355Y117912D01*
X176465Y117903D01*
X176573Y117886D01*
X176623Y117891D01*
X176672Y117887D01*
X176781Y117905D01*
X176890Y117916D01*
X176937Y117932D01*
X176986Y117941D01*
X177086Y117986D01*
X177189Y118023D01*
X177231Y118051D01*
X177276Y118072D01*
X177362Y118140D01*
X177453Y118202D01*
X177485Y118239D01*
X177524Y118270D01*
X177590Y118358D01*
X177663Y118440D01*
X177686Y118484D01*
X177715Y118524D01*
X177786Y118669D01*
X179038Y121690D01*
X182510Y125162D01*
X187045Y127041D01*
X191955Y127041D01*
X196490Y125162D01*
X199962Y121690D01*
X201841Y117155D01*
X201841Y112245D01*
X199962Y107710D01*
X196490Y104238D01*
X191955Y102359D01*
X187045Y102359D01*
G37*
%LPD*%
%LPC*%
G36*
X62045Y102359D02*
X62045Y102359D01*
X57510Y104238D01*
X54038Y107710D01*
X53945Y107935D01*
X53886Y108038D01*
X53833Y108145D01*
X53807Y108176D01*
X53787Y108211D01*
X53704Y108297D01*
X53627Y108387D01*
X53594Y108411D01*
X53566Y108440D01*
X53464Y108502D01*
X53367Y108570D01*
X53329Y108585D01*
X53295Y108606D01*
X53181Y108641D01*
X53070Y108683D01*
X53029Y108688D01*
X52991Y108699D01*
X52872Y108705D01*
X52754Y108718D01*
X52714Y108713D01*
X52673Y108715D01*
X52556Y108691D01*
X52439Y108674D01*
X52382Y108654D01*
X52362Y108650D01*
X52343Y108641D01*
X52286Y108622D01*
X51957Y108485D01*
X49643Y108485D01*
X47506Y109370D01*
X45870Y111006D01*
X44985Y113143D01*
X44985Y115457D01*
X45870Y117594D01*
X47506Y119230D01*
X49643Y120115D01*
X51957Y120115D01*
X52003Y120095D01*
X52118Y120064D01*
X52231Y120025D01*
X52271Y120022D01*
X52310Y120011D01*
X52429Y120009D01*
X52548Y120000D01*
X52588Y120007D01*
X52628Y120006D01*
X52744Y120034D01*
X52861Y120054D01*
X52898Y120071D01*
X52937Y120080D01*
X53043Y120136D01*
X53151Y120185D01*
X53183Y120210D01*
X53219Y120229D01*
X53307Y120309D01*
X53400Y120384D01*
X53424Y120416D01*
X53454Y120443D01*
X53519Y120543D01*
X53591Y120638D01*
X53617Y120692D01*
X53629Y120709D01*
X53635Y120728D01*
X53662Y120782D01*
X54038Y121690D01*
X57510Y125162D01*
X62045Y127041D01*
X66955Y127041D01*
X71490Y125162D01*
X74962Y121690D01*
X76841Y117155D01*
X76841Y112245D01*
X74962Y107710D01*
X71490Y104238D01*
X66955Y102359D01*
X62045Y102359D01*
G37*
%LPD*%
%LPC*%
G36*
X261665Y1181259D02*
X261665Y1181259D01*
X257056Y1183168D01*
X253528Y1186696D01*
X251619Y1191305D01*
X251619Y1196295D01*
X253528Y1200904D01*
X257056Y1204432D01*
X261665Y1206341D01*
X266655Y1206341D01*
X271264Y1204432D01*
X274792Y1200904D01*
X276701Y1196295D01*
X276701Y1191305D01*
X274792Y1186696D01*
X271264Y1183168D01*
X266655Y1181259D01*
X261665Y1181259D01*
G37*
%LPD*%
%LPC*%
G36*
X698545Y1181259D02*
X698545Y1181259D01*
X693936Y1183168D01*
X690408Y1186696D01*
X688499Y1191305D01*
X688499Y1196295D01*
X690408Y1200904D01*
X693936Y1204432D01*
X698545Y1206341D01*
X703535Y1206341D01*
X708144Y1204432D01*
X711672Y1200904D01*
X713581Y1196295D01*
X713581Y1191305D01*
X711672Y1186696D01*
X708144Y1183168D01*
X703535Y1181259D01*
X698545Y1181259D01*
G37*
%LPD*%
%LPC*%
G36*
X698545Y952659D02*
X698545Y952659D01*
X693936Y954568D01*
X690408Y958096D01*
X688499Y962705D01*
X688499Y967695D01*
X690408Y972304D01*
X693936Y975832D01*
X698545Y977741D01*
X703535Y977741D01*
X708144Y975832D01*
X711672Y972304D01*
X713581Y967695D01*
X713581Y962705D01*
X711672Y958096D01*
X708144Y954568D01*
X703535Y952659D01*
X698545Y952659D01*
G37*
%LPD*%
%LPC*%
G36*
X261665Y952659D02*
X261665Y952659D01*
X257056Y954568D01*
X253528Y958096D01*
X251619Y962705D01*
X251619Y967695D01*
X253528Y972304D01*
X257056Y975832D01*
X261665Y977741D01*
X266655Y977741D01*
X271264Y975832D01*
X274792Y972304D01*
X276701Y967695D01*
X276701Y962705D01*
X274792Y958096D01*
X271264Y954568D01*
X266655Y952659D01*
X261665Y952659D01*
G37*
%LPD*%
%LPC*%
G36*
X187045Y152359D02*
X187045Y152359D01*
X182510Y154238D01*
X179038Y157710D01*
X177159Y162245D01*
X177159Y167155D01*
X179038Y171690D01*
X182510Y175162D01*
X187045Y177041D01*
X191955Y177041D01*
X196490Y175162D01*
X199962Y171690D01*
X201841Y167155D01*
X201841Y162245D01*
X199962Y157710D01*
X196490Y154238D01*
X191955Y152359D01*
X187045Y152359D01*
G37*
%LPD*%
%LPC*%
G36*
X62045Y152359D02*
X62045Y152359D01*
X57510Y154238D01*
X54038Y157710D01*
X52159Y162245D01*
X52159Y167155D01*
X54038Y171690D01*
X57510Y175162D01*
X62045Y177041D01*
X66955Y177041D01*
X71490Y175162D01*
X74962Y171690D01*
X76841Y167155D01*
X76841Y162245D01*
X74962Y157710D01*
X71490Y154238D01*
X66955Y152359D01*
X62045Y152359D01*
G37*
%LPD*%
%LPC*%
G36*
X811057Y156336D02*
X811057Y156336D01*
X807836Y157670D01*
X805370Y160136D01*
X805217Y160506D01*
X805203Y160531D01*
X805193Y160559D01*
X805124Y160669D01*
X805060Y160782D01*
X805039Y160803D01*
X805023Y160828D01*
X804929Y160917D01*
X804838Y161010D01*
X804813Y161026D01*
X804792Y161046D01*
X804678Y161109D01*
X804567Y161177D01*
X804539Y161185D01*
X804513Y161200D01*
X804387Y161232D01*
X804263Y161270D01*
X804234Y161272D01*
X804205Y161279D01*
X804045Y161289D01*
X798688Y161289D01*
X798590Y161277D01*
X798491Y161274D01*
X798433Y161257D01*
X798373Y161249D01*
X798281Y161213D01*
X798186Y161185D01*
X798133Y161155D01*
X798077Y161132D01*
X797997Y161074D01*
X797912Y161024D01*
X797836Y160958D01*
X797820Y160946D01*
X797812Y160936D01*
X797791Y160918D01*
X797044Y160170D01*
X794907Y159285D01*
X792593Y159285D01*
X790456Y160170D01*
X788820Y161806D01*
X787935Y163943D01*
X787935Y166257D01*
X788820Y168394D01*
X790456Y170030D01*
X792593Y170915D01*
X794907Y170915D01*
X797044Y170030D01*
X797791Y169282D01*
X797869Y169222D01*
X797941Y169154D01*
X797994Y169125D01*
X798042Y169088D01*
X798133Y169048D01*
X798220Y169000D01*
X798278Y168985D01*
X798334Y168961D01*
X798432Y168946D01*
X798528Y168921D01*
X798628Y168915D01*
X798648Y168911D01*
X798660Y168913D01*
X798688Y168911D01*
X804045Y168911D01*
X804074Y168914D01*
X804103Y168912D01*
X804231Y168934D01*
X804360Y168951D01*
X804388Y168961D01*
X804417Y168966D01*
X804535Y169020D01*
X804656Y169068D01*
X804680Y169085D01*
X804707Y169097D01*
X804808Y169178D01*
X804913Y169254D01*
X804932Y169277D01*
X804955Y169296D01*
X805033Y169399D01*
X805116Y169499D01*
X805129Y169526D01*
X805146Y169550D01*
X805217Y169694D01*
X805370Y170064D01*
X807836Y172530D01*
X811057Y173864D01*
X814543Y173864D01*
X817764Y172530D01*
X820230Y170064D01*
X821564Y166843D01*
X821564Y163357D01*
X820230Y160136D01*
X817764Y157670D01*
X814543Y156336D01*
X811057Y156336D01*
G37*
%LPD*%
%LPC*%
G36*
X900081Y1141959D02*
X900081Y1141959D01*
X897089Y1143199D01*
X895120Y1145168D01*
X895041Y1145228D01*
X894969Y1145296D01*
X894916Y1145325D01*
X894868Y1145362D01*
X894778Y1145402D01*
X894691Y1145450D01*
X894632Y1145465D01*
X894577Y1145489D01*
X894479Y1145504D01*
X894383Y1145529D01*
X894283Y1145535D01*
X894263Y1145539D01*
X894250Y1145537D01*
X894222Y1145539D01*
X893938Y1145539D01*
X893840Y1145527D01*
X893741Y1145524D01*
X893683Y1145507D01*
X893623Y1145499D01*
X893531Y1145463D01*
X893436Y1145435D01*
X893383Y1145405D01*
X893327Y1145382D01*
X893247Y1145324D01*
X893162Y1145274D01*
X893086Y1145208D01*
X893070Y1145196D01*
X893062Y1145186D01*
X893041Y1145168D01*
X892294Y1144420D01*
X890157Y1143535D01*
X887843Y1143535D01*
X885706Y1144420D01*
X884070Y1146056D01*
X883185Y1148193D01*
X883185Y1150507D01*
X884070Y1152644D01*
X885706Y1154280D01*
X887843Y1155165D01*
X890157Y1155165D01*
X892294Y1154280D01*
X892595Y1153978D01*
X892635Y1153947D01*
X892668Y1153911D01*
X892760Y1153850D01*
X892847Y1153783D01*
X892892Y1153763D01*
X892934Y1153736D01*
X893038Y1153700D01*
X893138Y1153657D01*
X893188Y1153649D01*
X893235Y1153633D01*
X893344Y1153624D01*
X893452Y1153607D01*
X893502Y1153612D01*
X893552Y1153608D01*
X893659Y1153626D01*
X893769Y1153637D01*
X893816Y1153653D01*
X893865Y1153662D01*
X893965Y1153707D01*
X894068Y1153744D01*
X894110Y1153772D01*
X894155Y1153793D01*
X894241Y1153861D01*
X894332Y1153923D01*
X894364Y1153960D01*
X894403Y1153991D01*
X894469Y1154079D01*
X894542Y1154161D01*
X894565Y1154205D01*
X894595Y1154245D01*
X894665Y1154390D01*
X894799Y1154711D01*
X897089Y1157001D01*
X900081Y1158241D01*
X903319Y1158241D01*
X906311Y1157001D01*
X908601Y1154711D01*
X909841Y1151719D01*
X909841Y1148481D01*
X908601Y1145489D01*
X906311Y1143199D01*
X903319Y1141959D01*
X900081Y1141959D01*
G37*
%LPD*%
%LPC*%
G36*
X521320Y1184147D02*
X521320Y1184147D01*
X517772Y1185617D01*
X515057Y1188332D01*
X513587Y1191880D01*
X513587Y1195720D01*
X515057Y1199268D01*
X517772Y1201983D01*
X521320Y1203453D01*
X525160Y1203453D01*
X528708Y1201983D01*
X531423Y1199268D01*
X532893Y1195720D01*
X532893Y1191880D01*
X531423Y1188332D01*
X528708Y1185617D01*
X525160Y1184147D01*
X521320Y1184147D01*
G37*
%LPD*%
%LPC*%
G36*
X495920Y1184147D02*
X495920Y1184147D01*
X492372Y1185617D01*
X489657Y1188332D01*
X488187Y1191880D01*
X488187Y1195720D01*
X489657Y1199268D01*
X492372Y1201983D01*
X495920Y1203453D01*
X499760Y1203453D01*
X503308Y1201983D01*
X506023Y1199268D01*
X507493Y1195720D01*
X507493Y1191880D01*
X506023Y1188332D01*
X503308Y1185617D01*
X499760Y1184147D01*
X495920Y1184147D01*
G37*
%LPD*%
%LPC*%
G36*
X323262Y876979D02*
X323262Y876979D01*
X319756Y878432D01*
X317072Y881116D01*
X315619Y884622D01*
X315619Y888418D01*
X317072Y891924D01*
X319756Y894608D01*
X323262Y896061D01*
X327058Y896061D01*
X330564Y894608D01*
X333248Y891924D01*
X334701Y888418D01*
X334701Y884622D01*
X333248Y881116D01*
X330564Y878432D01*
X327058Y876979D01*
X323262Y876979D01*
G37*
%LPD*%
%LPC*%
G36*
X297862Y876979D02*
X297862Y876979D01*
X294356Y878432D01*
X291672Y881116D01*
X290219Y884622D01*
X290219Y888418D01*
X291672Y891924D01*
X294356Y894608D01*
X297862Y896061D01*
X301658Y896061D01*
X305164Y894608D01*
X307848Y891924D01*
X309301Y888418D01*
X309301Y884622D01*
X307848Y881116D01*
X305164Y878432D01*
X301658Y876979D01*
X297862Y876979D01*
G37*
%LPD*%
%LPC*%
G36*
X468402Y130159D02*
X468402Y130159D01*
X464896Y131612D01*
X462212Y134296D01*
X460759Y137802D01*
X460759Y141598D01*
X462212Y145104D01*
X464896Y147788D01*
X468402Y149241D01*
X472198Y149241D01*
X475704Y147788D01*
X478388Y145104D01*
X479841Y141598D01*
X479841Y137802D01*
X478388Y134296D01*
X475704Y131612D01*
X472198Y130159D01*
X468402Y130159D01*
G37*
%LPD*%
%LPC*%
G36*
X518402Y130159D02*
X518402Y130159D01*
X514896Y131612D01*
X512212Y134296D01*
X510759Y137802D01*
X510759Y141598D01*
X512212Y145104D01*
X514896Y147788D01*
X518402Y149241D01*
X522198Y149241D01*
X525704Y147788D01*
X528388Y145104D01*
X529841Y141598D01*
X529841Y137802D01*
X528388Y134296D01*
X525704Y131612D01*
X522198Y130159D01*
X518402Y130159D01*
G37*
%LPD*%
%LPC*%
G36*
X493402Y130159D02*
X493402Y130159D01*
X489896Y131612D01*
X487212Y134296D01*
X485759Y137802D01*
X485759Y141598D01*
X487212Y145104D01*
X489896Y147788D01*
X493402Y149241D01*
X497198Y149241D01*
X500704Y147788D01*
X503388Y145104D01*
X504841Y141598D01*
X504841Y137802D01*
X503388Y134296D01*
X500704Y131612D01*
X497198Y130159D01*
X493402Y130159D01*
G37*
%LPD*%
%LPC*%
G36*
X348662Y876979D02*
X348662Y876979D01*
X345156Y878432D01*
X342472Y881116D01*
X341019Y884622D01*
X341019Y888418D01*
X342472Y891924D01*
X345156Y894608D01*
X348662Y896061D01*
X352458Y896061D01*
X355964Y894608D01*
X358648Y891924D01*
X360101Y888418D01*
X360101Y884622D01*
X358648Y881116D01*
X355964Y878432D01*
X352458Y876979D01*
X348662Y876979D01*
G37*
%LPD*%
%LPC*%
G36*
X475662Y876979D02*
X475662Y876979D01*
X472156Y878432D01*
X469472Y881116D01*
X468019Y884622D01*
X468019Y888418D01*
X469472Y891924D01*
X472156Y894608D01*
X475662Y896061D01*
X479458Y896061D01*
X482964Y894608D01*
X485648Y891924D01*
X487101Y888418D01*
X487101Y884622D01*
X485648Y881116D01*
X482964Y878432D01*
X479458Y876979D01*
X475662Y876979D01*
G37*
%LPD*%
%LPC*%
G36*
X450262Y876979D02*
X450262Y876979D01*
X446756Y878432D01*
X444072Y881116D01*
X442619Y884622D01*
X442619Y888418D01*
X444072Y891924D01*
X446756Y894608D01*
X450262Y896061D01*
X454058Y896061D01*
X457564Y894608D01*
X460248Y891924D01*
X461701Y888418D01*
X461701Y884622D01*
X460248Y881116D01*
X457564Y878432D01*
X454058Y876979D01*
X450262Y876979D01*
G37*
%LPD*%
%LPC*%
G36*
X424862Y876979D02*
X424862Y876979D01*
X421356Y878432D01*
X418672Y881116D01*
X417219Y884622D01*
X417219Y888418D01*
X418672Y891924D01*
X421356Y894608D01*
X424862Y896061D01*
X428658Y896061D01*
X432164Y894608D01*
X434848Y891924D01*
X436301Y888418D01*
X436301Y884622D01*
X434848Y881116D01*
X432164Y878432D01*
X428658Y876979D01*
X424862Y876979D01*
G37*
%LPD*%
%LPC*%
G36*
X399462Y876979D02*
X399462Y876979D01*
X395956Y878432D01*
X393272Y881116D01*
X391819Y884622D01*
X391819Y888418D01*
X393272Y891924D01*
X395956Y894608D01*
X399462Y896061D01*
X403258Y896061D01*
X406764Y894608D01*
X409448Y891924D01*
X410901Y888418D01*
X410901Y884622D01*
X409448Y881116D01*
X406764Y878432D01*
X403258Y876979D01*
X399462Y876979D01*
G37*
%LPD*%
%LPC*%
G36*
X374062Y876979D02*
X374062Y876979D01*
X370556Y878432D01*
X367872Y881116D01*
X366419Y884622D01*
X366419Y888418D01*
X367872Y891924D01*
X370556Y894608D01*
X374062Y896061D01*
X377858Y896061D01*
X381364Y894608D01*
X384048Y891924D01*
X385501Y888418D01*
X385501Y884622D01*
X384048Y881116D01*
X381364Y878432D01*
X377858Y876979D01*
X374062Y876979D01*
G37*
%LPD*%
%LPC*%
G36*
X221662Y876979D02*
X221662Y876979D01*
X218156Y878432D01*
X215472Y881116D01*
X214019Y884622D01*
X214019Y888418D01*
X215472Y891924D01*
X218156Y894608D01*
X221662Y896061D01*
X225458Y896061D01*
X228964Y894608D01*
X231648Y891924D01*
X233101Y888418D01*
X233101Y884622D01*
X231648Y881116D01*
X228964Y878432D01*
X225458Y876979D01*
X221662Y876979D01*
G37*
%LPD*%
%LPC*%
G36*
X170862Y876979D02*
X170862Y876979D01*
X167356Y878432D01*
X164672Y881116D01*
X163219Y884622D01*
X163219Y888418D01*
X164672Y891924D01*
X167356Y894608D01*
X170862Y896061D01*
X174658Y896061D01*
X178164Y894608D01*
X180848Y891924D01*
X182301Y888418D01*
X182301Y884622D01*
X180848Y881116D01*
X178164Y878432D01*
X174658Y876979D01*
X170862Y876979D01*
G37*
%LPD*%
%LPC*%
G36*
X539957Y184536D02*
X539957Y184536D01*
X536736Y185870D01*
X534270Y188336D01*
X532936Y191557D01*
X532936Y195043D01*
X534270Y198264D01*
X536736Y200730D01*
X539957Y202064D01*
X543443Y202064D01*
X546664Y200730D01*
X549130Y198264D01*
X550464Y195043D01*
X550464Y191557D01*
X549130Y188336D01*
X546664Y185870D01*
X543443Y184536D01*
X539957Y184536D01*
G37*
%LPD*%
%LPC*%
G36*
X514557Y184536D02*
X514557Y184536D01*
X511336Y185870D01*
X508870Y188336D01*
X507536Y191557D01*
X507536Y195043D01*
X508870Y198264D01*
X511336Y200730D01*
X514557Y202064D01*
X518043Y202064D01*
X521264Y200730D01*
X523730Y198264D01*
X525064Y195043D01*
X525064Y191557D01*
X523730Y188336D01*
X521264Y185870D01*
X518043Y184536D01*
X514557Y184536D01*
G37*
%LPD*%
%LPC*%
G36*
X463757Y184536D02*
X463757Y184536D01*
X460536Y185870D01*
X458070Y188336D01*
X456736Y191557D01*
X456736Y195043D01*
X458070Y198264D01*
X460536Y200730D01*
X463757Y202064D01*
X467243Y202064D01*
X470464Y200730D01*
X472930Y198264D01*
X474264Y195043D01*
X474264Y191557D01*
X472930Y188336D01*
X470464Y185870D01*
X467243Y184536D01*
X463757Y184536D01*
G37*
%LPD*%
%LPC*%
G36*
X438357Y184536D02*
X438357Y184536D01*
X435136Y185870D01*
X432670Y188336D01*
X431336Y191557D01*
X431336Y195043D01*
X432670Y198264D01*
X435136Y200730D01*
X438357Y202064D01*
X441843Y202064D01*
X445064Y200730D01*
X447530Y198264D01*
X448864Y195043D01*
X448864Y191557D01*
X447530Y188336D01*
X445064Y185870D01*
X441843Y184536D01*
X438357Y184536D01*
G37*
%LPD*%
%LPC*%
G36*
X412957Y184536D02*
X412957Y184536D01*
X409736Y185870D01*
X407270Y188336D01*
X405936Y191557D01*
X405936Y195043D01*
X407270Y198264D01*
X409736Y200730D01*
X412957Y202064D01*
X416443Y202064D01*
X419664Y200730D01*
X422130Y198264D01*
X423464Y195043D01*
X423464Y191557D01*
X422130Y188336D01*
X419664Y185870D01*
X416443Y184536D01*
X412957Y184536D01*
G37*
%LPD*%
%LPC*%
G36*
X387557Y184536D02*
X387557Y184536D01*
X384336Y185870D01*
X381870Y188336D01*
X380536Y191557D01*
X380536Y195043D01*
X381870Y198264D01*
X384336Y200730D01*
X387557Y202064D01*
X391043Y202064D01*
X394264Y200730D01*
X396730Y198264D01*
X398064Y195043D01*
X398064Y191557D01*
X396730Y188336D01*
X394264Y185870D01*
X391043Y184536D01*
X387557Y184536D01*
G37*
%LPD*%
%LPC*%
G36*
X362157Y184536D02*
X362157Y184536D01*
X358936Y185870D01*
X356470Y188336D01*
X355136Y191557D01*
X355136Y195043D01*
X356470Y198264D01*
X358936Y200730D01*
X362157Y202064D01*
X365643Y202064D01*
X368864Y200730D01*
X371330Y198264D01*
X372664Y195043D01*
X372664Y191557D01*
X371330Y188336D01*
X368864Y185870D01*
X365643Y184536D01*
X362157Y184536D01*
G37*
%LPD*%
%LPC*%
G36*
X336757Y184536D02*
X336757Y184536D01*
X333536Y185870D01*
X331070Y188336D01*
X329736Y191557D01*
X329736Y195043D01*
X331070Y198264D01*
X333536Y200730D01*
X336757Y202064D01*
X340243Y202064D01*
X343464Y200730D01*
X345930Y198264D01*
X347264Y195043D01*
X347264Y191557D01*
X345930Y188336D01*
X343464Y185870D01*
X340243Y184536D01*
X336757Y184536D01*
G37*
%LPD*%
%LPC*%
G36*
X311357Y184536D02*
X311357Y184536D01*
X308136Y185870D01*
X305670Y188336D01*
X304336Y191557D01*
X304336Y195043D01*
X305670Y198264D01*
X308136Y200730D01*
X311357Y202064D01*
X314843Y202064D01*
X318064Y200730D01*
X320530Y198264D01*
X321864Y195043D01*
X321864Y191557D01*
X320530Y188336D01*
X318064Y185870D01*
X314843Y184536D01*
X311357Y184536D01*
G37*
%LPD*%
%LPC*%
G36*
X874557Y181736D02*
X874557Y181736D01*
X871336Y183070D01*
X868870Y185536D01*
X867536Y188757D01*
X867536Y192243D01*
X868870Y195464D01*
X871336Y197930D01*
X874557Y199264D01*
X878043Y199264D01*
X881264Y197930D01*
X883730Y195464D01*
X885064Y192243D01*
X885064Y188757D01*
X883730Y185536D01*
X881264Y183070D01*
X878043Y181736D01*
X874557Y181736D01*
G37*
%LPD*%
%LPC*%
G36*
X811057Y181736D02*
X811057Y181736D01*
X807836Y183070D01*
X805370Y185536D01*
X804036Y188757D01*
X804036Y192243D01*
X805370Y195464D01*
X807836Y197930D01*
X811057Y199264D01*
X814543Y199264D01*
X817764Y197930D01*
X820230Y195464D01*
X821564Y192243D01*
X821564Y188757D01*
X820230Y185536D01*
X817764Y183070D01*
X814543Y181736D01*
X811057Y181736D01*
G37*
%LPD*%
%LPC*%
G36*
X514557Y438536D02*
X514557Y438536D01*
X511336Y439870D01*
X508870Y442336D01*
X507536Y445557D01*
X507536Y449043D01*
X508870Y452264D01*
X511336Y454730D01*
X514557Y456064D01*
X518043Y456064D01*
X521264Y454730D01*
X523730Y452264D01*
X525064Y449043D01*
X525064Y445557D01*
X523730Y442336D01*
X521264Y439870D01*
X518043Y438536D01*
X514557Y438536D01*
G37*
%LPD*%
%LPC*%
G36*
X489157Y184536D02*
X489157Y184536D01*
X485936Y185870D01*
X483470Y188336D01*
X482136Y191557D01*
X482136Y195043D01*
X483470Y198264D01*
X485936Y200730D01*
X489157Y202064D01*
X492643Y202064D01*
X495864Y200730D01*
X498330Y198264D01*
X499664Y195043D01*
X499664Y191557D01*
X498330Y188336D01*
X495864Y185870D01*
X492643Y184536D01*
X489157Y184536D01*
G37*
%LPD*%
%LPC*%
G36*
X590757Y438536D02*
X590757Y438536D01*
X587536Y439870D01*
X585070Y442336D01*
X583736Y445557D01*
X583736Y449043D01*
X585070Y452264D01*
X587536Y454730D01*
X590757Y456064D01*
X594243Y456064D01*
X597464Y454730D01*
X599930Y452264D01*
X601264Y449043D01*
X601264Y445557D01*
X599930Y442336D01*
X597464Y439870D01*
X594243Y438536D01*
X590757Y438536D01*
G37*
%LPD*%
%LPC*%
G36*
X616157Y438536D02*
X616157Y438536D01*
X612936Y439870D01*
X610470Y442336D01*
X609136Y445557D01*
X609136Y449043D01*
X610470Y452264D01*
X612936Y454730D01*
X616157Y456064D01*
X619643Y456064D01*
X622864Y454730D01*
X625330Y452264D01*
X626664Y449043D01*
X626664Y445557D01*
X625330Y442336D01*
X622864Y439870D01*
X619643Y438536D01*
X616157Y438536D01*
G37*
%LPD*%
%LPC*%
G36*
X387557Y463936D02*
X387557Y463936D01*
X384336Y465270D01*
X381870Y467736D01*
X380536Y470957D01*
X380536Y474443D01*
X381870Y477664D01*
X384336Y480130D01*
X387557Y481464D01*
X391043Y481464D01*
X394264Y480130D01*
X396730Y477664D01*
X398064Y474443D01*
X398064Y470957D01*
X396730Y467736D01*
X394264Y465270D01*
X391043Y463936D01*
X387557Y463936D01*
G37*
%LPD*%
%LPC*%
G36*
X641557Y463936D02*
X641557Y463936D01*
X638336Y465270D01*
X635870Y467736D01*
X634536Y470957D01*
X634536Y474443D01*
X635870Y477664D01*
X638336Y480130D01*
X641557Y481464D01*
X645043Y481464D01*
X648264Y480130D01*
X650730Y477664D01*
X652064Y474443D01*
X652064Y470957D01*
X650730Y467736D01*
X648264Y465270D01*
X645043Y463936D01*
X641557Y463936D01*
G37*
%LPD*%
%LPC*%
G36*
X463757Y463936D02*
X463757Y463936D01*
X460536Y465270D01*
X458070Y467736D01*
X456736Y470957D01*
X456736Y474443D01*
X458070Y477664D01*
X460536Y480130D01*
X463757Y481464D01*
X467243Y481464D01*
X470464Y480130D01*
X472930Y477664D01*
X474264Y474443D01*
X474264Y470957D01*
X472930Y467736D01*
X470464Y465270D01*
X467243Y463936D01*
X463757Y463936D01*
G37*
%LPD*%
%LPC*%
G36*
X311357Y463936D02*
X311357Y463936D01*
X308136Y465270D01*
X305670Y467736D01*
X304336Y470957D01*
X304336Y474443D01*
X305670Y477664D01*
X308136Y480130D01*
X311357Y481464D01*
X314843Y481464D01*
X318064Y480130D01*
X320530Y477664D01*
X321864Y474443D01*
X321864Y470957D01*
X320530Y467736D01*
X318064Y465270D01*
X314843Y463936D01*
X311357Y463936D01*
G37*
%LPD*%
%LPC*%
G36*
X285957Y463936D02*
X285957Y463936D01*
X282736Y465270D01*
X280270Y467736D01*
X278936Y470957D01*
X278936Y474443D01*
X280270Y477664D01*
X282736Y480130D01*
X285957Y481464D01*
X289443Y481464D01*
X292664Y480130D01*
X295130Y477664D01*
X296464Y474443D01*
X296464Y470957D01*
X295130Y467736D01*
X292664Y465270D01*
X289443Y463936D01*
X285957Y463936D01*
G37*
%LPD*%
%LPC*%
G36*
X692357Y463936D02*
X692357Y463936D01*
X689136Y465270D01*
X686670Y467736D01*
X685336Y470957D01*
X685336Y474443D01*
X686670Y477664D01*
X689136Y480130D01*
X692357Y481464D01*
X695843Y481464D01*
X699064Y480130D01*
X701530Y477664D01*
X702864Y474443D01*
X702864Y470957D01*
X701530Y467736D01*
X699064Y465270D01*
X695843Y463936D01*
X692357Y463936D01*
G37*
%LPD*%
%LPC*%
G36*
X666957Y463936D02*
X666957Y463936D01*
X663736Y465270D01*
X661270Y467736D01*
X659936Y470957D01*
X659936Y474443D01*
X661270Y477664D01*
X663736Y480130D01*
X666957Y481464D01*
X670443Y481464D01*
X673664Y480130D01*
X676130Y477664D01*
X677464Y474443D01*
X677464Y470957D01*
X676130Y467736D01*
X673664Y465270D01*
X670443Y463936D01*
X666957Y463936D01*
G37*
%LPD*%
%LPC*%
G36*
X616157Y463936D02*
X616157Y463936D01*
X612936Y465270D01*
X610470Y467736D01*
X609136Y470957D01*
X609136Y474443D01*
X610470Y477664D01*
X612936Y480130D01*
X616157Y481464D01*
X619643Y481464D01*
X622864Y480130D01*
X625330Y477664D01*
X626664Y474443D01*
X626664Y470957D01*
X625330Y467736D01*
X622864Y465270D01*
X619643Y463936D01*
X616157Y463936D01*
G37*
%LPD*%
%LPC*%
G36*
X362157Y463936D02*
X362157Y463936D01*
X358936Y465270D01*
X356470Y467736D01*
X355136Y470957D01*
X355136Y474443D01*
X356470Y477664D01*
X358936Y480130D01*
X362157Y481464D01*
X365643Y481464D01*
X368864Y480130D01*
X371330Y477664D01*
X372664Y474443D01*
X372664Y470957D01*
X371330Y467736D01*
X368864Y465270D01*
X365643Y463936D01*
X362157Y463936D01*
G37*
%LPD*%
%LPC*%
G36*
X336757Y463936D02*
X336757Y463936D01*
X333536Y465270D01*
X331070Y467736D01*
X329736Y470957D01*
X329736Y474443D01*
X331070Y477664D01*
X333536Y480130D01*
X336757Y481464D01*
X340243Y481464D01*
X343464Y480130D01*
X345930Y477664D01*
X347264Y474443D01*
X347264Y470957D01*
X345930Y467736D01*
X343464Y465270D01*
X340243Y463936D01*
X336757Y463936D01*
G37*
%LPD*%
%LPC*%
G36*
X260557Y463936D02*
X260557Y463936D01*
X257336Y465270D01*
X254870Y467736D01*
X253536Y470957D01*
X253536Y474443D01*
X254870Y477664D01*
X257336Y480130D01*
X260557Y481464D01*
X264043Y481464D01*
X267264Y480130D01*
X269730Y477664D01*
X271064Y474443D01*
X271064Y470957D01*
X269730Y467736D01*
X267264Y465270D01*
X264043Y463936D01*
X260557Y463936D01*
G37*
%LPD*%
%LPC*%
G36*
X590757Y463936D02*
X590757Y463936D01*
X587536Y465270D01*
X585070Y467736D01*
X583736Y470957D01*
X583736Y474443D01*
X585070Y477664D01*
X587536Y480130D01*
X590757Y481464D01*
X594243Y481464D01*
X597464Y480130D01*
X599930Y477664D01*
X601264Y474443D01*
X601264Y470957D01*
X599930Y467736D01*
X597464Y465270D01*
X594243Y463936D01*
X590757Y463936D01*
G37*
%LPD*%
%LPC*%
G36*
X565357Y463936D02*
X565357Y463936D01*
X562136Y465270D01*
X559670Y467736D01*
X558336Y470957D01*
X558336Y474443D01*
X559670Y477664D01*
X562136Y480130D01*
X565357Y481464D01*
X568843Y481464D01*
X572064Y480130D01*
X574530Y477664D01*
X575864Y474443D01*
X575864Y470957D01*
X574530Y467736D01*
X572064Y465270D01*
X568843Y463936D01*
X565357Y463936D01*
G37*
%LPD*%
%LPC*%
G36*
X539957Y463936D02*
X539957Y463936D01*
X536736Y465270D01*
X534270Y467736D01*
X532936Y470957D01*
X532936Y474443D01*
X534270Y477664D01*
X536736Y480130D01*
X539957Y481464D01*
X543443Y481464D01*
X546664Y480130D01*
X549130Y477664D01*
X550464Y474443D01*
X550464Y470957D01*
X549130Y467736D01*
X546664Y465270D01*
X543443Y463936D01*
X539957Y463936D01*
G37*
%LPD*%
%LPC*%
G36*
X514557Y463936D02*
X514557Y463936D01*
X511336Y465270D01*
X508870Y467736D01*
X507536Y470957D01*
X507536Y474443D01*
X508870Y477664D01*
X511336Y480130D01*
X514557Y481464D01*
X518043Y481464D01*
X521264Y480130D01*
X523730Y477664D01*
X525064Y474443D01*
X525064Y470957D01*
X523730Y467736D01*
X521264Y465270D01*
X518043Y463936D01*
X514557Y463936D01*
G37*
%LPD*%
%LPC*%
G36*
X489157Y463936D02*
X489157Y463936D01*
X485936Y465270D01*
X483470Y467736D01*
X482136Y470957D01*
X482136Y474443D01*
X483470Y477664D01*
X485936Y480130D01*
X489157Y481464D01*
X492643Y481464D01*
X495864Y480130D01*
X498330Y477664D01*
X499664Y474443D01*
X499664Y470957D01*
X498330Y467736D01*
X495864Y465270D01*
X492643Y463936D01*
X489157Y463936D01*
G37*
%LPD*%
%LPC*%
G36*
X489157Y438536D02*
X489157Y438536D01*
X485936Y439870D01*
X483470Y442336D01*
X482136Y445557D01*
X482136Y449043D01*
X483470Y452264D01*
X485936Y454730D01*
X489157Y456064D01*
X492643Y456064D01*
X495864Y454730D01*
X498330Y452264D01*
X499664Y449043D01*
X499664Y445557D01*
X498330Y442336D01*
X495864Y439870D01*
X492643Y438536D01*
X489157Y438536D01*
G37*
%LPD*%
%LPC*%
G36*
X463757Y438536D02*
X463757Y438536D01*
X460536Y439870D01*
X458070Y442336D01*
X456736Y445557D01*
X456736Y449043D01*
X458070Y452264D01*
X460536Y454730D01*
X463757Y456064D01*
X467243Y456064D01*
X470464Y454730D01*
X472930Y452264D01*
X474264Y449043D01*
X474264Y445557D01*
X472930Y442336D01*
X470464Y439870D01*
X467243Y438536D01*
X463757Y438536D01*
G37*
%LPD*%
%LPC*%
G36*
X362157Y438536D02*
X362157Y438536D01*
X358936Y439870D01*
X356470Y442336D01*
X355136Y445557D01*
X355136Y449043D01*
X356470Y452264D01*
X358936Y454730D01*
X362157Y456064D01*
X365643Y456064D01*
X368864Y454730D01*
X371330Y452264D01*
X372664Y449043D01*
X372664Y445557D01*
X371330Y442336D01*
X368864Y439870D01*
X365643Y438536D01*
X362157Y438536D01*
G37*
%LPD*%
%LPC*%
G36*
X666957Y438536D02*
X666957Y438536D01*
X663736Y439870D01*
X661270Y442336D01*
X659936Y445557D01*
X659936Y449043D01*
X661270Y452264D01*
X663736Y454730D01*
X666957Y456064D01*
X670443Y456064D01*
X673664Y454730D01*
X676130Y452264D01*
X677464Y449043D01*
X677464Y445557D01*
X676130Y442336D01*
X673664Y439870D01*
X670443Y438536D01*
X666957Y438536D01*
G37*
%LPD*%
%LPC*%
G36*
X336757Y438536D02*
X336757Y438536D01*
X333536Y439870D01*
X331070Y442336D01*
X329736Y445557D01*
X329736Y449043D01*
X331070Y452264D01*
X333536Y454730D01*
X336757Y456064D01*
X340243Y456064D01*
X343464Y454730D01*
X345930Y452264D01*
X347264Y449043D01*
X347264Y445557D01*
X345930Y442336D01*
X343464Y439870D01*
X340243Y438536D01*
X336757Y438536D01*
G37*
%LPD*%
%LPC*%
G36*
X311357Y438536D02*
X311357Y438536D01*
X308136Y439870D01*
X305670Y442336D01*
X304336Y445557D01*
X304336Y449043D01*
X305670Y452264D01*
X308136Y454730D01*
X311357Y456064D01*
X314843Y456064D01*
X318064Y454730D01*
X320530Y452264D01*
X321864Y449043D01*
X321864Y445557D01*
X320530Y442336D01*
X318064Y439870D01*
X314843Y438536D01*
X311357Y438536D01*
G37*
%LPD*%
%LPC*%
G36*
X285957Y438536D02*
X285957Y438536D01*
X282736Y439870D01*
X280270Y442336D01*
X278936Y445557D01*
X278936Y449043D01*
X280270Y452264D01*
X282736Y454730D01*
X285957Y456064D01*
X289443Y456064D01*
X292664Y454730D01*
X295130Y452264D01*
X296464Y449043D01*
X296464Y445557D01*
X295130Y442336D01*
X292664Y439870D01*
X289443Y438536D01*
X285957Y438536D01*
G37*
%LPD*%
%LPC*%
G36*
X641557Y438536D02*
X641557Y438536D01*
X638336Y439870D01*
X635870Y442336D01*
X634536Y445557D01*
X634536Y449043D01*
X635870Y452264D01*
X638336Y454730D01*
X641557Y456064D01*
X645043Y456064D01*
X648264Y454730D01*
X650730Y452264D01*
X652064Y449043D01*
X652064Y445557D01*
X650730Y442336D01*
X648264Y439870D01*
X645043Y438536D01*
X641557Y438536D01*
G37*
%LPD*%
%LPC*%
G36*
X260557Y438536D02*
X260557Y438536D01*
X257336Y439870D01*
X254870Y442336D01*
X253536Y445557D01*
X253536Y449043D01*
X254870Y452264D01*
X257336Y454730D01*
X260557Y456064D01*
X264043Y456064D01*
X267264Y454730D01*
X269730Y452264D01*
X271064Y449043D01*
X271064Y445557D01*
X269730Y442336D01*
X267264Y439870D01*
X264043Y438536D01*
X260557Y438536D01*
G37*
%LPD*%
%LPC*%
G36*
X692357Y438536D02*
X692357Y438536D01*
X689136Y439870D01*
X686670Y442336D01*
X685336Y445557D01*
X685336Y449043D01*
X686670Y452264D01*
X689136Y454730D01*
X692357Y456064D01*
X695843Y456064D01*
X699064Y454730D01*
X701530Y452264D01*
X702864Y449043D01*
X702864Y445557D01*
X701530Y442336D01*
X699064Y439870D01*
X695843Y438536D01*
X692357Y438536D01*
G37*
%LPD*%
%LPC*%
G36*
X641557Y184536D02*
X641557Y184536D01*
X638336Y185870D01*
X635870Y188336D01*
X634536Y191557D01*
X634536Y195043D01*
X635870Y198264D01*
X638336Y200730D01*
X641557Y202064D01*
X645043Y202064D01*
X648264Y200730D01*
X650730Y198264D01*
X652064Y195043D01*
X652064Y191557D01*
X650730Y188336D01*
X648264Y185870D01*
X645043Y184536D01*
X641557Y184536D01*
G37*
%LPD*%
%LPC*%
G36*
X260557Y209936D02*
X260557Y209936D01*
X257336Y211270D01*
X254870Y213736D01*
X253536Y216957D01*
X253536Y220443D01*
X254870Y223664D01*
X257336Y226130D01*
X260557Y227464D01*
X264043Y227464D01*
X267264Y226130D01*
X269730Y223664D01*
X271064Y220443D01*
X271064Y216957D01*
X269730Y213736D01*
X267264Y211270D01*
X264043Y209936D01*
X260557Y209936D01*
G37*
%LPD*%
%LPC*%
G36*
X692357Y209936D02*
X692357Y209936D01*
X689136Y211270D01*
X686670Y213736D01*
X685336Y216957D01*
X685336Y220443D01*
X686670Y223664D01*
X689136Y226130D01*
X692357Y227464D01*
X695843Y227464D01*
X699064Y226130D01*
X701530Y223664D01*
X702864Y220443D01*
X702864Y216957D01*
X701530Y213736D01*
X699064Y211270D01*
X695843Y209936D01*
X692357Y209936D01*
G37*
%LPD*%
%LPC*%
G36*
X666957Y209936D02*
X666957Y209936D01*
X663736Y211270D01*
X661270Y213736D01*
X659936Y216957D01*
X659936Y220443D01*
X661270Y223664D01*
X663736Y226130D01*
X666957Y227464D01*
X670443Y227464D01*
X673664Y226130D01*
X676130Y223664D01*
X677464Y220443D01*
X677464Y216957D01*
X676130Y213736D01*
X673664Y211270D01*
X670443Y209936D01*
X666957Y209936D01*
G37*
%LPD*%
%LPC*%
G36*
X641557Y209936D02*
X641557Y209936D01*
X638336Y211270D01*
X635870Y213736D01*
X634536Y216957D01*
X634536Y220443D01*
X635870Y223664D01*
X638336Y226130D01*
X641557Y227464D01*
X645043Y227464D01*
X648264Y226130D01*
X650730Y223664D01*
X652064Y220443D01*
X652064Y216957D01*
X650730Y213736D01*
X648264Y211270D01*
X645043Y209936D01*
X641557Y209936D01*
G37*
%LPD*%
%LPC*%
G36*
X616157Y209936D02*
X616157Y209936D01*
X612936Y211270D01*
X610470Y213736D01*
X609136Y216957D01*
X609136Y220443D01*
X610470Y223664D01*
X612936Y226130D01*
X616157Y227464D01*
X619643Y227464D01*
X622864Y226130D01*
X625330Y223664D01*
X626664Y220443D01*
X626664Y216957D01*
X625330Y213736D01*
X622864Y211270D01*
X619643Y209936D01*
X616157Y209936D01*
G37*
%LPD*%
%LPC*%
G36*
X590757Y209936D02*
X590757Y209936D01*
X587536Y211270D01*
X585070Y213736D01*
X583736Y216957D01*
X583736Y220443D01*
X585070Y223664D01*
X587536Y226130D01*
X590757Y227464D01*
X594243Y227464D01*
X597464Y226130D01*
X599930Y223664D01*
X601264Y220443D01*
X601264Y216957D01*
X599930Y213736D01*
X597464Y211270D01*
X594243Y209936D01*
X590757Y209936D01*
G37*
%LPD*%
%LPC*%
G36*
X565357Y209936D02*
X565357Y209936D01*
X562136Y211270D01*
X559670Y213736D01*
X558336Y216957D01*
X558336Y220443D01*
X559670Y223664D01*
X562136Y226130D01*
X565357Y227464D01*
X568843Y227464D01*
X572064Y226130D01*
X574530Y223664D01*
X575864Y220443D01*
X575864Y216957D01*
X574530Y213736D01*
X572064Y211270D01*
X568843Y209936D01*
X565357Y209936D01*
G37*
%LPD*%
%LPC*%
G36*
X539957Y209936D02*
X539957Y209936D01*
X536736Y211270D01*
X534270Y213736D01*
X532936Y216957D01*
X532936Y220443D01*
X534270Y223664D01*
X536736Y226130D01*
X539957Y227464D01*
X543443Y227464D01*
X546664Y226130D01*
X549130Y223664D01*
X550464Y220443D01*
X550464Y216957D01*
X549130Y213736D01*
X546664Y211270D01*
X543443Y209936D01*
X539957Y209936D01*
G37*
%LPD*%
%LPC*%
G36*
X514557Y209936D02*
X514557Y209936D01*
X511336Y211270D01*
X508870Y213736D01*
X507536Y216957D01*
X507536Y220443D01*
X508870Y223664D01*
X511336Y226130D01*
X514557Y227464D01*
X518043Y227464D01*
X521264Y226130D01*
X523730Y223664D01*
X525064Y220443D01*
X525064Y216957D01*
X523730Y213736D01*
X521264Y211270D01*
X518043Y209936D01*
X514557Y209936D01*
G37*
%LPD*%
%LPC*%
G36*
X489157Y209936D02*
X489157Y209936D01*
X485936Y211270D01*
X483470Y213736D01*
X482136Y216957D01*
X482136Y220443D01*
X483470Y223664D01*
X485936Y226130D01*
X489157Y227464D01*
X492643Y227464D01*
X495864Y226130D01*
X498330Y223664D01*
X499664Y220443D01*
X499664Y216957D01*
X498330Y213736D01*
X495864Y211270D01*
X492643Y209936D01*
X489157Y209936D01*
G37*
%LPD*%
%LPC*%
G36*
X463757Y209936D02*
X463757Y209936D01*
X460536Y211270D01*
X458070Y213736D01*
X456736Y216957D01*
X456736Y220443D01*
X458070Y223664D01*
X460536Y226130D01*
X463757Y227464D01*
X467243Y227464D01*
X470464Y226130D01*
X472930Y223664D01*
X474264Y220443D01*
X474264Y216957D01*
X472930Y213736D01*
X470464Y211270D01*
X467243Y209936D01*
X463757Y209936D01*
G37*
%LPD*%
%LPC*%
G36*
X438357Y209936D02*
X438357Y209936D01*
X435136Y211270D01*
X432670Y213736D01*
X431336Y216957D01*
X431336Y220443D01*
X432670Y223664D01*
X435136Y226130D01*
X438357Y227464D01*
X441843Y227464D01*
X445064Y226130D01*
X447530Y223664D01*
X448864Y220443D01*
X448864Y216957D01*
X447530Y213736D01*
X445064Y211270D01*
X441843Y209936D01*
X438357Y209936D01*
G37*
%LPD*%
%LPC*%
G36*
X387557Y209936D02*
X387557Y209936D01*
X384336Y211270D01*
X381870Y213736D01*
X380536Y216957D01*
X380536Y220443D01*
X381870Y223664D01*
X384336Y226130D01*
X387557Y227464D01*
X391043Y227464D01*
X394264Y226130D01*
X396730Y223664D01*
X398064Y220443D01*
X398064Y216957D01*
X396730Y213736D01*
X394264Y211270D01*
X391043Y209936D01*
X387557Y209936D01*
G37*
%LPD*%
%LPC*%
G36*
X362157Y209936D02*
X362157Y209936D01*
X358936Y211270D01*
X356470Y213736D01*
X355136Y216957D01*
X355136Y220443D01*
X356470Y223664D01*
X358936Y226130D01*
X362157Y227464D01*
X365643Y227464D01*
X368864Y226130D01*
X371330Y223664D01*
X372664Y220443D01*
X372664Y216957D01*
X371330Y213736D01*
X368864Y211270D01*
X365643Y209936D01*
X362157Y209936D01*
G37*
%LPD*%
%LPC*%
G36*
X336757Y209936D02*
X336757Y209936D01*
X333536Y211270D01*
X331070Y213736D01*
X329736Y216957D01*
X329736Y220443D01*
X331070Y223664D01*
X333536Y226130D01*
X336757Y227464D01*
X340243Y227464D01*
X343464Y226130D01*
X345930Y223664D01*
X347264Y220443D01*
X347264Y216957D01*
X345930Y213736D01*
X343464Y211270D01*
X340243Y209936D01*
X336757Y209936D01*
G37*
%LPD*%
%LPC*%
G36*
X311357Y209936D02*
X311357Y209936D01*
X308136Y211270D01*
X305670Y213736D01*
X304336Y216957D01*
X304336Y220443D01*
X305670Y223664D01*
X308136Y226130D01*
X311357Y227464D01*
X314843Y227464D01*
X318064Y226130D01*
X320530Y223664D01*
X321864Y220443D01*
X321864Y216957D01*
X320530Y213736D01*
X318064Y211270D01*
X314843Y209936D01*
X311357Y209936D01*
G37*
%LPD*%
%LPC*%
G36*
X285957Y209936D02*
X285957Y209936D01*
X282736Y211270D01*
X280270Y213736D01*
X278936Y216957D01*
X278936Y220443D01*
X280270Y223664D01*
X282736Y226130D01*
X285957Y227464D01*
X289443Y227464D01*
X292664Y226130D01*
X295130Y223664D01*
X296464Y220443D01*
X296464Y216957D01*
X295130Y213736D01*
X292664Y211270D01*
X289443Y209936D01*
X285957Y209936D01*
G37*
%LPD*%
%LPC*%
G36*
X285957Y184536D02*
X285957Y184536D01*
X282736Y185870D01*
X280270Y188336D01*
X278936Y191557D01*
X278936Y195043D01*
X280270Y198264D01*
X282736Y200730D01*
X285957Y202064D01*
X289443Y202064D01*
X292664Y200730D01*
X295130Y198264D01*
X296464Y195043D01*
X296464Y191557D01*
X295130Y188336D01*
X292664Y185870D01*
X289443Y184536D01*
X285957Y184536D01*
G37*
%LPD*%
%LPC*%
G36*
X260557Y184536D02*
X260557Y184536D01*
X257336Y185870D01*
X254870Y188336D01*
X253536Y191557D01*
X253536Y195043D01*
X254870Y198264D01*
X257336Y200730D01*
X260557Y202064D01*
X264043Y202064D01*
X267264Y200730D01*
X269730Y198264D01*
X271064Y195043D01*
X271064Y191557D01*
X269730Y188336D01*
X267264Y185870D01*
X264043Y184536D01*
X260557Y184536D01*
G37*
%LPD*%
%LPC*%
G36*
X692357Y184536D02*
X692357Y184536D01*
X689136Y185870D01*
X686670Y188336D01*
X685336Y191557D01*
X685336Y195043D01*
X686670Y198264D01*
X689136Y200730D01*
X692357Y202064D01*
X695843Y202064D01*
X699064Y200730D01*
X701530Y198264D01*
X702864Y195043D01*
X702864Y191557D01*
X701530Y188336D01*
X699064Y185870D01*
X695843Y184536D01*
X692357Y184536D01*
G37*
%LPD*%
%LPC*%
G36*
X666957Y184536D02*
X666957Y184536D01*
X663736Y185870D01*
X661270Y188336D01*
X659936Y191557D01*
X659936Y195043D01*
X661270Y198264D01*
X663736Y200730D01*
X666957Y202064D01*
X670443Y202064D01*
X673664Y200730D01*
X676130Y198264D01*
X677464Y195043D01*
X677464Y191557D01*
X676130Y188336D01*
X673664Y185870D01*
X670443Y184536D01*
X666957Y184536D01*
G37*
%LPD*%
%LPC*%
G36*
X565357Y438536D02*
X565357Y438536D01*
X562136Y439870D01*
X559670Y442336D01*
X558336Y445557D01*
X558336Y449043D01*
X559670Y452264D01*
X562136Y454730D01*
X565357Y456064D01*
X568843Y456064D01*
X572064Y454730D01*
X574530Y452264D01*
X575864Y449043D01*
X575864Y445557D01*
X574530Y442336D01*
X572064Y439870D01*
X568843Y438536D01*
X565357Y438536D01*
G37*
%LPD*%
%LPC*%
G36*
X616157Y184536D02*
X616157Y184536D01*
X612936Y185870D01*
X610470Y188336D01*
X609136Y191557D01*
X609136Y195043D01*
X610470Y198264D01*
X612936Y200730D01*
X616157Y202064D01*
X619643Y202064D01*
X622864Y200730D01*
X625330Y198264D01*
X626664Y195043D01*
X626664Y191557D01*
X625330Y188336D01*
X622864Y185870D01*
X619643Y184536D01*
X616157Y184536D01*
G37*
%LPD*%
%LPC*%
G36*
X590757Y184536D02*
X590757Y184536D01*
X587536Y185870D01*
X585070Y188336D01*
X583736Y191557D01*
X583736Y195043D01*
X585070Y198264D01*
X587536Y200730D01*
X590757Y202064D01*
X594243Y202064D01*
X597464Y200730D01*
X599930Y198264D01*
X601264Y195043D01*
X601264Y191557D01*
X599930Y188336D01*
X597464Y185870D01*
X594243Y184536D01*
X590757Y184536D01*
G37*
%LPD*%
%LPC*%
G36*
X565357Y184536D02*
X565357Y184536D01*
X562136Y185870D01*
X559670Y188336D01*
X558336Y191557D01*
X558336Y195043D01*
X559670Y198264D01*
X562136Y200730D01*
X565357Y202064D01*
X568843Y202064D01*
X572064Y200730D01*
X574530Y198264D01*
X575864Y195043D01*
X575864Y191557D01*
X574530Y188336D01*
X572064Y185870D01*
X568843Y184536D01*
X565357Y184536D01*
G37*
%LPD*%
%LPC*%
G36*
X900081Y1076959D02*
X900081Y1076959D01*
X897089Y1078199D01*
X894799Y1080489D01*
X893559Y1083481D01*
X893559Y1086719D01*
X894799Y1089711D01*
X897089Y1092001D01*
X900081Y1093241D01*
X903319Y1093241D01*
X906311Y1092001D01*
X908601Y1089711D01*
X909841Y1086719D01*
X909841Y1083481D01*
X908601Y1080489D01*
X906311Y1078199D01*
X903319Y1076959D01*
X900081Y1076959D01*
G37*
%LPD*%
%LPC*%
G36*
X157593Y838735D02*
X157593Y838735D01*
X155456Y839620D01*
X153820Y841256D01*
X152935Y843393D01*
X152935Y845707D01*
X153820Y847844D01*
X155456Y849480D01*
X157593Y850365D01*
X159907Y850365D01*
X162044Y849480D01*
X163680Y847844D01*
X164565Y845707D01*
X164565Y843393D01*
X163680Y841256D01*
X162044Y839620D01*
X159907Y838735D01*
X157593Y838735D01*
G37*
%LPD*%
%LPC*%
G36*
X62343Y692685D02*
X62343Y692685D01*
X60206Y693570D01*
X58570Y695206D01*
X57685Y697343D01*
X57685Y699657D01*
X58570Y701794D01*
X60206Y703430D01*
X62343Y704315D01*
X64657Y704315D01*
X66794Y703430D01*
X68430Y701794D01*
X69315Y699657D01*
X69315Y697343D01*
X68430Y695206D01*
X66794Y693570D01*
X64657Y692685D01*
X62343Y692685D01*
G37*
%LPD*%
%LPC*%
G36*
X856093Y184685D02*
X856093Y184685D01*
X853956Y185570D01*
X852320Y187206D01*
X851435Y189343D01*
X851435Y191657D01*
X852320Y193794D01*
X853956Y195430D01*
X856093Y196315D01*
X858407Y196315D01*
X860544Y195430D01*
X862180Y193794D01*
X863065Y191657D01*
X863065Y189343D01*
X862180Y187206D01*
X860544Y185570D01*
X858407Y184685D01*
X856093Y184685D01*
G37*
%LPD*%
%LPC*%
G36*
X448563Y1195323D02*
X448563Y1195323D01*
X448563Y1203332D01*
X449300Y1203215D01*
X450745Y1202746D01*
X452099Y1202056D01*
X453328Y1201163D01*
X454403Y1200088D01*
X455296Y1198859D01*
X455986Y1197505D01*
X456455Y1196060D01*
X456572Y1195323D01*
X448563Y1195323D01*
G37*
%LPD*%
%LPC*%
G36*
X448563Y1192277D02*
X448563Y1192277D01*
X456572Y1192277D01*
X456455Y1191540D01*
X455986Y1190095D01*
X455296Y1188741D01*
X454403Y1187512D01*
X453328Y1186437D01*
X452099Y1185544D01*
X450745Y1184854D01*
X449300Y1184385D01*
X448563Y1184268D01*
X448563Y1192277D01*
G37*
%LPD*%
%LPC*%
G36*
X437508Y1195323D02*
X437508Y1195323D01*
X437625Y1196060D01*
X438094Y1197505D01*
X438784Y1198859D01*
X439677Y1200088D01*
X440752Y1201163D01*
X441981Y1202056D01*
X443335Y1202746D01*
X444780Y1203215D01*
X445517Y1203332D01*
X445517Y1195323D01*
X437508Y1195323D01*
G37*
%LPD*%
%LPC*%
G36*
X444780Y1184385D02*
X444780Y1184385D01*
X443335Y1184854D01*
X441981Y1185544D01*
X440752Y1186437D01*
X439677Y1187512D01*
X438784Y1188741D01*
X438094Y1190095D01*
X437625Y1191540D01*
X437508Y1192277D01*
X445517Y1192277D01*
X445517Y1184268D01*
X444780Y1184385D01*
G37*
%LPD*%
%LPC*%
G36*
X416223Y448823D02*
X416223Y448823D01*
X416223Y455932D01*
X417256Y455727D01*
X418851Y455066D01*
X420287Y454107D01*
X421507Y452887D01*
X422466Y451451D01*
X423127Y449856D01*
X423332Y448823D01*
X416223Y448823D01*
G37*
%LPD*%
%LPC*%
G36*
X416223Y445777D02*
X416223Y445777D01*
X423332Y445777D01*
X423127Y444744D01*
X422466Y443149D01*
X421507Y441713D01*
X420287Y440493D01*
X418851Y439534D01*
X417256Y438873D01*
X416223Y438668D01*
X416223Y445777D01*
G37*
%LPD*%
%LPC*%
G36*
X406068Y448823D02*
X406068Y448823D01*
X406273Y449856D01*
X406934Y451451D01*
X407893Y452887D01*
X409113Y454107D01*
X410549Y455066D01*
X412144Y455727D01*
X413177Y455932D01*
X413177Y448823D01*
X406068Y448823D01*
G37*
%LPD*%
%LPC*%
G36*
X412144Y438873D02*
X412144Y438873D01*
X410549Y439534D01*
X409113Y440493D01*
X407893Y441713D01*
X406934Y443149D01*
X406273Y444744D01*
X406068Y445777D01*
X413177Y445777D01*
X413177Y438668D01*
X412144Y438873D01*
G37*
%LPD*%
%LPC*%
G36*
X505459Y889019D02*
X505459Y889019D01*
X505459Y895740D01*
X506622Y895362D01*
X507961Y894680D01*
X509175Y893797D01*
X510237Y892735D01*
X511120Y891521D01*
X511802Y890182D01*
X512180Y889019D01*
X505459Y889019D01*
G37*
%LPD*%
%LPC*%
G36*
X200659Y889019D02*
X200659Y889019D01*
X200659Y895740D01*
X201822Y895362D01*
X203161Y894680D01*
X204375Y893797D01*
X205437Y892735D01*
X206320Y891521D01*
X207002Y890182D01*
X207380Y889019D01*
X200659Y889019D01*
G37*
%LPD*%
%LPC*%
G36*
X188940Y889019D02*
X188940Y889019D01*
X189318Y890182D01*
X190000Y891521D01*
X190883Y892735D01*
X191945Y893797D01*
X193159Y894680D01*
X194498Y895362D01*
X195661Y895740D01*
X195661Y889019D01*
X188940Y889019D01*
G37*
%LPD*%
%LPC*%
G36*
X493740Y889019D02*
X493740Y889019D01*
X494118Y890182D01*
X494800Y891521D01*
X495683Y892735D01*
X496745Y893797D01*
X497959Y894680D01*
X499298Y895362D01*
X500461Y895740D01*
X500461Y889019D01*
X493740Y889019D01*
G37*
%LPD*%
%LPC*%
G36*
X200659Y884021D02*
X200659Y884021D01*
X207380Y884021D01*
X207002Y882858D01*
X206320Y881519D01*
X205437Y880305D01*
X204375Y879243D01*
X203161Y878360D01*
X201822Y877678D01*
X200659Y877300D01*
X200659Y884021D01*
G37*
%LPD*%
%LPC*%
G36*
X499298Y877678D02*
X499298Y877678D01*
X497959Y878360D01*
X496745Y879243D01*
X495683Y880305D01*
X494800Y881519D01*
X494118Y882858D01*
X493740Y884021D01*
X500461Y884021D01*
X500461Y877300D01*
X499298Y877678D01*
G37*
%LPD*%
%LPC*%
G36*
X194498Y877678D02*
X194498Y877678D01*
X193159Y878360D01*
X191945Y879243D01*
X190883Y880305D01*
X190000Y881519D01*
X189318Y882858D01*
X188940Y884021D01*
X195661Y884021D01*
X195661Y877300D01*
X194498Y877678D01*
G37*
%LPD*%
%LPC*%
G36*
X543922Y449522D02*
X543922Y449522D01*
X543922Y455793D01*
X544256Y455727D01*
X545851Y455066D01*
X547287Y454107D01*
X548507Y452887D01*
X549466Y451451D01*
X550127Y449856D01*
X550193Y449522D01*
X543922Y449522D01*
G37*
%LPD*%
%LPC*%
G36*
X815022Y141922D02*
X815022Y141922D01*
X815022Y148193D01*
X815356Y148127D01*
X816951Y147466D01*
X818387Y146507D01*
X819607Y145287D01*
X820566Y143851D01*
X821227Y142256D01*
X821293Y141922D01*
X815022Y141922D01*
G37*
%LPD*%
%LPC*%
G36*
X878522Y141922D02*
X878522Y141922D01*
X878522Y148193D01*
X878856Y148127D01*
X880451Y147466D01*
X881887Y146507D01*
X883107Y145287D01*
X884066Y143851D01*
X884727Y142256D01*
X884793Y141922D01*
X878522Y141922D01*
G37*
%LPD*%
%LPC*%
G36*
X416922Y220922D02*
X416922Y220922D01*
X416922Y227193D01*
X417256Y227127D01*
X418851Y226466D01*
X420287Y225507D01*
X421507Y224287D01*
X422466Y222851D01*
X423127Y221256D01*
X423193Y220922D01*
X416922Y220922D01*
G37*
%LPD*%
%LPC*%
G36*
X804307Y141922D02*
X804307Y141922D01*
X804373Y142256D01*
X805034Y143851D01*
X805993Y145287D01*
X807213Y146507D01*
X808649Y147466D01*
X810244Y148127D01*
X810578Y148193D01*
X810578Y141922D01*
X804307Y141922D01*
G37*
%LPD*%
%LPC*%
G36*
X416922Y216478D02*
X416922Y216478D01*
X423193Y216478D01*
X423127Y216144D01*
X422466Y214549D01*
X421507Y213113D01*
X420287Y211893D01*
X418851Y210934D01*
X417256Y210273D01*
X416922Y210207D01*
X416922Y216478D01*
G37*
%LPD*%
%LPC*%
G36*
X878522Y137478D02*
X878522Y137478D01*
X884793Y137478D01*
X884727Y137144D01*
X884066Y135549D01*
X883107Y134113D01*
X881887Y132893D01*
X880451Y131934D01*
X878856Y131273D01*
X878522Y131207D01*
X878522Y137478D01*
G37*
%LPD*%
%LPC*%
G36*
X815022Y137478D02*
X815022Y137478D01*
X821293Y137478D01*
X821227Y137144D01*
X820566Y135549D01*
X819607Y134113D01*
X818387Y132893D01*
X816951Y131934D01*
X815356Y131273D01*
X815022Y131207D01*
X815022Y137478D01*
G37*
%LPD*%
%LPC*%
G36*
X533207Y449522D02*
X533207Y449522D01*
X533273Y449856D01*
X533934Y451451D01*
X534893Y452887D01*
X536113Y454107D01*
X537549Y455066D01*
X539144Y455727D01*
X539478Y455793D01*
X539478Y449522D01*
X533207Y449522D01*
G37*
%LPD*%
%LPC*%
G36*
X406207Y220922D02*
X406207Y220922D01*
X406273Y221256D01*
X406934Y222851D01*
X407893Y224287D01*
X409113Y225507D01*
X410549Y226466D01*
X412144Y227127D01*
X412478Y227193D01*
X412478Y220922D01*
X406207Y220922D01*
G37*
%LPD*%
%LPC*%
G36*
X543922Y445078D02*
X543922Y445078D01*
X550193Y445078D01*
X550127Y444744D01*
X549466Y443149D01*
X548507Y441713D01*
X547287Y440493D01*
X545851Y439534D01*
X544256Y438873D01*
X543922Y438807D01*
X543922Y445078D01*
G37*
%LPD*%
%LPC*%
G36*
X867807Y141922D02*
X867807Y141922D01*
X867873Y142256D01*
X868534Y143851D01*
X869493Y145287D01*
X870713Y146507D01*
X872149Y147466D01*
X873744Y148127D01*
X874078Y148193D01*
X874078Y141922D01*
X867807Y141922D01*
G37*
%LPD*%
%LPC*%
G36*
X412144Y210273D02*
X412144Y210273D01*
X410549Y210934D01*
X409113Y211893D01*
X407893Y213113D01*
X406934Y214549D01*
X406273Y216144D01*
X406207Y216478D01*
X412478Y216478D01*
X412478Y210207D01*
X412144Y210273D01*
G37*
%LPD*%
%LPC*%
G36*
X539144Y438873D02*
X539144Y438873D01*
X537549Y439534D01*
X536113Y440493D01*
X534893Y441713D01*
X533934Y443149D01*
X533273Y444744D01*
X533207Y445078D01*
X539478Y445078D01*
X539478Y438807D01*
X539144Y438873D01*
G37*
%LPD*%
%LPC*%
G36*
X873744Y131273D02*
X873744Y131273D01*
X872149Y131934D01*
X870713Y132893D01*
X869493Y134113D01*
X868534Y135549D01*
X867873Y137144D01*
X867807Y137478D01*
X874078Y137478D01*
X874078Y131207D01*
X873744Y131273D01*
G37*
%LPD*%
%LPC*%
G36*
X810244Y131273D02*
X810244Y131273D01*
X808649Y131934D01*
X807213Y132893D01*
X805993Y134113D01*
X805034Y135549D01*
X804373Y137144D01*
X804307Y137478D01*
X810578Y137478D01*
X810578Y131207D01*
X810244Y131273D01*
G37*
%LPD*%
%LPC*%
G36*
X447039Y1193799D02*
X447039Y1193799D01*
X447039Y1193801D01*
X447041Y1193801D01*
X447041Y1193799D01*
X447039Y1193799D01*
G37*
%LPD*%
%LPC*%
G36*
X414699Y447299D02*
X414699Y447299D01*
X414699Y447301D01*
X414701Y447301D01*
X414701Y447299D01*
X414699Y447299D01*
G37*
%LPD*%
D10*
X523240Y1193800D03*
X497840Y1193800D03*
X472440Y1193800D03*
X447040Y1193800D03*
D11*
X876300Y190500D03*
X876300Y139700D03*
X812800Y190500D03*
X812800Y165100D03*
X812800Y139700D03*
D12*
X901700Y1150100D03*
X901700Y1085100D03*
D13*
X520300Y139700D03*
X495300Y139700D03*
X470300Y139700D03*
D14*
X189500Y164700D03*
X189500Y114700D03*
X64500Y114700D03*
X64500Y164700D03*
D11*
X262300Y472700D03*
X262300Y447300D03*
X287700Y472700D03*
X287700Y447300D03*
X313100Y472700D03*
X313100Y447300D03*
X338500Y472700D03*
X338500Y447300D03*
X363900Y472700D03*
X363900Y447300D03*
X389300Y472700D03*
X389300Y447300D03*
X414700Y472700D03*
X414700Y447300D03*
X440100Y472700D03*
X440100Y447300D03*
X465500Y472700D03*
X465500Y447300D03*
X490900Y472700D03*
X490900Y447300D03*
X516300Y472700D03*
X516300Y447300D03*
X541700Y472700D03*
X541700Y447300D03*
X567100Y472700D03*
X567100Y447300D03*
X592500Y472700D03*
X592500Y447300D03*
X617900Y472700D03*
X617900Y447300D03*
X643300Y472700D03*
X643300Y447300D03*
X668700Y472700D03*
X668700Y447300D03*
X694100Y472700D03*
X694100Y447300D03*
X262300Y218700D03*
X262300Y193300D03*
X287700Y218700D03*
X287700Y193300D03*
X313100Y218700D03*
X313100Y193300D03*
X338500Y218700D03*
X338500Y193300D03*
X363900Y218700D03*
X363900Y193300D03*
X389300Y218700D03*
X389300Y193300D03*
X414700Y218700D03*
X414700Y193300D03*
X440100Y218700D03*
X440100Y193300D03*
X465500Y218700D03*
X465500Y193300D03*
X490900Y218700D03*
X490900Y193300D03*
X516300Y218700D03*
X516300Y193300D03*
X541700Y218700D03*
X541700Y193300D03*
X567100Y218700D03*
X567100Y193300D03*
X592500Y218700D03*
X592500Y193300D03*
X617900Y218700D03*
X617900Y193300D03*
X643300Y218700D03*
X643300Y193300D03*
X668700Y218700D03*
X668700Y193300D03*
X694100Y218700D03*
X694100Y193300D03*
D13*
X172760Y886520D03*
X198160Y886520D03*
X223560Y886520D03*
X248960Y886520D03*
X274360Y886520D03*
X299760Y886520D03*
X325160Y886520D03*
X350560Y886520D03*
X375960Y886520D03*
X401360Y886520D03*
X426760Y886520D03*
X452160Y886520D03*
X477560Y886520D03*
X502960Y886520D03*
X528360Y886520D03*
X553760Y886520D03*
D15*
X38100Y38100D03*
X38100Y1231900D03*
X977900Y1231900D03*
X977900Y38100D03*
D16*
X812800Y165100D02*
X793750Y165100D01*
D17*
X793750Y165100D03*
X857250Y190500D03*
D16*
X900950Y1149350D02*
X901700Y1150100D01*
X900950Y1149350D02*
X889000Y1149350D01*
D17*
X889000Y1149350D03*
X63500Y698500D03*
X171450Y114300D03*
D16*
X64500Y114700D02*
X64100Y114300D01*
X50800Y114300D01*
D17*
X50800Y114300D03*
X158750Y844550D03*
D16*
X270570Y886520D02*
X274360Y886520D01*
X270570Y886520D02*
X260350Y876300D01*
D17*
X260350Y876300D03*
X514350Y876300D03*
X539750Y876300D03*
X793750Y139700D03*
X857250Y139700D03*
X184150Y844550D03*
X488950Y876300D03*
M02*
