G04 EAGLE Gerber RS-274X export*
G75*
%MOMM*%
%FSLAX34Y34*%
%LPD*%
%INCopper Layer 2*%
%IPPOS*%
%AMOC8*
5,1,8,0,0,1.08239X$1,22.5*%
G01*
%ADD10C,1.422400*%
%ADD11C,1.244600*%
%ADD12C,1.120000*%
%ADD13C,1.400000*%
%ADD14C,1.960000*%
%ADD15C,4.191000*%
%ADD16C,0.654800*%
%ADD17C,0.254000*%

G36*
X1012109Y2556D02*
X1012109Y2556D01*
X1012227Y2563D01*
X1012266Y2575D01*
X1012306Y2581D01*
X1012417Y2624D01*
X1012530Y2661D01*
X1012564Y2683D01*
X1012602Y2698D01*
X1012698Y2767D01*
X1012799Y2831D01*
X1012826Y2861D01*
X1012859Y2884D01*
X1012935Y2976D01*
X1013017Y3063D01*
X1013036Y3098D01*
X1013062Y3129D01*
X1013113Y3237D01*
X1013170Y3341D01*
X1013180Y3381D01*
X1013198Y3417D01*
X1013220Y3534D01*
X1013250Y3649D01*
X1013253Y3709D01*
X1013257Y3729D01*
X1013256Y3750D01*
X1013260Y3810D01*
X1013459Y1266190D01*
X1013444Y1266308D01*
X1013436Y1266427D01*
X1013424Y1266465D01*
X1013419Y1266505D01*
X1013375Y1266616D01*
X1013338Y1266729D01*
X1013317Y1266764D01*
X1013302Y1266801D01*
X1013232Y1266897D01*
X1013168Y1266998D01*
X1013139Y1267026D01*
X1013115Y1267058D01*
X1013023Y1267135D01*
X1012937Y1267216D01*
X1012901Y1267236D01*
X1012870Y1267261D01*
X1012762Y1267312D01*
X1012658Y1267370D01*
X1012619Y1267380D01*
X1012582Y1267397D01*
X1012465Y1267419D01*
X1012350Y1267449D01*
X1012290Y1267453D01*
X1012270Y1267457D01*
X1012250Y1267455D01*
X1012189Y1267459D01*
X3810Y1267459D01*
X3692Y1267444D01*
X3573Y1267437D01*
X3535Y1267424D01*
X3494Y1267419D01*
X3384Y1267376D01*
X3271Y1267339D01*
X3236Y1267317D01*
X3199Y1267302D01*
X3103Y1267233D01*
X3002Y1267169D01*
X2974Y1267139D01*
X2941Y1267116D01*
X2865Y1267024D01*
X2784Y1266937D01*
X2764Y1266902D01*
X2739Y1266871D01*
X2688Y1266763D01*
X2630Y1266659D01*
X2620Y1266619D01*
X2603Y1266583D01*
X2581Y1266466D01*
X2551Y1266351D01*
X2547Y1266291D01*
X2543Y1266271D01*
X2545Y1266250D01*
X2541Y1266190D01*
X2541Y3810D01*
X2556Y3692D01*
X2563Y3573D01*
X2576Y3535D01*
X2581Y3494D01*
X2624Y3384D01*
X2661Y3271D01*
X2683Y3236D01*
X2698Y3199D01*
X2767Y3103D01*
X2831Y3002D01*
X2861Y2974D01*
X2884Y2941D01*
X2976Y2865D01*
X3063Y2784D01*
X3098Y2764D01*
X3129Y2739D01*
X3237Y2688D01*
X3341Y2630D01*
X3381Y2620D01*
X3417Y2603D01*
X3534Y2581D01*
X3649Y2551D01*
X3709Y2547D01*
X3729Y2543D01*
X3750Y2545D01*
X3810Y2541D01*
X1011991Y2541D01*
X1012109Y2556D01*
G37*
%LPC*%
G36*
X973226Y1208404D02*
X973226Y1208404D01*
X964591Y1211981D01*
X957981Y1218591D01*
X954404Y1227226D01*
X954404Y1236574D01*
X957981Y1245209D01*
X964591Y1251819D01*
X973226Y1255396D01*
X982574Y1255396D01*
X991209Y1251819D01*
X997819Y1245209D01*
X1001396Y1236574D01*
X1001396Y1227226D01*
X997819Y1218591D01*
X991209Y1211981D01*
X982574Y1208404D01*
X973226Y1208404D01*
G37*
%LPD*%
%LPC*%
G36*
X33426Y1208404D02*
X33426Y1208404D01*
X24791Y1211981D01*
X18181Y1218591D01*
X14604Y1227226D01*
X14604Y1236574D01*
X18181Y1245209D01*
X24791Y1251819D01*
X33426Y1255396D01*
X42774Y1255396D01*
X51409Y1251819D01*
X58019Y1245209D01*
X61596Y1236574D01*
X61596Y1227226D01*
X58019Y1218591D01*
X51409Y1211981D01*
X42774Y1208404D01*
X33426Y1208404D01*
G37*
%LPD*%
%LPC*%
G36*
X33426Y14604D02*
X33426Y14604D01*
X24791Y18181D01*
X18181Y24791D01*
X14604Y33426D01*
X14604Y42774D01*
X18181Y51409D01*
X24791Y58019D01*
X33426Y61596D01*
X42774Y61596D01*
X51409Y58019D01*
X58019Y51409D01*
X61596Y42774D01*
X61596Y33426D01*
X58019Y24791D01*
X51409Y18181D01*
X42774Y14604D01*
X33426Y14604D01*
G37*
%LPD*%
%LPC*%
G36*
X973226Y14604D02*
X973226Y14604D01*
X964591Y18181D01*
X957981Y24791D01*
X954404Y33426D01*
X954404Y42774D01*
X957981Y51409D01*
X964591Y58019D01*
X973226Y61596D01*
X982574Y61596D01*
X991209Y58019D01*
X997819Y51409D01*
X1001396Y42774D01*
X1001396Y33426D01*
X997819Y24791D01*
X991209Y18181D01*
X982574Y14604D01*
X973226Y14604D01*
G37*
%LPD*%
%LPC*%
G36*
X864470Y559979D02*
X864470Y559979D01*
X858390Y562497D01*
X853737Y567150D01*
X851219Y573230D01*
X851219Y579810D01*
X853737Y585890D01*
X858390Y590543D01*
X864470Y593061D01*
X871050Y593061D01*
X877130Y590543D01*
X881783Y585890D01*
X884301Y579810D01*
X884301Y573230D01*
X881783Y567150D01*
X877130Y562497D01*
X871050Y559979D01*
X864470Y559979D01*
G37*
%LPD*%
%LPC*%
G36*
X114470Y559979D02*
X114470Y559979D01*
X108390Y562497D01*
X103737Y567150D01*
X101219Y573230D01*
X101219Y579810D01*
X103737Y585890D01*
X108390Y590543D01*
X114470Y593061D01*
X121050Y593061D01*
X127130Y590543D01*
X131783Y585890D01*
X134301Y579810D01*
X134301Y573230D01*
X131783Y567150D01*
X127130Y562497D01*
X121050Y559979D01*
X114470Y559979D01*
G37*
%LPD*%
%LPC*%
G36*
X864470Y869979D02*
X864470Y869979D01*
X858390Y872497D01*
X853737Y877150D01*
X851219Y883230D01*
X851219Y889810D01*
X853737Y895890D01*
X858390Y900543D01*
X864470Y903061D01*
X871050Y903061D01*
X877130Y900543D01*
X881783Y895890D01*
X884301Y889810D01*
X884301Y883230D01*
X881783Y877150D01*
X877130Y872497D01*
X871050Y869979D01*
X864470Y869979D01*
G37*
%LPD*%
%LPC*%
G36*
X114470Y869979D02*
X114470Y869979D01*
X108390Y872497D01*
X103737Y877150D01*
X101219Y883230D01*
X101219Y889810D01*
X103737Y895890D01*
X108390Y900543D01*
X114470Y903061D01*
X121050Y903061D01*
X127130Y900543D01*
X131783Y895890D01*
X134301Y889810D01*
X134301Y883230D01*
X131783Y877150D01*
X127130Y872497D01*
X121050Y869979D01*
X114470Y869979D01*
G37*
%LPD*%
%LPC*%
G36*
X442308Y54659D02*
X442308Y54659D01*
X436780Y56949D01*
X432549Y61180D01*
X430259Y66708D01*
X430259Y72692D01*
X432549Y78220D01*
X436780Y82451D01*
X442308Y84741D01*
X448292Y84741D01*
X453820Y82451D01*
X458051Y78220D01*
X460341Y72692D01*
X460341Y66708D01*
X458051Y61180D01*
X453820Y56949D01*
X448292Y54659D01*
X442308Y54659D01*
G37*
%LPD*%
%LPC*%
G36*
X542308Y54659D02*
X542308Y54659D01*
X536780Y56949D01*
X532549Y61180D01*
X530259Y66708D01*
X530259Y72692D01*
X532549Y78220D01*
X536780Y82451D01*
X542308Y84741D01*
X548292Y84741D01*
X553820Y82451D01*
X558051Y78220D01*
X560341Y72692D01*
X560341Y66708D01*
X558051Y61180D01*
X553820Y56949D01*
X548292Y54659D01*
X542308Y54659D01*
G37*
%LPD*%
%LPC*%
G36*
X487793Y870485D02*
X487793Y870485D01*
X485656Y871370D01*
X484020Y873006D01*
X483135Y875143D01*
X483135Y876603D01*
X483129Y876652D01*
X483131Y876702D01*
X483109Y876809D01*
X483095Y876919D01*
X483077Y876965D01*
X483067Y877013D01*
X483019Y877112D01*
X482978Y877214D01*
X482949Y877254D01*
X482927Y877299D01*
X482856Y877383D01*
X482792Y877472D01*
X482753Y877503D01*
X482721Y877541D01*
X482631Y877604D01*
X482547Y877674D01*
X482502Y877696D01*
X482461Y877724D01*
X482358Y877763D01*
X482259Y877810D01*
X482210Y877819D01*
X482164Y877837D01*
X482054Y877849D01*
X481947Y877870D01*
X481897Y877867D01*
X481848Y877872D01*
X481739Y877857D01*
X481629Y877850D01*
X481582Y877835D01*
X481533Y877828D01*
X481380Y877776D01*
X479458Y876979D01*
X475662Y876979D01*
X472156Y878432D01*
X469472Y881116D01*
X468019Y884622D01*
X468019Y888418D01*
X469472Y891924D01*
X472156Y894608D01*
X475662Y896061D01*
X479458Y896061D01*
X482964Y894608D01*
X485648Y891924D01*
X487101Y888418D01*
X487101Y884622D01*
X486789Y883870D01*
X486777Y883826D01*
X486761Y883793D01*
X486761Y883790D01*
X486755Y883777D01*
X486734Y883669D01*
X486705Y883563D01*
X486704Y883513D01*
X486695Y883464D01*
X486702Y883355D01*
X486700Y883245D01*
X486712Y883197D01*
X486715Y883147D01*
X486749Y883043D01*
X486774Y882936D01*
X486797Y882892D01*
X486813Y882845D01*
X486871Y882752D01*
X486923Y882655D01*
X486956Y882618D01*
X486983Y882576D01*
X487063Y882501D01*
X487137Y882419D01*
X487178Y882392D01*
X487215Y882358D01*
X487311Y882305D01*
X487402Y882245D01*
X487449Y882228D01*
X487493Y882204D01*
X487599Y882177D01*
X487703Y882141D01*
X487753Y882137D01*
X487801Y882125D01*
X487962Y882115D01*
X490107Y882115D01*
X492303Y881205D01*
X492318Y881196D01*
X492389Y881141D01*
X492453Y881113D01*
X492512Y881077D01*
X492598Y881050D01*
X492680Y881015D01*
X492749Y881004D01*
X492816Y880983D01*
X492906Y880979D01*
X492994Y880965D01*
X493064Y880971D01*
X493134Y880968D01*
X493222Y880986D01*
X493311Y880994D01*
X493377Y881018D01*
X493445Y881032D01*
X493526Y881072D01*
X493610Y881102D01*
X493668Y881141D01*
X493731Y881172D01*
X493799Y881230D01*
X493874Y881280D01*
X493920Y881333D01*
X493973Y881378D01*
X494025Y881452D01*
X494084Y881519D01*
X494116Y881581D01*
X494156Y881638D01*
X494188Y881722D01*
X494229Y881802D01*
X494244Y881870D01*
X494269Y881936D01*
X494279Y882025D01*
X494298Y882112D01*
X494296Y882182D01*
X494304Y882252D01*
X494292Y882341D01*
X494289Y882430D01*
X494269Y882497D01*
X494260Y882567D01*
X494208Y882719D01*
X493419Y884622D01*
X493419Y888418D01*
X494872Y891924D01*
X497556Y894608D01*
X501062Y896061D01*
X504858Y896061D01*
X508364Y894608D01*
X511048Y891924D01*
X512501Y888418D01*
X512501Y884622D01*
X511048Y881116D01*
X508364Y878432D01*
X504858Y876979D01*
X501062Y876979D01*
X497556Y878432D01*
X496614Y879374D01*
X496559Y879416D01*
X496510Y879467D01*
X496433Y879514D01*
X496362Y879569D01*
X496299Y879596D01*
X496239Y879633D01*
X496153Y879659D01*
X496071Y879695D01*
X496002Y879706D01*
X495935Y879726D01*
X495845Y879731D01*
X495757Y879745D01*
X495687Y879738D01*
X495617Y879742D01*
X495530Y879723D01*
X495440Y879715D01*
X495374Y879691D01*
X495306Y879677D01*
X495225Y879638D01*
X495141Y879607D01*
X495083Y879568D01*
X495020Y879538D01*
X494952Y879479D01*
X494878Y879429D01*
X494831Y879376D01*
X494778Y879331D01*
X494726Y879258D01*
X494667Y879190D01*
X494635Y879128D01*
X494595Y879071D01*
X494563Y878987D01*
X494522Y878907D01*
X494507Y878839D01*
X494482Y878774D01*
X494472Y878684D01*
X494453Y878597D01*
X494455Y878527D01*
X494447Y878458D01*
X494460Y878369D01*
X494462Y878279D01*
X494482Y878212D01*
X494492Y878143D01*
X494544Y877990D01*
X494765Y877457D01*
X494765Y875143D01*
X493880Y873006D01*
X492244Y871370D01*
X490107Y870485D01*
X487793Y870485D01*
G37*
%LPD*%
%LPC*%
G36*
X698545Y1181259D02*
X698545Y1181259D01*
X693936Y1183168D01*
X690408Y1186696D01*
X688499Y1191305D01*
X688499Y1196295D01*
X690408Y1200904D01*
X693936Y1204432D01*
X698545Y1206341D01*
X703535Y1206341D01*
X708144Y1204432D01*
X711672Y1200904D01*
X713581Y1196295D01*
X713581Y1191305D01*
X711672Y1186696D01*
X708144Y1183168D01*
X703535Y1181259D01*
X698545Y1181259D01*
G37*
%LPD*%
%LPC*%
G36*
X261665Y1181259D02*
X261665Y1181259D01*
X257056Y1183168D01*
X253528Y1186696D01*
X251619Y1191305D01*
X251619Y1196295D01*
X253528Y1200904D01*
X257056Y1204432D01*
X261665Y1206341D01*
X266655Y1206341D01*
X271264Y1204432D01*
X274792Y1200904D01*
X276701Y1196295D01*
X276701Y1191305D01*
X274792Y1186696D01*
X271264Y1183168D01*
X266655Y1181259D01*
X261665Y1181259D01*
G37*
%LPD*%
%LPC*%
G36*
X698545Y952659D02*
X698545Y952659D01*
X693936Y954568D01*
X690408Y958096D01*
X688499Y962705D01*
X688499Y967695D01*
X690408Y972304D01*
X693936Y975832D01*
X698545Y977741D01*
X703535Y977741D01*
X708144Y975832D01*
X711672Y972304D01*
X713581Y967695D01*
X713581Y962705D01*
X711672Y958096D01*
X708144Y954568D01*
X703535Y952659D01*
X698545Y952659D01*
G37*
%LPD*%
%LPC*%
G36*
X261665Y952659D02*
X261665Y952659D01*
X257056Y954568D01*
X253528Y958096D01*
X251619Y962705D01*
X251619Y967695D01*
X253528Y972304D01*
X257056Y975832D01*
X261665Y977741D01*
X266655Y977741D01*
X271264Y975832D01*
X274792Y972304D01*
X276701Y967695D01*
X276701Y962705D01*
X274792Y958096D01*
X271264Y954568D01*
X266655Y952659D01*
X261665Y952659D01*
G37*
%LPD*%
%LPC*%
G36*
X62045Y152359D02*
X62045Y152359D01*
X57510Y154238D01*
X54038Y157710D01*
X52159Y162245D01*
X52159Y167155D01*
X54038Y171690D01*
X57510Y175162D01*
X62045Y177041D01*
X66955Y177041D01*
X71490Y175162D01*
X74962Y171690D01*
X76841Y167155D01*
X76841Y162245D01*
X74962Y157710D01*
X71490Y154238D01*
X66955Y152359D01*
X62045Y152359D01*
G37*
%LPD*%
%LPC*%
G36*
X187045Y152359D02*
X187045Y152359D01*
X182510Y154238D01*
X179038Y157710D01*
X177159Y162245D01*
X177159Y167155D01*
X179038Y171690D01*
X182510Y175162D01*
X187045Y177041D01*
X191955Y177041D01*
X196490Y175162D01*
X199962Y171690D01*
X201841Y167155D01*
X201841Y162245D01*
X199962Y157710D01*
X196490Y154238D01*
X191955Y152359D01*
X187045Y152359D01*
G37*
%LPD*%
%LPC*%
G36*
X874557Y130936D02*
X874557Y130936D01*
X871336Y132270D01*
X868870Y134736D01*
X868717Y135106D01*
X868703Y135131D01*
X868693Y135159D01*
X868624Y135269D01*
X868560Y135382D01*
X868539Y135403D01*
X868523Y135428D01*
X868429Y135517D01*
X868338Y135610D01*
X868313Y135626D01*
X868292Y135646D01*
X868178Y135709D01*
X868067Y135777D01*
X868039Y135785D01*
X868013Y135800D01*
X867887Y135832D01*
X867763Y135870D01*
X867734Y135872D01*
X867705Y135879D01*
X867545Y135889D01*
X862188Y135889D01*
X862090Y135877D01*
X861991Y135874D01*
X861933Y135857D01*
X861873Y135849D01*
X861781Y135813D01*
X861686Y135785D01*
X861633Y135755D01*
X861577Y135732D01*
X861497Y135674D01*
X861412Y135624D01*
X861336Y135558D01*
X861320Y135546D01*
X861312Y135536D01*
X861291Y135518D01*
X860544Y134770D01*
X858407Y133885D01*
X856093Y133885D01*
X853956Y134770D01*
X852320Y136406D01*
X851435Y138543D01*
X851435Y140857D01*
X852320Y142994D01*
X853956Y144630D01*
X856093Y145515D01*
X858407Y145515D01*
X860544Y144630D01*
X861291Y143882D01*
X861369Y143822D01*
X861441Y143754D01*
X861494Y143725D01*
X861542Y143688D01*
X861633Y143648D01*
X861720Y143600D01*
X861778Y143585D01*
X861834Y143561D01*
X861932Y143546D01*
X862028Y143521D01*
X862128Y143515D01*
X862148Y143511D01*
X862160Y143513D01*
X862188Y143511D01*
X867545Y143511D01*
X867574Y143514D01*
X867603Y143512D01*
X867731Y143534D01*
X867860Y143551D01*
X867888Y143561D01*
X867917Y143566D01*
X868035Y143620D01*
X868156Y143668D01*
X868180Y143685D01*
X868207Y143697D01*
X868308Y143778D01*
X868413Y143854D01*
X868432Y143877D01*
X868455Y143896D01*
X868533Y143999D01*
X868616Y144099D01*
X868629Y144126D01*
X868646Y144150D01*
X868717Y144294D01*
X868870Y144664D01*
X871336Y147130D01*
X874557Y148464D01*
X878043Y148464D01*
X881264Y147130D01*
X883730Y144664D01*
X885064Y141443D01*
X885064Y137957D01*
X883730Y134736D01*
X881264Y132270D01*
X878043Y130936D01*
X874557Y130936D01*
G37*
%LPD*%
%LPC*%
G36*
X521320Y1184147D02*
X521320Y1184147D01*
X517772Y1185617D01*
X515057Y1188332D01*
X513587Y1191880D01*
X513587Y1195720D01*
X515057Y1199268D01*
X517772Y1201983D01*
X521320Y1203453D01*
X525160Y1203453D01*
X528708Y1201983D01*
X531423Y1199268D01*
X532893Y1195720D01*
X532893Y1191880D01*
X531423Y1188332D01*
X528708Y1185617D01*
X525160Y1184147D01*
X521320Y1184147D01*
G37*
%LPD*%
%LPC*%
G36*
X495920Y1184147D02*
X495920Y1184147D01*
X492372Y1185617D01*
X489657Y1188332D01*
X488187Y1191880D01*
X488187Y1195720D01*
X489657Y1199268D01*
X492372Y1201983D01*
X495920Y1203453D01*
X499760Y1203453D01*
X503308Y1201983D01*
X506023Y1199268D01*
X507493Y1195720D01*
X507493Y1191880D01*
X506023Y1188332D01*
X503308Y1185617D01*
X499760Y1184147D01*
X495920Y1184147D01*
G37*
%LPD*%
%LPC*%
G36*
X445120Y1184147D02*
X445120Y1184147D01*
X441572Y1185617D01*
X438857Y1188332D01*
X437387Y1191880D01*
X437387Y1195720D01*
X438857Y1199268D01*
X441572Y1201983D01*
X445120Y1203453D01*
X448960Y1203453D01*
X452508Y1201983D01*
X455223Y1199268D01*
X456693Y1195720D01*
X456693Y1191880D01*
X455223Y1188332D01*
X452508Y1185617D01*
X448960Y1184147D01*
X445120Y1184147D01*
G37*
%LPD*%
%LPC*%
G36*
X468402Y130159D02*
X468402Y130159D01*
X464896Y131612D01*
X462212Y134296D01*
X460759Y137802D01*
X460759Y141598D01*
X462212Y145104D01*
X464896Y147788D01*
X468402Y149241D01*
X472198Y149241D01*
X475704Y147788D01*
X478388Y145104D01*
X479841Y141598D01*
X479841Y137802D01*
X478388Y134296D01*
X475704Y131612D01*
X472198Y130159D01*
X468402Y130159D01*
G37*
%LPD*%
%LPC*%
G36*
X297862Y876979D02*
X297862Y876979D01*
X294356Y878432D01*
X291672Y881116D01*
X290219Y884622D01*
X290219Y888418D01*
X291672Y891924D01*
X294356Y894608D01*
X297862Y896061D01*
X301658Y896061D01*
X305164Y894608D01*
X307848Y891924D01*
X309301Y888418D01*
X309301Y884622D01*
X307848Y881116D01*
X305164Y878432D01*
X301658Y876979D01*
X297862Y876979D01*
G37*
%LPD*%
%LPC*%
G36*
X348662Y876979D02*
X348662Y876979D01*
X345156Y878432D01*
X342472Y881116D01*
X341019Y884622D01*
X341019Y888418D01*
X342472Y891924D01*
X345156Y894608D01*
X348662Y896061D01*
X352458Y896061D01*
X355964Y894608D01*
X358648Y891924D01*
X360101Y888418D01*
X360101Y884622D01*
X358648Y881116D01*
X355964Y878432D01*
X352458Y876979D01*
X348662Y876979D01*
G37*
%LPD*%
%LPC*%
G36*
X323262Y876979D02*
X323262Y876979D01*
X319756Y878432D01*
X317072Y881116D01*
X315619Y884622D01*
X315619Y888418D01*
X317072Y891924D01*
X319756Y894608D01*
X323262Y896061D01*
X327058Y896061D01*
X330564Y894608D01*
X333248Y891924D01*
X334701Y888418D01*
X334701Y884622D01*
X333248Y881116D01*
X330564Y878432D01*
X327058Y876979D01*
X323262Y876979D01*
G37*
%LPD*%
%LPC*%
G36*
X196262Y876979D02*
X196262Y876979D01*
X192756Y878432D01*
X190072Y881116D01*
X188619Y884622D01*
X188619Y888418D01*
X190072Y891924D01*
X192756Y894608D01*
X196262Y896061D01*
X200058Y896061D01*
X203564Y894608D01*
X206248Y891924D01*
X207701Y888418D01*
X207701Y884622D01*
X206248Y881116D01*
X203564Y878432D01*
X200058Y876979D01*
X196262Y876979D01*
G37*
%LPD*%
%LPC*%
G36*
X247062Y876979D02*
X247062Y876979D01*
X243556Y878432D01*
X240872Y881116D01*
X239419Y884622D01*
X239419Y888418D01*
X240872Y891924D01*
X243556Y894608D01*
X247062Y896061D01*
X250858Y896061D01*
X254364Y894608D01*
X257048Y891924D01*
X258501Y888418D01*
X258501Y884622D01*
X257048Y881116D01*
X254364Y878432D01*
X250858Y876979D01*
X247062Y876979D01*
G37*
%LPD*%
%LPC*%
G36*
X221662Y876979D02*
X221662Y876979D01*
X218156Y878432D01*
X215472Y881116D01*
X214019Y884622D01*
X214019Y888418D01*
X215472Y891924D01*
X218156Y894608D01*
X221662Y896061D01*
X225458Y896061D01*
X228964Y894608D01*
X231648Y891924D01*
X233101Y888418D01*
X233101Y884622D01*
X231648Y881116D01*
X228964Y878432D01*
X225458Y876979D01*
X221662Y876979D01*
G37*
%LPD*%
%LPC*%
G36*
X450262Y876979D02*
X450262Y876979D01*
X446756Y878432D01*
X444072Y881116D01*
X442619Y884622D01*
X442619Y888418D01*
X444072Y891924D01*
X446756Y894608D01*
X450262Y896061D01*
X454058Y896061D01*
X457564Y894608D01*
X460248Y891924D01*
X461701Y888418D01*
X461701Y884622D01*
X460248Y881116D01*
X457564Y878432D01*
X454058Y876979D01*
X450262Y876979D01*
G37*
%LPD*%
%LPC*%
G36*
X424862Y876979D02*
X424862Y876979D01*
X421356Y878432D01*
X418672Y881116D01*
X417219Y884622D01*
X417219Y888418D01*
X418672Y891924D01*
X421356Y894608D01*
X424862Y896061D01*
X428658Y896061D01*
X432164Y894608D01*
X434848Y891924D01*
X436301Y888418D01*
X436301Y884622D01*
X434848Y881116D01*
X432164Y878432D01*
X428658Y876979D01*
X424862Y876979D01*
G37*
%LPD*%
%LPC*%
G36*
X399462Y876979D02*
X399462Y876979D01*
X395956Y878432D01*
X393272Y881116D01*
X391819Y884622D01*
X391819Y888418D01*
X393272Y891924D01*
X395956Y894608D01*
X399462Y896061D01*
X403258Y896061D01*
X406764Y894608D01*
X409448Y891924D01*
X410901Y888418D01*
X410901Y884622D01*
X409448Y881116D01*
X406764Y878432D01*
X403258Y876979D01*
X399462Y876979D01*
G37*
%LPD*%
%LPC*%
G36*
X374062Y876979D02*
X374062Y876979D01*
X370556Y878432D01*
X367872Y881116D01*
X366419Y884622D01*
X366419Y888418D01*
X367872Y891924D01*
X370556Y894608D01*
X374062Y896061D01*
X377858Y896061D01*
X381364Y894608D01*
X384048Y891924D01*
X385501Y888418D01*
X385501Y884622D01*
X384048Y881116D01*
X381364Y878432D01*
X377858Y876979D01*
X374062Y876979D01*
G37*
%LPD*%
%LPC*%
G36*
X493402Y130159D02*
X493402Y130159D01*
X489896Y131612D01*
X487212Y134296D01*
X485759Y137802D01*
X485759Y141598D01*
X487212Y145104D01*
X489896Y147788D01*
X493402Y149241D01*
X497198Y149241D01*
X500704Y147788D01*
X503388Y145104D01*
X504841Y141598D01*
X504841Y137802D01*
X503388Y134296D01*
X500704Y131612D01*
X497198Y130159D01*
X493402Y130159D01*
G37*
%LPD*%
%LPC*%
G36*
X518402Y130159D02*
X518402Y130159D01*
X514896Y131612D01*
X512212Y134296D01*
X510759Y137802D01*
X510759Y141598D01*
X512212Y145104D01*
X514896Y147788D01*
X518402Y149241D01*
X522198Y149241D01*
X525704Y147788D01*
X528388Y145104D01*
X529841Y141598D01*
X529841Y137802D01*
X528388Y134296D01*
X525704Y131612D01*
X522198Y130159D01*
X518402Y130159D01*
G37*
%LPD*%
%LPC*%
G36*
X666957Y184536D02*
X666957Y184536D01*
X663736Y185870D01*
X661270Y188336D01*
X659936Y191557D01*
X659936Y195043D01*
X661270Y198264D01*
X663736Y200730D01*
X666957Y202064D01*
X670443Y202064D01*
X673664Y200730D01*
X676130Y198264D01*
X677464Y195043D01*
X677464Y191557D01*
X676130Y188336D01*
X673664Y185870D01*
X670443Y184536D01*
X666957Y184536D01*
G37*
%LPD*%
%LPC*%
G36*
X641557Y184536D02*
X641557Y184536D01*
X638336Y185870D01*
X635870Y188336D01*
X634536Y191557D01*
X634536Y195043D01*
X635870Y198264D01*
X638336Y200730D01*
X641557Y202064D01*
X645043Y202064D01*
X648264Y200730D01*
X650730Y198264D01*
X652064Y195043D01*
X652064Y191557D01*
X650730Y188336D01*
X648264Y185870D01*
X645043Y184536D01*
X641557Y184536D01*
G37*
%LPD*%
%LPC*%
G36*
X616157Y184536D02*
X616157Y184536D01*
X612936Y185870D01*
X610470Y188336D01*
X609136Y191557D01*
X609136Y195043D01*
X610470Y198264D01*
X612936Y200730D01*
X616157Y202064D01*
X619643Y202064D01*
X622864Y200730D01*
X625330Y198264D01*
X626664Y195043D01*
X626664Y191557D01*
X625330Y188336D01*
X622864Y185870D01*
X619643Y184536D01*
X616157Y184536D01*
G37*
%LPD*%
%LPC*%
G36*
X590757Y184536D02*
X590757Y184536D01*
X587536Y185870D01*
X585070Y188336D01*
X583736Y191557D01*
X583736Y195043D01*
X585070Y198264D01*
X587536Y200730D01*
X590757Y202064D01*
X594243Y202064D01*
X597464Y200730D01*
X599930Y198264D01*
X601264Y195043D01*
X601264Y191557D01*
X599930Y188336D01*
X597464Y185870D01*
X594243Y184536D01*
X590757Y184536D01*
G37*
%LPD*%
%LPC*%
G36*
X565357Y184536D02*
X565357Y184536D01*
X562136Y185870D01*
X559670Y188336D01*
X558336Y191557D01*
X558336Y195043D01*
X559670Y198264D01*
X562136Y200730D01*
X565357Y202064D01*
X568843Y202064D01*
X572064Y200730D01*
X574530Y198264D01*
X575864Y195043D01*
X575864Y191557D01*
X574530Y188336D01*
X572064Y185870D01*
X568843Y184536D01*
X565357Y184536D01*
G37*
%LPD*%
%LPC*%
G36*
X514557Y184536D02*
X514557Y184536D01*
X511336Y185870D01*
X508870Y188336D01*
X507536Y191557D01*
X507536Y195043D01*
X508870Y198264D01*
X511336Y200730D01*
X514557Y202064D01*
X518043Y202064D01*
X521264Y200730D01*
X523730Y198264D01*
X525064Y195043D01*
X525064Y191557D01*
X523730Y188336D01*
X521264Y185870D01*
X518043Y184536D01*
X514557Y184536D01*
G37*
%LPD*%
%LPC*%
G36*
X489157Y184536D02*
X489157Y184536D01*
X485936Y185870D01*
X483470Y188336D01*
X482136Y191557D01*
X482136Y195043D01*
X483470Y198264D01*
X485936Y200730D01*
X489157Y202064D01*
X492643Y202064D01*
X495864Y200730D01*
X498330Y198264D01*
X499664Y195043D01*
X499664Y191557D01*
X498330Y188336D01*
X495864Y185870D01*
X492643Y184536D01*
X489157Y184536D01*
G37*
%LPD*%
%LPC*%
G36*
X463757Y184536D02*
X463757Y184536D01*
X460536Y185870D01*
X458070Y188336D01*
X456736Y191557D01*
X456736Y195043D01*
X458070Y198264D01*
X460536Y200730D01*
X463757Y202064D01*
X467243Y202064D01*
X470464Y200730D01*
X472930Y198264D01*
X474264Y195043D01*
X474264Y191557D01*
X472930Y188336D01*
X470464Y185870D01*
X467243Y184536D01*
X463757Y184536D01*
G37*
%LPD*%
%LPC*%
G36*
X438357Y184536D02*
X438357Y184536D01*
X435136Y185870D01*
X432670Y188336D01*
X431336Y191557D01*
X431336Y195043D01*
X432670Y198264D01*
X435136Y200730D01*
X438357Y202064D01*
X441843Y202064D01*
X445064Y200730D01*
X447530Y198264D01*
X448864Y195043D01*
X448864Y191557D01*
X447530Y188336D01*
X445064Y185870D01*
X441843Y184536D01*
X438357Y184536D01*
G37*
%LPD*%
%LPC*%
G36*
X412957Y184536D02*
X412957Y184536D01*
X409736Y185870D01*
X407270Y188336D01*
X405936Y191557D01*
X405936Y195043D01*
X407270Y198264D01*
X409736Y200730D01*
X412957Y202064D01*
X416443Y202064D01*
X419664Y200730D01*
X422130Y198264D01*
X423464Y195043D01*
X423464Y191557D01*
X422130Y188336D01*
X419664Y185870D01*
X416443Y184536D01*
X412957Y184536D01*
G37*
%LPD*%
%LPC*%
G36*
X387557Y184536D02*
X387557Y184536D01*
X384336Y185870D01*
X381870Y188336D01*
X380536Y191557D01*
X380536Y195043D01*
X381870Y198264D01*
X384336Y200730D01*
X387557Y202064D01*
X391043Y202064D01*
X394264Y200730D01*
X396730Y198264D01*
X398064Y195043D01*
X398064Y191557D01*
X396730Y188336D01*
X394264Y185870D01*
X391043Y184536D01*
X387557Y184536D01*
G37*
%LPD*%
%LPC*%
G36*
X362157Y184536D02*
X362157Y184536D01*
X358936Y185870D01*
X356470Y188336D01*
X355136Y191557D01*
X355136Y195043D01*
X356470Y198264D01*
X358936Y200730D01*
X362157Y202064D01*
X365643Y202064D01*
X368864Y200730D01*
X371330Y198264D01*
X372664Y195043D01*
X372664Y191557D01*
X371330Y188336D01*
X368864Y185870D01*
X365643Y184536D01*
X362157Y184536D01*
G37*
%LPD*%
%LPC*%
G36*
X336757Y184536D02*
X336757Y184536D01*
X333536Y185870D01*
X331070Y188336D01*
X329736Y191557D01*
X329736Y195043D01*
X331070Y198264D01*
X333536Y200730D01*
X336757Y202064D01*
X340243Y202064D01*
X343464Y200730D01*
X345930Y198264D01*
X347264Y195043D01*
X347264Y191557D01*
X345930Y188336D01*
X343464Y185870D01*
X340243Y184536D01*
X336757Y184536D01*
G37*
%LPD*%
%LPC*%
G36*
X311357Y184536D02*
X311357Y184536D01*
X308136Y185870D01*
X305670Y188336D01*
X304336Y191557D01*
X304336Y195043D01*
X305670Y198264D01*
X308136Y200730D01*
X311357Y202064D01*
X314843Y202064D01*
X318064Y200730D01*
X320530Y198264D01*
X321864Y195043D01*
X321864Y191557D01*
X320530Y188336D01*
X318064Y185870D01*
X314843Y184536D01*
X311357Y184536D01*
G37*
%LPD*%
%LPC*%
G36*
X811057Y181736D02*
X811057Y181736D01*
X807836Y183070D01*
X805370Y185536D01*
X804036Y188757D01*
X804036Y192243D01*
X805370Y195464D01*
X807836Y197930D01*
X811057Y199264D01*
X814543Y199264D01*
X817764Y197930D01*
X820230Y195464D01*
X821564Y192243D01*
X821564Y188757D01*
X820230Y185536D01*
X817764Y183070D01*
X814543Y181736D01*
X811057Y181736D01*
G37*
%LPD*%
%LPC*%
G36*
X539957Y184536D02*
X539957Y184536D01*
X536736Y185870D01*
X534270Y188336D01*
X532936Y191557D01*
X532936Y195043D01*
X534270Y198264D01*
X536736Y200730D01*
X539957Y202064D01*
X543443Y202064D01*
X546664Y200730D01*
X549130Y198264D01*
X550464Y195043D01*
X550464Y191557D01*
X549130Y188336D01*
X546664Y185870D01*
X543443Y184536D01*
X539957Y184536D01*
G37*
%LPD*%
%LPC*%
G36*
X811057Y130936D02*
X811057Y130936D01*
X807836Y132270D01*
X805370Y134736D01*
X804036Y137957D01*
X804036Y141443D01*
X805370Y144664D01*
X807836Y147130D01*
X811057Y148464D01*
X814543Y148464D01*
X817764Y147130D01*
X820230Y144664D01*
X821564Y141443D01*
X821564Y137957D01*
X820230Y134736D01*
X817764Y132270D01*
X814543Y130936D01*
X811057Y130936D01*
G37*
%LPD*%
%LPC*%
G36*
X285957Y463936D02*
X285957Y463936D01*
X282736Y465270D01*
X280270Y467736D01*
X278936Y470957D01*
X278936Y474443D01*
X280270Y477664D01*
X282736Y480130D01*
X285957Y481464D01*
X289443Y481464D01*
X292664Y480130D01*
X295130Y477664D01*
X296464Y474443D01*
X296464Y470957D01*
X295130Y467736D01*
X292664Y465270D01*
X289443Y463936D01*
X285957Y463936D01*
G37*
%LPD*%
%LPC*%
G36*
X260557Y463936D02*
X260557Y463936D01*
X257336Y465270D01*
X254870Y467736D01*
X253536Y470957D01*
X253536Y474443D01*
X254870Y477664D01*
X257336Y480130D01*
X260557Y481464D01*
X264043Y481464D01*
X267264Y480130D01*
X269730Y477664D01*
X271064Y474443D01*
X271064Y470957D01*
X269730Y467736D01*
X267264Y465270D01*
X264043Y463936D01*
X260557Y463936D01*
G37*
%LPD*%
%LPC*%
G36*
X692357Y463936D02*
X692357Y463936D01*
X689136Y465270D01*
X686670Y467736D01*
X685336Y470957D01*
X685336Y474443D01*
X686670Y477664D01*
X689136Y480130D01*
X692357Y481464D01*
X695843Y481464D01*
X699064Y480130D01*
X701530Y477664D01*
X702864Y474443D01*
X702864Y470957D01*
X701530Y467736D01*
X699064Y465270D01*
X695843Y463936D01*
X692357Y463936D01*
G37*
%LPD*%
%LPC*%
G36*
X666957Y463936D02*
X666957Y463936D01*
X663736Y465270D01*
X661270Y467736D01*
X659936Y470957D01*
X659936Y474443D01*
X661270Y477664D01*
X663736Y480130D01*
X666957Y481464D01*
X670443Y481464D01*
X673664Y480130D01*
X676130Y477664D01*
X677464Y474443D01*
X677464Y470957D01*
X676130Y467736D01*
X673664Y465270D01*
X670443Y463936D01*
X666957Y463936D01*
G37*
%LPD*%
%LPC*%
G36*
X641557Y463936D02*
X641557Y463936D01*
X638336Y465270D01*
X635870Y467736D01*
X634536Y470957D01*
X634536Y474443D01*
X635870Y477664D01*
X638336Y480130D01*
X641557Y481464D01*
X645043Y481464D01*
X648264Y480130D01*
X650730Y477664D01*
X652064Y474443D01*
X652064Y470957D01*
X650730Y467736D01*
X648264Y465270D01*
X645043Y463936D01*
X641557Y463936D01*
G37*
%LPD*%
%LPC*%
G36*
X616157Y463936D02*
X616157Y463936D01*
X612936Y465270D01*
X610470Y467736D01*
X609136Y470957D01*
X609136Y474443D01*
X610470Y477664D01*
X612936Y480130D01*
X616157Y481464D01*
X619643Y481464D01*
X622864Y480130D01*
X625330Y477664D01*
X626664Y474443D01*
X626664Y470957D01*
X625330Y467736D01*
X622864Y465270D01*
X619643Y463936D01*
X616157Y463936D01*
G37*
%LPD*%
%LPC*%
G36*
X590757Y463936D02*
X590757Y463936D01*
X587536Y465270D01*
X585070Y467736D01*
X583736Y470957D01*
X583736Y474443D01*
X585070Y477664D01*
X587536Y480130D01*
X590757Y481464D01*
X594243Y481464D01*
X597464Y480130D01*
X599930Y477664D01*
X601264Y474443D01*
X601264Y470957D01*
X599930Y467736D01*
X597464Y465270D01*
X594243Y463936D01*
X590757Y463936D01*
G37*
%LPD*%
%LPC*%
G36*
X565357Y463936D02*
X565357Y463936D01*
X562136Y465270D01*
X559670Y467736D01*
X558336Y470957D01*
X558336Y474443D01*
X559670Y477664D01*
X562136Y480130D01*
X565357Y481464D01*
X568843Y481464D01*
X572064Y480130D01*
X574530Y477664D01*
X575864Y474443D01*
X575864Y470957D01*
X574530Y467736D01*
X572064Y465270D01*
X568843Y463936D01*
X565357Y463936D01*
G37*
%LPD*%
%LPC*%
G36*
X539957Y463936D02*
X539957Y463936D01*
X536736Y465270D01*
X534270Y467736D01*
X532936Y470957D01*
X532936Y474443D01*
X534270Y477664D01*
X536736Y480130D01*
X539957Y481464D01*
X543443Y481464D01*
X546664Y480130D01*
X549130Y477664D01*
X550464Y474443D01*
X550464Y470957D01*
X549130Y467736D01*
X546664Y465270D01*
X543443Y463936D01*
X539957Y463936D01*
G37*
%LPD*%
%LPC*%
G36*
X514557Y463936D02*
X514557Y463936D01*
X511336Y465270D01*
X508870Y467736D01*
X507536Y470957D01*
X507536Y474443D01*
X508870Y477664D01*
X511336Y480130D01*
X514557Y481464D01*
X518043Y481464D01*
X521264Y480130D01*
X523730Y477664D01*
X525064Y474443D01*
X525064Y470957D01*
X523730Y467736D01*
X521264Y465270D01*
X518043Y463936D01*
X514557Y463936D01*
G37*
%LPD*%
%LPC*%
G36*
X489157Y463936D02*
X489157Y463936D01*
X485936Y465270D01*
X483470Y467736D01*
X482136Y470957D01*
X482136Y474443D01*
X483470Y477664D01*
X485936Y480130D01*
X489157Y481464D01*
X492643Y481464D01*
X495864Y480130D01*
X498330Y477664D01*
X499664Y474443D01*
X499664Y470957D01*
X498330Y467736D01*
X495864Y465270D01*
X492643Y463936D01*
X489157Y463936D01*
G37*
%LPD*%
%LPC*%
G36*
X463757Y463936D02*
X463757Y463936D01*
X460536Y465270D01*
X458070Y467736D01*
X456736Y470957D01*
X456736Y474443D01*
X458070Y477664D01*
X460536Y480130D01*
X463757Y481464D01*
X467243Y481464D01*
X470464Y480130D01*
X472930Y477664D01*
X474264Y474443D01*
X474264Y470957D01*
X472930Y467736D01*
X470464Y465270D01*
X467243Y463936D01*
X463757Y463936D01*
G37*
%LPD*%
%LPC*%
G36*
X438357Y463936D02*
X438357Y463936D01*
X435136Y465270D01*
X432670Y467736D01*
X431336Y470957D01*
X431336Y474443D01*
X432670Y477664D01*
X435136Y480130D01*
X438357Y481464D01*
X441843Y481464D01*
X445064Y480130D01*
X447530Y477664D01*
X448864Y474443D01*
X448864Y470957D01*
X447530Y467736D01*
X445064Y465270D01*
X441843Y463936D01*
X438357Y463936D01*
G37*
%LPD*%
%LPC*%
G36*
X412957Y463936D02*
X412957Y463936D01*
X409736Y465270D01*
X407270Y467736D01*
X405936Y470957D01*
X405936Y474443D01*
X407270Y477664D01*
X409736Y480130D01*
X412957Y481464D01*
X416443Y481464D01*
X419664Y480130D01*
X422130Y477664D01*
X423464Y474443D01*
X423464Y470957D01*
X422130Y467736D01*
X419664Y465270D01*
X416443Y463936D01*
X412957Y463936D01*
G37*
%LPD*%
%LPC*%
G36*
X387557Y463936D02*
X387557Y463936D01*
X384336Y465270D01*
X381870Y467736D01*
X380536Y470957D01*
X380536Y474443D01*
X381870Y477664D01*
X384336Y480130D01*
X387557Y481464D01*
X391043Y481464D01*
X394264Y480130D01*
X396730Y477664D01*
X398064Y474443D01*
X398064Y470957D01*
X396730Y467736D01*
X394264Y465270D01*
X391043Y463936D01*
X387557Y463936D01*
G37*
%LPD*%
%LPC*%
G36*
X362157Y463936D02*
X362157Y463936D01*
X358936Y465270D01*
X356470Y467736D01*
X355136Y470957D01*
X355136Y474443D01*
X356470Y477664D01*
X358936Y480130D01*
X362157Y481464D01*
X365643Y481464D01*
X368864Y480130D01*
X371330Y477664D01*
X372664Y474443D01*
X372664Y470957D01*
X371330Y467736D01*
X368864Y465270D01*
X365643Y463936D01*
X362157Y463936D01*
G37*
%LPD*%
%LPC*%
G36*
X336757Y463936D02*
X336757Y463936D01*
X333536Y465270D01*
X331070Y467736D01*
X329736Y470957D01*
X329736Y474443D01*
X331070Y477664D01*
X333536Y480130D01*
X336757Y481464D01*
X340243Y481464D01*
X343464Y480130D01*
X345930Y477664D01*
X347264Y474443D01*
X347264Y470957D01*
X345930Y467736D01*
X343464Y465270D01*
X340243Y463936D01*
X336757Y463936D01*
G37*
%LPD*%
%LPC*%
G36*
X311357Y463936D02*
X311357Y463936D01*
X308136Y465270D01*
X305670Y467736D01*
X304336Y470957D01*
X304336Y474443D01*
X305670Y477664D01*
X308136Y480130D01*
X311357Y481464D01*
X314843Y481464D01*
X318064Y480130D01*
X320530Y477664D01*
X321864Y474443D01*
X321864Y470957D01*
X320530Y467736D01*
X318064Y465270D01*
X314843Y463936D01*
X311357Y463936D01*
G37*
%LPD*%
%LPC*%
G36*
X285957Y438536D02*
X285957Y438536D01*
X282736Y439870D01*
X280270Y442336D01*
X278936Y445557D01*
X278936Y449043D01*
X280270Y452264D01*
X282736Y454730D01*
X285957Y456064D01*
X289443Y456064D01*
X292664Y454730D01*
X295130Y452264D01*
X296464Y449043D01*
X296464Y445557D01*
X295130Y442336D01*
X292664Y439870D01*
X289443Y438536D01*
X285957Y438536D01*
G37*
%LPD*%
%LPC*%
G36*
X260557Y438536D02*
X260557Y438536D01*
X257336Y439870D01*
X254870Y442336D01*
X253536Y445557D01*
X253536Y449043D01*
X254870Y452264D01*
X257336Y454730D01*
X260557Y456064D01*
X264043Y456064D01*
X267264Y454730D01*
X269730Y452264D01*
X271064Y449043D01*
X271064Y445557D01*
X269730Y442336D01*
X267264Y439870D01*
X264043Y438536D01*
X260557Y438536D01*
G37*
%LPD*%
%LPC*%
G36*
X692357Y438536D02*
X692357Y438536D01*
X689136Y439870D01*
X686670Y442336D01*
X685336Y445557D01*
X685336Y449043D01*
X686670Y452264D01*
X689136Y454730D01*
X692357Y456064D01*
X695843Y456064D01*
X699064Y454730D01*
X701530Y452264D01*
X702864Y449043D01*
X702864Y445557D01*
X701530Y442336D01*
X699064Y439870D01*
X695843Y438536D01*
X692357Y438536D01*
G37*
%LPD*%
%LPC*%
G36*
X666957Y438536D02*
X666957Y438536D01*
X663736Y439870D01*
X661270Y442336D01*
X659936Y445557D01*
X659936Y449043D01*
X661270Y452264D01*
X663736Y454730D01*
X666957Y456064D01*
X670443Y456064D01*
X673664Y454730D01*
X676130Y452264D01*
X677464Y449043D01*
X677464Y445557D01*
X676130Y442336D01*
X673664Y439870D01*
X670443Y438536D01*
X666957Y438536D01*
G37*
%LPD*%
%LPC*%
G36*
X641557Y438536D02*
X641557Y438536D01*
X638336Y439870D01*
X635870Y442336D01*
X634536Y445557D01*
X634536Y449043D01*
X635870Y452264D01*
X638336Y454730D01*
X641557Y456064D01*
X645043Y456064D01*
X648264Y454730D01*
X650730Y452264D01*
X652064Y449043D01*
X652064Y445557D01*
X650730Y442336D01*
X648264Y439870D01*
X645043Y438536D01*
X641557Y438536D01*
G37*
%LPD*%
%LPC*%
G36*
X616157Y438536D02*
X616157Y438536D01*
X612936Y439870D01*
X610470Y442336D01*
X609136Y445557D01*
X609136Y449043D01*
X610470Y452264D01*
X612936Y454730D01*
X616157Y456064D01*
X619643Y456064D01*
X622864Y454730D01*
X625330Y452264D01*
X626664Y449043D01*
X626664Y445557D01*
X625330Y442336D01*
X622864Y439870D01*
X619643Y438536D01*
X616157Y438536D01*
G37*
%LPD*%
%LPC*%
G36*
X590757Y438536D02*
X590757Y438536D01*
X587536Y439870D01*
X585070Y442336D01*
X583736Y445557D01*
X583736Y449043D01*
X585070Y452264D01*
X587536Y454730D01*
X590757Y456064D01*
X594243Y456064D01*
X597464Y454730D01*
X599930Y452264D01*
X601264Y449043D01*
X601264Y445557D01*
X599930Y442336D01*
X597464Y439870D01*
X594243Y438536D01*
X590757Y438536D01*
G37*
%LPD*%
%LPC*%
G36*
X565357Y438536D02*
X565357Y438536D01*
X562136Y439870D01*
X559670Y442336D01*
X558336Y445557D01*
X558336Y449043D01*
X559670Y452264D01*
X562136Y454730D01*
X565357Y456064D01*
X568843Y456064D01*
X572064Y454730D01*
X574530Y452264D01*
X575864Y449043D01*
X575864Y445557D01*
X574530Y442336D01*
X572064Y439870D01*
X568843Y438536D01*
X565357Y438536D01*
G37*
%LPD*%
%LPC*%
G36*
X539957Y438536D02*
X539957Y438536D01*
X536736Y439870D01*
X534270Y442336D01*
X532936Y445557D01*
X532936Y449043D01*
X534270Y452264D01*
X536736Y454730D01*
X539957Y456064D01*
X543443Y456064D01*
X546664Y454730D01*
X549130Y452264D01*
X550464Y449043D01*
X550464Y445557D01*
X549130Y442336D01*
X546664Y439870D01*
X543443Y438536D01*
X539957Y438536D01*
G37*
%LPD*%
%LPC*%
G36*
X514557Y438536D02*
X514557Y438536D01*
X511336Y439870D01*
X508870Y442336D01*
X507536Y445557D01*
X507536Y449043D01*
X508870Y452264D01*
X511336Y454730D01*
X514557Y456064D01*
X518043Y456064D01*
X521264Y454730D01*
X523730Y452264D01*
X525064Y449043D01*
X525064Y445557D01*
X523730Y442336D01*
X521264Y439870D01*
X518043Y438536D01*
X514557Y438536D01*
G37*
%LPD*%
%LPC*%
G36*
X489157Y438536D02*
X489157Y438536D01*
X485936Y439870D01*
X483470Y442336D01*
X482136Y445557D01*
X482136Y449043D01*
X483470Y452264D01*
X485936Y454730D01*
X489157Y456064D01*
X492643Y456064D01*
X495864Y454730D01*
X498330Y452264D01*
X499664Y449043D01*
X499664Y445557D01*
X498330Y442336D01*
X495864Y439870D01*
X492643Y438536D01*
X489157Y438536D01*
G37*
%LPD*%
%LPC*%
G36*
X463757Y438536D02*
X463757Y438536D01*
X460536Y439870D01*
X458070Y442336D01*
X456736Y445557D01*
X456736Y449043D01*
X458070Y452264D01*
X460536Y454730D01*
X463757Y456064D01*
X467243Y456064D01*
X470464Y454730D01*
X472930Y452264D01*
X474264Y449043D01*
X474264Y445557D01*
X472930Y442336D01*
X470464Y439870D01*
X467243Y438536D01*
X463757Y438536D01*
G37*
%LPD*%
%LPC*%
G36*
X412957Y438536D02*
X412957Y438536D01*
X409736Y439870D01*
X407270Y442336D01*
X405936Y445557D01*
X405936Y449043D01*
X407270Y452264D01*
X409736Y454730D01*
X412957Y456064D01*
X416443Y456064D01*
X419664Y454730D01*
X422130Y452264D01*
X423464Y449043D01*
X423464Y445557D01*
X422130Y442336D01*
X419664Y439870D01*
X416443Y438536D01*
X412957Y438536D01*
G37*
%LPD*%
%LPC*%
G36*
X387557Y438536D02*
X387557Y438536D01*
X384336Y439870D01*
X381870Y442336D01*
X380536Y445557D01*
X380536Y449043D01*
X381870Y452264D01*
X384336Y454730D01*
X387557Y456064D01*
X391043Y456064D01*
X394264Y454730D01*
X396730Y452264D01*
X398064Y449043D01*
X398064Y445557D01*
X396730Y442336D01*
X394264Y439870D01*
X391043Y438536D01*
X387557Y438536D01*
G37*
%LPD*%
%LPC*%
G36*
X362157Y438536D02*
X362157Y438536D01*
X358936Y439870D01*
X356470Y442336D01*
X355136Y445557D01*
X355136Y449043D01*
X356470Y452264D01*
X358936Y454730D01*
X362157Y456064D01*
X365643Y456064D01*
X368864Y454730D01*
X371330Y452264D01*
X372664Y449043D01*
X372664Y445557D01*
X371330Y442336D01*
X368864Y439870D01*
X365643Y438536D01*
X362157Y438536D01*
G37*
%LPD*%
%LPC*%
G36*
X336757Y438536D02*
X336757Y438536D01*
X333536Y439870D01*
X331070Y442336D01*
X329736Y445557D01*
X329736Y449043D01*
X331070Y452264D01*
X333536Y454730D01*
X336757Y456064D01*
X340243Y456064D01*
X343464Y454730D01*
X345930Y452264D01*
X347264Y449043D01*
X347264Y445557D01*
X345930Y442336D01*
X343464Y439870D01*
X340243Y438536D01*
X336757Y438536D01*
G37*
%LPD*%
%LPC*%
G36*
X311357Y438536D02*
X311357Y438536D01*
X308136Y439870D01*
X305670Y442336D01*
X304336Y445557D01*
X304336Y449043D01*
X305670Y452264D01*
X308136Y454730D01*
X311357Y456064D01*
X314843Y456064D01*
X318064Y454730D01*
X320530Y452264D01*
X321864Y449043D01*
X321864Y445557D01*
X320530Y442336D01*
X318064Y439870D01*
X314843Y438536D01*
X311357Y438536D01*
G37*
%LPD*%
%LPC*%
G36*
X616157Y209936D02*
X616157Y209936D01*
X612936Y211270D01*
X610470Y213736D01*
X609136Y216957D01*
X609136Y220443D01*
X610470Y223664D01*
X612936Y226130D01*
X616157Y227464D01*
X619643Y227464D01*
X622864Y226130D01*
X625330Y223664D01*
X626664Y220443D01*
X626664Y216957D01*
X625330Y213736D01*
X622864Y211270D01*
X619643Y209936D01*
X616157Y209936D01*
G37*
%LPD*%
%LPC*%
G36*
X590757Y209936D02*
X590757Y209936D01*
X587536Y211270D01*
X585070Y213736D01*
X583736Y216957D01*
X583736Y220443D01*
X585070Y223664D01*
X587536Y226130D01*
X590757Y227464D01*
X594243Y227464D01*
X597464Y226130D01*
X599930Y223664D01*
X601264Y220443D01*
X601264Y216957D01*
X599930Y213736D01*
X597464Y211270D01*
X594243Y209936D01*
X590757Y209936D01*
G37*
%LPD*%
%LPC*%
G36*
X692357Y209936D02*
X692357Y209936D01*
X689136Y211270D01*
X686670Y213736D01*
X685336Y216957D01*
X685336Y220443D01*
X686670Y223664D01*
X689136Y226130D01*
X692357Y227464D01*
X695843Y227464D01*
X699064Y226130D01*
X701530Y223664D01*
X702864Y220443D01*
X702864Y216957D01*
X701530Y213736D01*
X699064Y211270D01*
X695843Y209936D01*
X692357Y209936D01*
G37*
%LPD*%
%LPC*%
G36*
X666957Y209936D02*
X666957Y209936D01*
X663736Y211270D01*
X661270Y213736D01*
X659936Y216957D01*
X659936Y220443D01*
X661270Y223664D01*
X663736Y226130D01*
X666957Y227464D01*
X670443Y227464D01*
X673664Y226130D01*
X676130Y223664D01*
X677464Y220443D01*
X677464Y216957D01*
X676130Y213736D01*
X673664Y211270D01*
X670443Y209936D01*
X666957Y209936D01*
G37*
%LPD*%
%LPC*%
G36*
X641557Y209936D02*
X641557Y209936D01*
X638336Y211270D01*
X635870Y213736D01*
X634536Y216957D01*
X634536Y220443D01*
X635870Y223664D01*
X638336Y226130D01*
X641557Y227464D01*
X645043Y227464D01*
X648264Y226130D01*
X650730Y223664D01*
X652064Y220443D01*
X652064Y216957D01*
X650730Y213736D01*
X648264Y211270D01*
X645043Y209936D01*
X641557Y209936D01*
G37*
%LPD*%
%LPC*%
G36*
X362157Y209936D02*
X362157Y209936D01*
X358936Y211270D01*
X356470Y213736D01*
X355136Y216957D01*
X355136Y220443D01*
X356470Y223664D01*
X358936Y226130D01*
X362157Y227464D01*
X365643Y227464D01*
X368864Y226130D01*
X371330Y223664D01*
X372664Y220443D01*
X372664Y216957D01*
X371330Y213736D01*
X368864Y211270D01*
X365643Y209936D01*
X362157Y209936D01*
G37*
%LPD*%
%LPC*%
G36*
X336757Y209936D02*
X336757Y209936D01*
X333536Y211270D01*
X331070Y213736D01*
X329736Y216957D01*
X329736Y220443D01*
X331070Y223664D01*
X333536Y226130D01*
X336757Y227464D01*
X340243Y227464D01*
X343464Y226130D01*
X345930Y223664D01*
X347264Y220443D01*
X347264Y216957D01*
X345930Y213736D01*
X343464Y211270D01*
X340243Y209936D01*
X336757Y209936D01*
G37*
%LPD*%
%LPC*%
G36*
X565357Y209936D02*
X565357Y209936D01*
X562136Y211270D01*
X559670Y213736D01*
X558336Y216957D01*
X558336Y220443D01*
X559670Y223664D01*
X562136Y226130D01*
X565357Y227464D01*
X568843Y227464D01*
X572064Y226130D01*
X574530Y223664D01*
X575864Y220443D01*
X575864Y216957D01*
X574530Y213736D01*
X572064Y211270D01*
X568843Y209936D01*
X565357Y209936D01*
G37*
%LPD*%
%LPC*%
G36*
X539957Y209936D02*
X539957Y209936D01*
X536736Y211270D01*
X534270Y213736D01*
X532936Y216957D01*
X532936Y220443D01*
X534270Y223664D01*
X536736Y226130D01*
X539957Y227464D01*
X543443Y227464D01*
X546664Y226130D01*
X549130Y223664D01*
X550464Y220443D01*
X550464Y216957D01*
X549130Y213736D01*
X546664Y211270D01*
X543443Y209936D01*
X539957Y209936D01*
G37*
%LPD*%
%LPC*%
G36*
X514557Y209936D02*
X514557Y209936D01*
X511336Y211270D01*
X508870Y213736D01*
X507536Y216957D01*
X507536Y220443D01*
X508870Y223664D01*
X511336Y226130D01*
X514557Y227464D01*
X518043Y227464D01*
X521264Y226130D01*
X523730Y223664D01*
X525064Y220443D01*
X525064Y216957D01*
X523730Y213736D01*
X521264Y211270D01*
X518043Y209936D01*
X514557Y209936D01*
G37*
%LPD*%
%LPC*%
G36*
X489157Y209936D02*
X489157Y209936D01*
X485936Y211270D01*
X483470Y213736D01*
X482136Y216957D01*
X482136Y220443D01*
X483470Y223664D01*
X485936Y226130D01*
X489157Y227464D01*
X492643Y227464D01*
X495864Y226130D01*
X498330Y223664D01*
X499664Y220443D01*
X499664Y216957D01*
X498330Y213736D01*
X495864Y211270D01*
X492643Y209936D01*
X489157Y209936D01*
G37*
%LPD*%
%LPC*%
G36*
X463757Y209936D02*
X463757Y209936D01*
X460536Y211270D01*
X458070Y213736D01*
X456736Y216957D01*
X456736Y220443D01*
X458070Y223664D01*
X460536Y226130D01*
X463757Y227464D01*
X467243Y227464D01*
X470464Y226130D01*
X472930Y223664D01*
X474264Y220443D01*
X474264Y216957D01*
X472930Y213736D01*
X470464Y211270D01*
X467243Y209936D01*
X463757Y209936D01*
G37*
%LPD*%
%LPC*%
G36*
X412957Y209936D02*
X412957Y209936D01*
X409736Y211270D01*
X407270Y213736D01*
X405936Y216957D01*
X405936Y220443D01*
X407270Y223664D01*
X409736Y226130D01*
X412957Y227464D01*
X416443Y227464D01*
X419664Y226130D01*
X422130Y223664D01*
X423464Y220443D01*
X423464Y216957D01*
X422130Y213736D01*
X419664Y211270D01*
X416443Y209936D01*
X412957Y209936D01*
G37*
%LPD*%
%LPC*%
G36*
X387557Y209936D02*
X387557Y209936D01*
X384336Y211270D01*
X381870Y213736D01*
X380536Y216957D01*
X380536Y220443D01*
X381870Y223664D01*
X384336Y226130D01*
X387557Y227464D01*
X391043Y227464D01*
X394264Y226130D01*
X396730Y223664D01*
X398064Y220443D01*
X398064Y216957D01*
X396730Y213736D01*
X394264Y211270D01*
X391043Y209936D01*
X387557Y209936D01*
G37*
%LPD*%
%LPC*%
G36*
X311357Y209936D02*
X311357Y209936D01*
X308136Y211270D01*
X305670Y213736D01*
X304336Y216957D01*
X304336Y220443D01*
X305670Y223664D01*
X308136Y226130D01*
X311357Y227464D01*
X314843Y227464D01*
X318064Y226130D01*
X320530Y223664D01*
X321864Y220443D01*
X321864Y216957D01*
X320530Y213736D01*
X318064Y211270D01*
X314843Y209936D01*
X311357Y209936D01*
G37*
%LPD*%
%LPC*%
G36*
X285957Y209936D02*
X285957Y209936D01*
X282736Y211270D01*
X280270Y213736D01*
X278936Y216957D01*
X278936Y220443D01*
X280270Y223664D01*
X282736Y226130D01*
X285957Y227464D01*
X289443Y227464D01*
X292664Y226130D01*
X295130Y223664D01*
X296464Y220443D01*
X296464Y216957D01*
X295130Y213736D01*
X292664Y211270D01*
X289443Y209936D01*
X285957Y209936D01*
G37*
%LPD*%
%LPC*%
G36*
X260557Y209936D02*
X260557Y209936D01*
X257336Y211270D01*
X254870Y213736D01*
X253536Y216957D01*
X253536Y220443D01*
X254870Y223664D01*
X257336Y226130D01*
X260557Y227464D01*
X264043Y227464D01*
X267264Y226130D01*
X269730Y223664D01*
X271064Y220443D01*
X271064Y216957D01*
X269730Y213736D01*
X267264Y211270D01*
X264043Y209936D01*
X260557Y209936D01*
G37*
%LPD*%
%LPC*%
G36*
X285957Y184536D02*
X285957Y184536D01*
X282736Y185870D01*
X280270Y188336D01*
X278936Y191557D01*
X278936Y195043D01*
X280270Y198264D01*
X282736Y200730D01*
X285957Y202064D01*
X289443Y202064D01*
X292664Y200730D01*
X295130Y198264D01*
X296464Y195043D01*
X296464Y191557D01*
X295130Y188336D01*
X292664Y185870D01*
X289443Y184536D01*
X285957Y184536D01*
G37*
%LPD*%
%LPC*%
G36*
X260557Y184536D02*
X260557Y184536D01*
X257336Y185870D01*
X254870Y188336D01*
X253536Y191557D01*
X253536Y195043D01*
X254870Y198264D01*
X257336Y200730D01*
X260557Y202064D01*
X264043Y202064D01*
X267264Y200730D01*
X269730Y198264D01*
X271064Y195043D01*
X271064Y191557D01*
X269730Y188336D01*
X267264Y185870D01*
X264043Y184536D01*
X260557Y184536D01*
G37*
%LPD*%
%LPC*%
G36*
X692357Y184536D02*
X692357Y184536D01*
X689136Y185870D01*
X686670Y188336D01*
X685336Y191557D01*
X685336Y195043D01*
X686670Y198264D01*
X689136Y200730D01*
X692357Y202064D01*
X695843Y202064D01*
X699064Y200730D01*
X701530Y198264D01*
X702864Y195043D01*
X702864Y191557D01*
X701530Y188336D01*
X699064Y185870D01*
X695843Y184536D01*
X692357Y184536D01*
G37*
%LPD*%
%LPC*%
G36*
X900081Y1076959D02*
X900081Y1076959D01*
X897089Y1078199D01*
X894799Y1080489D01*
X893559Y1083481D01*
X893559Y1086719D01*
X894799Y1089711D01*
X897089Y1092001D01*
X900081Y1093241D01*
X903319Y1093241D01*
X906311Y1092001D01*
X908601Y1089711D01*
X909841Y1086719D01*
X909841Y1083481D01*
X908601Y1080489D01*
X906311Y1078199D01*
X903319Y1076959D01*
X900081Y1076959D01*
G37*
%LPD*%
%LPC*%
G36*
X792593Y133885D02*
X792593Y133885D01*
X790456Y134770D01*
X788820Y136406D01*
X787935Y138543D01*
X787935Y140857D01*
X788820Y142994D01*
X790456Y144630D01*
X792593Y145515D01*
X794907Y145515D01*
X797044Y144630D01*
X798680Y142994D01*
X799565Y140857D01*
X799565Y138543D01*
X798680Y136406D01*
X797044Y134770D01*
X794907Y133885D01*
X792593Y133885D01*
G37*
%LPD*%
%LPC*%
G36*
X182993Y838735D02*
X182993Y838735D01*
X180856Y839620D01*
X179220Y841256D01*
X178335Y843393D01*
X178335Y845707D01*
X179220Y847844D01*
X180856Y849480D01*
X182993Y850365D01*
X185307Y850365D01*
X187444Y849480D01*
X189080Y847844D01*
X189965Y845707D01*
X189965Y843393D01*
X189080Y841256D01*
X187444Y839620D01*
X185307Y838735D01*
X182993Y838735D01*
G37*
%LPD*%
%LPC*%
G36*
X192039Y117239D02*
X192039Y117239D01*
X192039Y126792D01*
X192390Y126737D01*
X194237Y126137D01*
X195968Y125255D01*
X196825Y124632D01*
X197539Y124113D01*
X198913Y122739D01*
X200055Y121168D01*
X200937Y119437D01*
X201537Y117590D01*
X201592Y117239D01*
X192039Y117239D01*
G37*
%LPD*%
%LPC*%
G36*
X67039Y117239D02*
X67039Y117239D01*
X67039Y126792D01*
X67390Y126737D01*
X69237Y126137D01*
X70968Y125255D01*
X71825Y124632D01*
X72539Y124113D01*
X73913Y122739D01*
X75055Y121168D01*
X75937Y119437D01*
X76537Y117590D01*
X76592Y117239D01*
X67039Y117239D01*
G37*
%LPD*%
%LPC*%
G36*
X67039Y112161D02*
X67039Y112161D01*
X76592Y112161D01*
X76537Y111810D01*
X75937Y109963D01*
X75055Y108232D01*
X73913Y106661D01*
X72539Y105287D01*
X70968Y104145D01*
X69237Y103263D01*
X67390Y102663D01*
X67039Y102608D01*
X67039Y112161D01*
G37*
%LPD*%
%LPC*%
G36*
X192039Y112161D02*
X192039Y112161D01*
X201592Y112161D01*
X201537Y111810D01*
X200937Y109963D01*
X200055Y108232D01*
X198913Y106661D01*
X197539Y105287D01*
X195968Y104145D01*
X194237Y103263D01*
X192390Y102663D01*
X192039Y102608D01*
X192039Y112161D01*
G37*
%LPD*%
%LPC*%
G36*
X177408Y117239D02*
X177408Y117239D01*
X177463Y117590D01*
X178063Y119437D01*
X178945Y121168D01*
X180087Y122739D01*
X181461Y124113D01*
X183032Y125255D01*
X184763Y126137D01*
X186610Y126737D01*
X186961Y126792D01*
X186961Y117239D01*
X177408Y117239D01*
G37*
%LPD*%
%LPC*%
G36*
X52408Y117239D02*
X52408Y117239D01*
X52463Y117590D01*
X53063Y119437D01*
X53945Y121168D01*
X55087Y122739D01*
X56461Y124113D01*
X58032Y125255D01*
X59763Y126137D01*
X61610Y126737D01*
X61961Y126792D01*
X61961Y117239D01*
X52408Y117239D01*
G37*
%LPD*%
%LPC*%
G36*
X186610Y102663D02*
X186610Y102663D01*
X184763Y103263D01*
X183032Y104145D01*
X181461Y105287D01*
X180087Y106661D01*
X178945Y108232D01*
X178063Y109963D01*
X177463Y111810D01*
X177408Y112161D01*
X186961Y112161D01*
X186961Y102608D01*
X186610Y102663D01*
G37*
%LPD*%
%LPC*%
G36*
X61610Y102663D02*
X61610Y102663D01*
X59763Y103263D01*
X58032Y104145D01*
X56461Y105287D01*
X55087Y106661D01*
X53945Y108232D01*
X53063Y109963D01*
X52463Y111810D01*
X52408Y112161D01*
X61961Y112161D01*
X61961Y102608D01*
X61610Y102663D01*
G37*
%LPD*%
%LPC*%
G36*
X474979Y1196339D02*
X474979Y1196339D01*
X474979Y1203124D01*
X476145Y1202746D01*
X477499Y1202056D01*
X478728Y1201163D01*
X479803Y1200088D01*
X480696Y1198859D01*
X481386Y1197505D01*
X481764Y1196339D01*
X474979Y1196339D01*
G37*
%LPD*%
%LPC*%
G36*
X463116Y1196339D02*
X463116Y1196339D01*
X463494Y1197505D01*
X464184Y1198859D01*
X465077Y1200088D01*
X466152Y1201163D01*
X467381Y1202056D01*
X468735Y1202746D01*
X469901Y1203124D01*
X469901Y1196339D01*
X463116Y1196339D01*
G37*
%LPD*%
%LPC*%
G36*
X474979Y1191261D02*
X474979Y1191261D01*
X481764Y1191261D01*
X481386Y1190095D01*
X480696Y1188741D01*
X479803Y1187512D01*
X478728Y1186437D01*
X477499Y1185544D01*
X476145Y1184854D01*
X474979Y1184476D01*
X474979Y1191261D01*
G37*
%LPD*%
%LPC*%
G36*
X468735Y1184854D02*
X468735Y1184854D01*
X467381Y1185544D01*
X466152Y1186437D01*
X465077Y1187512D01*
X464184Y1188741D01*
X463494Y1190095D01*
X463116Y1191261D01*
X469901Y1191261D01*
X469901Y1184476D01*
X468735Y1184854D01*
G37*
%LPD*%
%LPC*%
G36*
X175259Y889019D02*
X175259Y889019D01*
X175259Y895740D01*
X176422Y895362D01*
X177761Y894680D01*
X178975Y893797D01*
X180037Y892735D01*
X180920Y891521D01*
X181602Y890182D01*
X181980Y889019D01*
X175259Y889019D01*
G37*
%LPD*%
%LPC*%
G36*
X276859Y889019D02*
X276859Y889019D01*
X276859Y895740D01*
X278022Y895362D01*
X279361Y894680D01*
X280575Y893797D01*
X281637Y892735D01*
X282520Y891521D01*
X283202Y890182D01*
X283580Y889019D01*
X276859Y889019D01*
G37*
%LPD*%
%LPC*%
G36*
X530859Y889019D02*
X530859Y889019D01*
X530859Y895740D01*
X532022Y895362D01*
X533361Y894680D01*
X534575Y893797D01*
X535637Y892735D01*
X536520Y891521D01*
X537202Y890182D01*
X537580Y889019D01*
X530859Y889019D01*
G37*
%LPD*%
%LPC*%
G36*
X556259Y889019D02*
X556259Y889019D01*
X556259Y895740D01*
X557422Y895362D01*
X558761Y894680D01*
X559975Y893797D01*
X561037Y892735D01*
X561920Y891521D01*
X562602Y890182D01*
X562980Y889019D01*
X556259Y889019D01*
G37*
%LPD*%
%LPC*%
G36*
X530859Y884021D02*
X530859Y884021D01*
X537580Y884021D01*
X537202Y882858D01*
X536520Y881519D01*
X535637Y880305D01*
X534575Y879243D01*
X533361Y878360D01*
X532022Y877678D01*
X530859Y877300D01*
X530859Y884021D01*
G37*
%LPD*%
%LPC*%
G36*
X265140Y889019D02*
X265140Y889019D01*
X265518Y890182D01*
X266200Y891521D01*
X267083Y892735D01*
X268145Y893797D01*
X269359Y894680D01*
X270698Y895362D01*
X271861Y895740D01*
X271861Y889019D01*
X265140Y889019D01*
G37*
%LPD*%
%LPC*%
G36*
X519140Y889019D02*
X519140Y889019D01*
X519518Y890182D01*
X520200Y891521D01*
X521083Y892735D01*
X522145Y893797D01*
X523359Y894680D01*
X524698Y895362D01*
X525861Y895740D01*
X525861Y889019D01*
X519140Y889019D01*
G37*
%LPD*%
%LPC*%
G36*
X163540Y889019D02*
X163540Y889019D01*
X163918Y890182D01*
X164600Y891521D01*
X165483Y892735D01*
X166545Y893797D01*
X167759Y894680D01*
X169098Y895362D01*
X170261Y895740D01*
X170261Y889019D01*
X163540Y889019D01*
G37*
%LPD*%
%LPC*%
G36*
X175259Y884021D02*
X175259Y884021D01*
X181980Y884021D01*
X181602Y882858D01*
X180920Y881519D01*
X180037Y880305D01*
X178975Y879243D01*
X177761Y878360D01*
X176422Y877678D01*
X175259Y877300D01*
X175259Y884021D01*
G37*
%LPD*%
%LPC*%
G36*
X276859Y884021D02*
X276859Y884021D01*
X283580Y884021D01*
X283202Y882858D01*
X282520Y881519D01*
X281637Y880305D01*
X280575Y879243D01*
X279361Y878360D01*
X278022Y877678D01*
X276859Y877300D01*
X276859Y884021D01*
G37*
%LPD*%
%LPC*%
G36*
X556259Y884021D02*
X556259Y884021D01*
X562980Y884021D01*
X562602Y882858D01*
X561920Y881519D01*
X561037Y880305D01*
X559975Y879243D01*
X558761Y878360D01*
X557422Y877678D01*
X556259Y877300D01*
X556259Y884021D01*
G37*
%LPD*%
%LPC*%
G36*
X544540Y889019D02*
X544540Y889019D01*
X544918Y890182D01*
X545600Y891521D01*
X546483Y892735D01*
X547545Y893797D01*
X548759Y894680D01*
X550098Y895362D01*
X551261Y895740D01*
X551261Y889019D01*
X544540Y889019D01*
G37*
%LPD*%
%LPC*%
G36*
X524698Y877678D02*
X524698Y877678D01*
X523359Y878360D01*
X522145Y879243D01*
X521083Y880305D01*
X520200Y881519D01*
X519518Y882858D01*
X519140Y884021D01*
X525861Y884021D01*
X525861Y877300D01*
X524698Y877678D01*
G37*
%LPD*%
%LPC*%
G36*
X169098Y877678D02*
X169098Y877678D01*
X167759Y878360D01*
X166545Y879243D01*
X165483Y880305D01*
X164600Y881519D01*
X163918Y882858D01*
X163540Y884021D01*
X170261Y884021D01*
X170261Y877300D01*
X169098Y877678D01*
G37*
%LPD*%
%LPC*%
G36*
X270698Y877678D02*
X270698Y877678D01*
X269359Y878360D01*
X268145Y879243D01*
X267083Y880305D01*
X266200Y881519D01*
X265518Y882858D01*
X265140Y884021D01*
X271861Y884021D01*
X271861Y877300D01*
X270698Y877678D01*
G37*
%LPD*%
%LPC*%
G36*
X550098Y877678D02*
X550098Y877678D01*
X548759Y878360D01*
X547545Y879243D01*
X546483Y880305D01*
X545600Y881519D01*
X544918Y882858D01*
X544540Y884021D01*
X551261Y884021D01*
X551261Y877300D01*
X550098Y877678D01*
G37*
%LPD*%
%LPC*%
G36*
X878522Y192722D02*
X878522Y192722D01*
X878522Y198993D01*
X878856Y198927D01*
X880451Y198266D01*
X881887Y197307D01*
X883107Y196087D01*
X884066Y194651D01*
X884727Y193056D01*
X884793Y192722D01*
X878522Y192722D01*
G37*
%LPD*%
%LPC*%
G36*
X815022Y167322D02*
X815022Y167322D01*
X815022Y173593D01*
X815356Y173527D01*
X816951Y172866D01*
X818387Y171907D01*
X819607Y170687D01*
X820566Y169251D01*
X821227Y167656D01*
X821293Y167322D01*
X815022Y167322D01*
G37*
%LPD*%
%LPC*%
G36*
X442322Y449522D02*
X442322Y449522D01*
X442322Y455793D01*
X442656Y455727D01*
X444251Y455066D01*
X445687Y454107D01*
X446907Y452887D01*
X447866Y451451D01*
X448527Y449856D01*
X448593Y449522D01*
X442322Y449522D01*
G37*
%LPD*%
%LPC*%
G36*
X442322Y220922D02*
X442322Y220922D01*
X442322Y227193D01*
X442656Y227127D01*
X444251Y226466D01*
X445687Y225507D01*
X446907Y224287D01*
X447866Y222851D01*
X448527Y221256D01*
X448593Y220922D01*
X442322Y220922D01*
G37*
%LPD*%
%LPC*%
G36*
X867807Y192722D02*
X867807Y192722D01*
X867873Y193056D01*
X868534Y194651D01*
X869493Y196087D01*
X870713Y197307D01*
X872149Y198266D01*
X873744Y198927D01*
X874078Y198993D01*
X874078Y192722D01*
X867807Y192722D01*
G37*
%LPD*%
%LPC*%
G36*
X878522Y188278D02*
X878522Y188278D01*
X884793Y188278D01*
X884727Y187944D01*
X884066Y186349D01*
X883107Y184913D01*
X881887Y183693D01*
X880451Y182734D01*
X878856Y182073D01*
X878522Y182007D01*
X878522Y188278D01*
G37*
%LPD*%
%LPC*%
G36*
X431607Y449522D02*
X431607Y449522D01*
X431673Y449856D01*
X432334Y451451D01*
X433293Y452887D01*
X434513Y454107D01*
X435949Y455066D01*
X437544Y455727D01*
X437878Y455793D01*
X437878Y449522D01*
X431607Y449522D01*
G37*
%LPD*%
%LPC*%
G36*
X804307Y167322D02*
X804307Y167322D01*
X804373Y167656D01*
X805034Y169251D01*
X805993Y170687D01*
X807213Y171907D01*
X808649Y172866D01*
X810244Y173527D01*
X810578Y173593D01*
X810578Y167322D01*
X804307Y167322D01*
G37*
%LPD*%
%LPC*%
G36*
X815022Y162878D02*
X815022Y162878D01*
X821293Y162878D01*
X821227Y162544D01*
X820566Y160949D01*
X819607Y159513D01*
X818387Y158293D01*
X816951Y157334D01*
X815356Y156673D01*
X815022Y156607D01*
X815022Y162878D01*
G37*
%LPD*%
%LPC*%
G36*
X442322Y445078D02*
X442322Y445078D01*
X448593Y445078D01*
X448527Y444744D01*
X447866Y443149D01*
X446907Y441713D01*
X445687Y440493D01*
X444251Y439534D01*
X442656Y438873D01*
X442322Y438807D01*
X442322Y445078D01*
G37*
%LPD*%
%LPC*%
G36*
X442322Y216478D02*
X442322Y216478D01*
X448593Y216478D01*
X448527Y216144D01*
X447866Y214549D01*
X446907Y213113D01*
X445687Y211893D01*
X444251Y210934D01*
X442656Y210273D01*
X442322Y210207D01*
X442322Y216478D01*
G37*
%LPD*%
%LPC*%
G36*
X431607Y220922D02*
X431607Y220922D01*
X431673Y221256D01*
X432334Y222851D01*
X433293Y224287D01*
X434513Y225507D01*
X435949Y226466D01*
X437544Y227127D01*
X437878Y227193D01*
X437878Y220922D01*
X431607Y220922D01*
G37*
%LPD*%
%LPC*%
G36*
X810244Y156673D02*
X810244Y156673D01*
X808649Y157334D01*
X807213Y158293D01*
X805993Y159513D01*
X805034Y160949D01*
X804373Y162544D01*
X804307Y162878D01*
X810578Y162878D01*
X810578Y156607D01*
X810244Y156673D01*
G37*
%LPD*%
%LPC*%
G36*
X437544Y438873D02*
X437544Y438873D01*
X435949Y439534D01*
X434513Y440493D01*
X433293Y441713D01*
X432334Y443149D01*
X431673Y444744D01*
X431607Y445078D01*
X437878Y445078D01*
X437878Y438807D01*
X437544Y438873D01*
G37*
%LPD*%
%LPC*%
G36*
X437544Y210273D02*
X437544Y210273D01*
X435949Y210934D01*
X434513Y211893D01*
X433293Y213113D01*
X432334Y214549D01*
X431673Y216144D01*
X431607Y216478D01*
X437878Y216478D01*
X437878Y210207D01*
X437544Y210273D01*
G37*
%LPD*%
%LPC*%
G36*
X873744Y182073D02*
X873744Y182073D01*
X872149Y182734D01*
X870713Y183693D01*
X869493Y184913D01*
X868534Y186349D01*
X867873Y187944D01*
X867807Y188278D01*
X874078Y188278D01*
X874078Y182007D01*
X873744Y182073D01*
G37*
%LPD*%
%LPC*%
G36*
X903699Y1152099D02*
X903699Y1152099D01*
X903699Y1158003D01*
X904075Y1157928D01*
X905556Y1157314D01*
X906889Y1156423D01*
X908023Y1155289D01*
X908914Y1153956D01*
X909528Y1152475D01*
X909603Y1152099D01*
X903699Y1152099D01*
G37*
%LPD*%
%LPC*%
G36*
X893797Y1152099D02*
X893797Y1152099D01*
X893872Y1152475D01*
X894486Y1153956D01*
X895377Y1155289D01*
X896511Y1156423D01*
X897844Y1157314D01*
X899325Y1157928D01*
X899701Y1158003D01*
X899701Y1152099D01*
X893797Y1152099D01*
G37*
%LPD*%
%LPC*%
G36*
X903699Y1148101D02*
X903699Y1148101D01*
X909603Y1148101D01*
X909528Y1147725D01*
X908914Y1146244D01*
X908023Y1144911D01*
X906889Y1143777D01*
X905556Y1142886D01*
X904075Y1142272D01*
X903699Y1142197D01*
X903699Y1148101D01*
G37*
%LPD*%
%LPC*%
G36*
X899325Y1142272D02*
X899325Y1142272D01*
X897844Y1142886D01*
X896511Y1143777D01*
X895377Y1144911D01*
X894486Y1146244D01*
X893872Y1147725D01*
X893797Y1148101D01*
X899701Y1148101D01*
X899701Y1142197D01*
X899325Y1142272D01*
G37*
%LPD*%
%LPC*%
G36*
X189499Y114699D02*
X189499Y114699D01*
X189499Y114701D01*
X189501Y114701D01*
X189501Y114699D01*
X189499Y114699D01*
G37*
%LPD*%
%LPC*%
G36*
X64499Y114699D02*
X64499Y114699D01*
X64499Y114701D01*
X64501Y114701D01*
X64501Y114699D01*
X64499Y114699D01*
G37*
%LPD*%
%LPC*%
G36*
X472439Y1193799D02*
X472439Y1193799D01*
X472439Y1193801D01*
X472441Y1193801D01*
X472441Y1193799D01*
X472439Y1193799D01*
G37*
%LPD*%
D10*
X523240Y1193800D03*
X497840Y1193800D03*
X472440Y1193800D03*
X447040Y1193800D03*
D11*
X876300Y190500D03*
X876300Y139700D03*
X812800Y190500D03*
X812800Y165100D03*
X812800Y139700D03*
D12*
X901700Y1150100D03*
X901700Y1085100D03*
D13*
X520300Y139700D03*
X495300Y139700D03*
X470300Y139700D03*
D14*
X189500Y164700D03*
X189500Y114700D03*
X64500Y114700D03*
X64500Y164700D03*
D11*
X262300Y472700D03*
X262300Y447300D03*
X287700Y472700D03*
X287700Y447300D03*
X313100Y472700D03*
X313100Y447300D03*
X338500Y472700D03*
X338500Y447300D03*
X363900Y472700D03*
X363900Y447300D03*
X389300Y472700D03*
X389300Y447300D03*
X414700Y472700D03*
X414700Y447300D03*
X440100Y472700D03*
X440100Y447300D03*
X465500Y472700D03*
X465500Y447300D03*
X490900Y472700D03*
X490900Y447300D03*
X516300Y472700D03*
X516300Y447300D03*
X541700Y472700D03*
X541700Y447300D03*
X567100Y472700D03*
X567100Y447300D03*
X592500Y472700D03*
X592500Y447300D03*
X617900Y472700D03*
X617900Y447300D03*
X643300Y472700D03*
X643300Y447300D03*
X668700Y472700D03*
X668700Y447300D03*
X694100Y472700D03*
X694100Y447300D03*
X262300Y218700D03*
X262300Y193300D03*
X287700Y218700D03*
X287700Y193300D03*
X313100Y218700D03*
X313100Y193300D03*
X338500Y218700D03*
X338500Y193300D03*
X363900Y218700D03*
X363900Y193300D03*
X389300Y218700D03*
X389300Y193300D03*
X414700Y218700D03*
X414700Y193300D03*
X440100Y218700D03*
X440100Y193300D03*
X465500Y218700D03*
X465500Y193300D03*
X490900Y218700D03*
X490900Y193300D03*
X516300Y218700D03*
X516300Y193300D03*
X541700Y218700D03*
X541700Y193300D03*
X567100Y218700D03*
X567100Y193300D03*
X592500Y218700D03*
X592500Y193300D03*
X617900Y218700D03*
X617900Y193300D03*
X643300Y218700D03*
X643300Y193300D03*
X668700Y218700D03*
X668700Y193300D03*
X694100Y218700D03*
X694100Y193300D03*
D13*
X172760Y886520D03*
X198160Y886520D03*
X223560Y886520D03*
X248960Y886520D03*
X274360Y886520D03*
X299760Y886520D03*
X325160Y886520D03*
X350560Y886520D03*
X375960Y886520D03*
X401360Y886520D03*
X426760Y886520D03*
X452160Y886520D03*
X477560Y886520D03*
X502960Y886520D03*
X528360Y886520D03*
X553760Y886520D03*
D15*
X38100Y38100D03*
X38100Y1231900D03*
X977900Y1231900D03*
X977900Y38100D03*
D16*
X793750Y165100D03*
X857250Y190500D03*
X889000Y1149350D03*
X63500Y698500D03*
D17*
X189500Y114700D02*
X189100Y114300D01*
X171450Y114300D01*
D16*
X171450Y114300D03*
X50800Y114300D03*
D17*
X158750Y872510D02*
X172760Y886520D01*
X158750Y872510D02*
X158750Y844550D01*
D16*
X158750Y844550D03*
X260350Y876300D03*
X514350Y876300D03*
X539750Y876300D03*
X793750Y139700D03*
D17*
X857250Y139700D02*
X876300Y139700D01*
D16*
X857250Y139700D03*
X184150Y844550D03*
X488950Y876300D03*
M02*
