M48
;GenerationSoftware,Autodesk,EAGLE,9.6.2*%
;CreationDate,2023-12-13T23:21:46Z*%
FMAT,2
ICI,OFF
METRIC,TZ,000.000
T10C0.350
T9C0.800
T8C0.889
T7C1.000
T6C1.016
T5C1.400
T4C2.000
T3C2.500
T2C2.800
T1C3.175
%
G90
M71
T1
X97790Y123190
X97790Y3810
X3810Y123190
X3810Y3810
T2
X11776Y57652
X11776Y88652
X86776Y88652
X86776Y57652
T3
X54530Y6970
X44530Y6970
T4
X26416Y119380
X26416Y96520
X70104Y96520
X70104Y119380
T5
X6450Y16470
X6450Y11470
X18950Y11470
X18950Y16470
T6
X47244Y119380
X44704Y119380
X52324Y119380
X49784Y119380
T7
X52836Y88652
X50296Y88652
X47756Y88652
X45216Y88652
X42676Y88652
X40136Y88652
X24896Y88652
X22356Y88652
X27436Y88652
X29976Y88652
X19816Y88652
X17276Y88652
X32516Y88652
X52030Y13970
X49530Y13970
X47030Y13970
X35056Y88652
X37596Y88652
X55376Y88652
T8
X81280Y16510
X26230Y47270
X26230Y44730
X28770Y47270
X28770Y44730
X31310Y47270
X31310Y44730
X33850Y47270
X33850Y44730
X36390Y47270
X36390Y44730
X38930Y47270
X38930Y44730
X41470Y47270
X41470Y44730
X44010Y47270
X44010Y44730
X46550Y47270
X46550Y44730
X49090Y47270
X49090Y44730
X51630Y47270
X51630Y44730
X54170Y47270
X54170Y44730
X56710Y47270
X81280Y13970
X59250Y47270
X59250Y44730
X61790Y47270
X61790Y44730
X64330Y47270
X64330Y44730
X66870Y47270
X66870Y44730
X69410Y47270
X69410Y44730
X26230Y21870
X26230Y19330
X28770Y21870
X28770Y19330
X31310Y21870
X31310Y19330
X33850Y21870
X33850Y19330
X36390Y21870
X36390Y19330
X38930Y21870
X38930Y19330
X41470Y21870
X41470Y19330
X44010Y21870
X44010Y19330
X46550Y21870
X46550Y19330
X49090Y21870
X49090Y19330
X51630Y21870
X51630Y19330
X54170Y21870
X56710Y21870
X56710Y19330
X59250Y21870
X59250Y19330
X61790Y21870
X61790Y19330
X64330Y21870
X64330Y19330
X66870Y21870
X66870Y19330
X69410Y21870
X69410Y19330
X56710Y44730
X87630Y19050
X87630Y13970
X81280Y19050
X54170Y19330
T9
X90170Y115010
X90170Y108510
T10
X18415Y84455
X85725Y13970
X79375Y13970
X53975Y87630
X51435Y87630
X26035Y87630
X15875Y84455
X5080Y11430
X17145Y11430
X6350Y69850
X88900Y114935
X85725Y19050
X79375Y16510
X48895Y87630
M30