G04 EAGLE Gerber RS-274X export*
G75*
%MOMM*%
%FSLAX34Y34*%
%LPD*%
%IN*%
%IPPOS*%
%AMOC8*
5,1,8,0,0,1.08239X$1,22.5*%
G01*
%ADD10C,0.254000*%


D10*
X0Y0D02*
X1015800Y0D01*
X1016000Y1270000D01*
X0Y1270000D01*
X0Y0D01*
X274160Y964763D02*
X274084Y963894D01*
X273932Y963034D01*
X273706Y962190D01*
X273408Y961370D01*
X273039Y960578D01*
X272602Y959822D01*
X272101Y959107D01*
X271540Y958438D01*
X270922Y957820D01*
X270253Y957259D01*
X269538Y956758D01*
X268782Y956321D01*
X267990Y955952D01*
X267170Y955654D01*
X266326Y955428D01*
X265467Y955276D01*
X264597Y955200D01*
X263723Y955200D01*
X262854Y955276D01*
X261994Y955428D01*
X261150Y955654D01*
X260330Y955952D01*
X259538Y956321D01*
X258782Y956758D01*
X258067Y957259D01*
X257398Y957820D01*
X256780Y958438D01*
X256219Y959107D01*
X255718Y959822D01*
X255281Y960578D01*
X254912Y961370D01*
X254614Y962190D01*
X254388Y963034D01*
X254236Y963894D01*
X254160Y964763D01*
X254160Y965637D01*
X254236Y966507D01*
X254388Y967366D01*
X254614Y968210D01*
X254912Y969030D01*
X255281Y969822D01*
X255718Y970578D01*
X256219Y971293D01*
X256780Y971962D01*
X257398Y972580D01*
X258067Y973141D01*
X258782Y973642D01*
X259538Y974079D01*
X260330Y974448D01*
X261150Y974746D01*
X261994Y974972D01*
X262854Y975124D01*
X263723Y975200D01*
X264597Y975200D01*
X265467Y975124D01*
X266326Y974972D01*
X267170Y974746D01*
X267990Y974448D01*
X268782Y974079D01*
X269538Y973642D01*
X270253Y973141D01*
X270922Y972580D01*
X271540Y971962D01*
X272101Y971293D01*
X272602Y970578D01*
X273039Y969822D01*
X273408Y969030D01*
X273706Y968210D01*
X273932Y967366D01*
X274084Y966507D01*
X274160Y965637D01*
X274160Y964763D01*
X711040Y964763D02*
X710964Y963894D01*
X710812Y963034D01*
X710586Y962190D01*
X710288Y961370D01*
X709919Y960578D01*
X709482Y959822D01*
X708981Y959107D01*
X708420Y958438D01*
X707802Y957820D01*
X707133Y957259D01*
X706418Y956758D01*
X705662Y956321D01*
X704870Y955952D01*
X704050Y955654D01*
X703206Y955428D01*
X702347Y955276D01*
X701477Y955200D01*
X700603Y955200D01*
X699734Y955276D01*
X698874Y955428D01*
X698030Y955654D01*
X697210Y955952D01*
X696418Y956321D01*
X695662Y956758D01*
X694947Y957259D01*
X694278Y957820D01*
X693660Y958438D01*
X693099Y959107D01*
X692598Y959822D01*
X692161Y960578D01*
X691792Y961370D01*
X691494Y962190D01*
X691268Y963034D01*
X691116Y963894D01*
X691040Y964763D01*
X691040Y965637D01*
X691116Y966507D01*
X691268Y967366D01*
X691494Y968210D01*
X691792Y969030D01*
X692161Y969822D01*
X692598Y970578D01*
X693099Y971293D01*
X693660Y971962D01*
X694278Y972580D01*
X694947Y973141D01*
X695662Y973642D01*
X696418Y974079D01*
X697210Y974448D01*
X698030Y974746D01*
X698874Y974972D01*
X699734Y975124D01*
X700603Y975200D01*
X701477Y975200D01*
X702347Y975124D01*
X703206Y974972D01*
X704050Y974746D01*
X704870Y974448D01*
X705662Y974079D01*
X706418Y973642D01*
X707133Y973141D01*
X707802Y972580D01*
X708420Y971962D01*
X708981Y971293D01*
X709482Y970578D01*
X709919Y969822D01*
X710288Y969030D01*
X710586Y968210D01*
X710812Y967366D01*
X710964Y966507D01*
X711040Y965637D01*
X711040Y964763D01*
X274160Y1193363D02*
X274084Y1192494D01*
X273932Y1191634D01*
X273706Y1190790D01*
X273408Y1189970D01*
X273039Y1189178D01*
X272602Y1188422D01*
X272101Y1187707D01*
X271540Y1187038D01*
X270922Y1186420D01*
X270253Y1185859D01*
X269538Y1185358D01*
X268782Y1184921D01*
X267990Y1184552D01*
X267170Y1184254D01*
X266326Y1184028D01*
X265467Y1183876D01*
X264597Y1183800D01*
X263723Y1183800D01*
X262854Y1183876D01*
X261994Y1184028D01*
X261150Y1184254D01*
X260330Y1184552D01*
X259538Y1184921D01*
X258782Y1185358D01*
X258067Y1185859D01*
X257398Y1186420D01*
X256780Y1187038D01*
X256219Y1187707D01*
X255718Y1188422D01*
X255281Y1189178D01*
X254912Y1189970D01*
X254614Y1190790D01*
X254388Y1191634D01*
X254236Y1192494D01*
X254160Y1193363D01*
X254160Y1194237D01*
X254236Y1195107D01*
X254388Y1195966D01*
X254614Y1196810D01*
X254912Y1197630D01*
X255281Y1198422D01*
X255718Y1199178D01*
X256219Y1199893D01*
X256780Y1200562D01*
X257398Y1201180D01*
X258067Y1201741D01*
X258782Y1202242D01*
X259538Y1202679D01*
X260330Y1203048D01*
X261150Y1203346D01*
X261994Y1203572D01*
X262854Y1203724D01*
X263723Y1203800D01*
X264597Y1203800D01*
X265467Y1203724D01*
X266326Y1203572D01*
X267170Y1203346D01*
X267990Y1203048D01*
X268782Y1202679D01*
X269538Y1202242D01*
X270253Y1201741D01*
X270922Y1201180D01*
X271540Y1200562D01*
X272101Y1199893D01*
X272602Y1199178D01*
X273039Y1198422D01*
X273408Y1197630D01*
X273706Y1196810D01*
X273932Y1195966D01*
X274084Y1195107D01*
X274160Y1194237D01*
X274160Y1193363D01*
X711040Y1193363D02*
X710964Y1192494D01*
X710812Y1191634D01*
X710586Y1190790D01*
X710288Y1189970D01*
X709919Y1189178D01*
X709482Y1188422D01*
X708981Y1187707D01*
X708420Y1187038D01*
X707802Y1186420D01*
X707133Y1185859D01*
X706418Y1185358D01*
X705662Y1184921D01*
X704870Y1184552D01*
X704050Y1184254D01*
X703206Y1184028D01*
X702347Y1183876D01*
X701477Y1183800D01*
X700603Y1183800D01*
X699734Y1183876D01*
X698874Y1184028D01*
X698030Y1184254D01*
X697210Y1184552D01*
X696418Y1184921D01*
X695662Y1185358D01*
X694947Y1185859D01*
X694278Y1186420D01*
X693660Y1187038D01*
X693099Y1187707D01*
X692598Y1188422D01*
X692161Y1189178D01*
X691792Y1189970D01*
X691494Y1190790D01*
X691268Y1191634D01*
X691116Y1192494D01*
X691040Y1193363D01*
X691040Y1194237D01*
X691116Y1195107D01*
X691268Y1195966D01*
X691494Y1196810D01*
X691792Y1197630D01*
X692161Y1198422D01*
X692598Y1199178D01*
X693099Y1199893D01*
X693660Y1200562D01*
X694278Y1201180D01*
X694947Y1201741D01*
X695662Y1202242D01*
X696418Y1202679D01*
X697210Y1203048D01*
X698030Y1203346D01*
X698874Y1203572D01*
X699734Y1203724D01*
X700603Y1203800D01*
X701477Y1203800D01*
X702347Y1203724D01*
X703206Y1203572D01*
X704050Y1203346D01*
X704870Y1203048D01*
X705662Y1202679D01*
X706418Y1202242D01*
X707133Y1201741D01*
X707802Y1201180D01*
X708420Y1200562D01*
X708981Y1199893D01*
X709482Y1199178D01*
X709919Y1198422D01*
X710288Y1197630D01*
X710586Y1196810D01*
X710812Y1195966D01*
X710964Y1195107D01*
X711040Y1194237D01*
X711040Y1193363D01*
X532800Y70191D02*
X532877Y71170D01*
X533031Y72141D01*
X533260Y73096D01*
X533564Y74030D01*
X533939Y74937D01*
X534385Y75812D01*
X534899Y76650D01*
X535476Y77445D01*
X536114Y78192D01*
X536808Y78886D01*
X537555Y79524D01*
X538350Y80101D01*
X539188Y80615D01*
X540063Y81061D01*
X540970Y81436D01*
X541904Y81740D01*
X542860Y81969D01*
X543830Y82123D01*
X544809Y82200D01*
X545791Y82200D01*
X546770Y82123D01*
X547741Y81969D01*
X548696Y81740D01*
X549630Y81436D01*
X550537Y81061D01*
X551412Y80615D01*
X552250Y80101D01*
X553045Y79524D01*
X553792Y78886D01*
X554486Y78192D01*
X555124Y77445D01*
X555701Y76650D01*
X556215Y75812D01*
X556661Y74937D01*
X557036Y74030D01*
X557340Y73096D01*
X557569Y72141D01*
X557723Y71170D01*
X557800Y70191D01*
X557800Y69209D01*
X557723Y68230D01*
X557569Y67260D01*
X557340Y66304D01*
X557036Y65370D01*
X556661Y64463D01*
X556215Y63588D01*
X555701Y62750D01*
X555124Y61955D01*
X554486Y61208D01*
X553792Y60514D01*
X553045Y59876D01*
X552250Y59299D01*
X551412Y58785D01*
X550537Y58339D01*
X549630Y57964D01*
X548696Y57660D01*
X547741Y57431D01*
X546770Y57277D01*
X545791Y57200D01*
X544809Y57200D01*
X543830Y57277D01*
X542860Y57431D01*
X541904Y57660D01*
X540970Y57964D01*
X540063Y58339D01*
X539188Y58785D01*
X538350Y59299D01*
X537555Y59876D01*
X536808Y60514D01*
X536114Y61208D01*
X535476Y61955D01*
X534899Y62750D01*
X534385Y63588D01*
X533939Y64463D01*
X533564Y65370D01*
X533260Y66304D01*
X533031Y67260D01*
X532877Y68230D01*
X532800Y69209D01*
X532800Y70191D01*
X432800Y70191D02*
X432877Y71170D01*
X433031Y72141D01*
X433260Y73096D01*
X433564Y74030D01*
X433939Y74937D01*
X434385Y75812D01*
X434899Y76650D01*
X435476Y77445D01*
X436114Y78192D01*
X436808Y78886D01*
X437555Y79524D01*
X438350Y80101D01*
X439188Y80615D01*
X440063Y81061D01*
X440970Y81436D01*
X441904Y81740D01*
X442860Y81969D01*
X443830Y82123D01*
X444809Y82200D01*
X445791Y82200D01*
X446770Y82123D01*
X447741Y81969D01*
X448696Y81740D01*
X449630Y81436D01*
X450537Y81061D01*
X451412Y80615D01*
X452250Y80101D01*
X453045Y79524D01*
X453792Y78886D01*
X454486Y78192D01*
X455124Y77445D01*
X455701Y76650D01*
X456215Y75812D01*
X456661Y74937D01*
X457036Y74030D01*
X457340Y73096D01*
X457569Y72141D01*
X457723Y71170D01*
X457800Y70191D01*
X457800Y69209D01*
X457723Y68230D01*
X457569Y67260D01*
X457340Y66304D01*
X457036Y65370D01*
X456661Y64463D01*
X456215Y63588D01*
X455701Y62750D01*
X455124Y61955D01*
X454486Y61208D01*
X453792Y60514D01*
X453045Y59876D01*
X452250Y59299D01*
X451412Y58785D01*
X450537Y58339D01*
X449630Y57964D01*
X448696Y57660D01*
X447741Y57431D01*
X446770Y57277D01*
X445791Y57200D01*
X444809Y57200D01*
X443830Y57277D01*
X442860Y57431D01*
X441904Y57660D01*
X440970Y57964D01*
X440063Y58339D01*
X439188Y58785D01*
X438350Y59299D01*
X437555Y59876D01*
X436808Y60514D01*
X436114Y61208D01*
X435476Y61955D01*
X434899Y62750D01*
X434385Y63588D01*
X433939Y64463D01*
X433564Y65370D01*
X433260Y66304D01*
X433031Y67260D01*
X432877Y68230D01*
X432800Y69209D01*
X432800Y70191D01*
X131760Y576020D02*
X131689Y575023D01*
X131546Y574033D01*
X131334Y573056D01*
X131052Y572096D01*
X130703Y571159D01*
X130287Y570249D01*
X129808Y569372D01*
X129267Y568530D01*
X128668Y567730D01*
X128013Y566974D01*
X127306Y566267D01*
X126550Y565612D01*
X125750Y565013D01*
X124908Y564472D01*
X124031Y563993D01*
X123121Y563577D01*
X122184Y563228D01*
X121225Y562946D01*
X120247Y562734D01*
X119258Y562591D01*
X118260Y562520D01*
X117260Y562520D01*
X116263Y562591D01*
X115273Y562734D01*
X114296Y562946D01*
X113336Y563228D01*
X112399Y563577D01*
X111489Y563993D01*
X110612Y564472D01*
X109770Y565013D01*
X108970Y565612D01*
X108214Y566267D01*
X107507Y566974D01*
X106852Y567730D01*
X106253Y568530D01*
X105712Y569372D01*
X105233Y570249D01*
X104817Y571159D01*
X104468Y572096D01*
X104186Y573056D01*
X103974Y574033D01*
X103831Y575023D01*
X103760Y576020D01*
X103760Y577020D01*
X103831Y578018D01*
X103974Y579007D01*
X104186Y579985D01*
X104468Y580944D01*
X104817Y581881D01*
X105233Y582791D01*
X105712Y583668D01*
X106253Y584510D01*
X106852Y585310D01*
X107507Y586066D01*
X108214Y586773D01*
X108970Y587428D01*
X109770Y588027D01*
X110612Y588568D01*
X111489Y589047D01*
X112399Y589463D01*
X113336Y589812D01*
X114296Y590094D01*
X115273Y590306D01*
X116263Y590449D01*
X117260Y590520D01*
X118260Y590520D01*
X119258Y590449D01*
X120247Y590306D01*
X121225Y590094D01*
X122184Y589812D01*
X123121Y589463D01*
X124031Y589047D01*
X124908Y588568D01*
X125750Y588027D01*
X126550Y587428D01*
X127306Y586773D01*
X128013Y586066D01*
X128668Y585310D01*
X129267Y584510D01*
X129808Y583668D01*
X130287Y582791D01*
X130703Y581881D01*
X131052Y580944D01*
X131334Y579985D01*
X131546Y579007D01*
X131689Y578018D01*
X131760Y577020D01*
X131760Y576020D01*
X131760Y886020D02*
X131689Y885023D01*
X131546Y884033D01*
X131334Y883056D01*
X131052Y882096D01*
X130703Y881159D01*
X130287Y880249D01*
X129808Y879372D01*
X129267Y878530D01*
X128668Y877730D01*
X128013Y876974D01*
X127306Y876267D01*
X126550Y875612D01*
X125750Y875013D01*
X124908Y874472D01*
X124031Y873993D01*
X123121Y873577D01*
X122184Y873228D01*
X121225Y872946D01*
X120247Y872734D01*
X119258Y872591D01*
X118260Y872520D01*
X117260Y872520D01*
X116263Y872591D01*
X115273Y872734D01*
X114296Y872946D01*
X113336Y873228D01*
X112399Y873577D01*
X111489Y873993D01*
X110612Y874472D01*
X109770Y875013D01*
X108970Y875612D01*
X108214Y876267D01*
X107507Y876974D01*
X106852Y877730D01*
X106253Y878530D01*
X105712Y879372D01*
X105233Y880249D01*
X104817Y881159D01*
X104468Y882096D01*
X104186Y883056D01*
X103974Y884033D01*
X103831Y885023D01*
X103760Y886020D01*
X103760Y887020D01*
X103831Y888018D01*
X103974Y889007D01*
X104186Y889985D01*
X104468Y890944D01*
X104817Y891881D01*
X105233Y892791D01*
X105712Y893668D01*
X106253Y894510D01*
X106852Y895310D01*
X107507Y896066D01*
X108214Y896773D01*
X108970Y897428D01*
X109770Y898027D01*
X110612Y898568D01*
X111489Y899047D01*
X112399Y899463D01*
X113336Y899812D01*
X114296Y900094D01*
X115273Y900306D01*
X116263Y900449D01*
X117260Y900520D01*
X118260Y900520D01*
X119258Y900449D01*
X120247Y900306D01*
X121225Y900094D01*
X122184Y899812D01*
X123121Y899463D01*
X124031Y899047D01*
X124908Y898568D01*
X125750Y898027D01*
X126550Y897428D01*
X127306Y896773D01*
X128013Y896066D01*
X128668Y895310D01*
X129267Y894510D01*
X129808Y893668D01*
X130287Y892791D01*
X130703Y891881D01*
X131052Y890944D01*
X131334Y889985D01*
X131546Y889007D01*
X131689Y888018D01*
X131760Y887020D01*
X131760Y886020D01*
X881760Y886020D02*
X881689Y885023D01*
X881546Y884033D01*
X881334Y883056D01*
X881052Y882096D01*
X880703Y881159D01*
X880287Y880249D01*
X879808Y879372D01*
X879267Y878530D01*
X878668Y877730D01*
X878013Y876974D01*
X877306Y876267D01*
X876550Y875612D01*
X875750Y875013D01*
X874908Y874472D01*
X874031Y873993D01*
X873121Y873577D01*
X872184Y873228D01*
X871225Y872946D01*
X870247Y872734D01*
X869258Y872591D01*
X868260Y872520D01*
X867260Y872520D01*
X866263Y872591D01*
X865273Y872734D01*
X864296Y872946D01*
X863336Y873228D01*
X862399Y873577D01*
X861489Y873993D01*
X860612Y874472D01*
X859770Y875013D01*
X858970Y875612D01*
X858214Y876267D01*
X857507Y876974D01*
X856852Y877730D01*
X856253Y878530D01*
X855712Y879372D01*
X855233Y880249D01*
X854817Y881159D01*
X854468Y882096D01*
X854186Y883056D01*
X853974Y884033D01*
X853831Y885023D01*
X853760Y886020D01*
X853760Y887020D01*
X853831Y888018D01*
X853974Y889007D01*
X854186Y889985D01*
X854468Y890944D01*
X854817Y891881D01*
X855233Y892791D01*
X855712Y893668D01*
X856253Y894510D01*
X856852Y895310D01*
X857507Y896066D01*
X858214Y896773D01*
X858970Y897428D01*
X859770Y898027D01*
X860612Y898568D01*
X861489Y899047D01*
X862399Y899463D01*
X863336Y899812D01*
X864296Y900094D01*
X865273Y900306D01*
X866263Y900449D01*
X867260Y900520D01*
X868260Y900520D01*
X869258Y900449D01*
X870247Y900306D01*
X871225Y900094D01*
X872184Y899812D01*
X873121Y899463D01*
X874031Y899047D01*
X874908Y898568D01*
X875750Y898027D01*
X876550Y897428D01*
X877306Y896773D01*
X878013Y896066D01*
X878668Y895310D01*
X879267Y894510D01*
X879808Y893668D01*
X880287Y892791D01*
X880703Y891881D01*
X881052Y890944D01*
X881334Y889985D01*
X881546Y889007D01*
X881689Y888018D01*
X881760Y887020D01*
X881760Y886020D01*
X881760Y576020D02*
X881689Y575023D01*
X881546Y574033D01*
X881334Y573056D01*
X881052Y572096D01*
X880703Y571159D01*
X880287Y570249D01*
X879808Y569372D01*
X879267Y568530D01*
X878668Y567730D01*
X878013Y566974D01*
X877306Y566267D01*
X876550Y565612D01*
X875750Y565013D01*
X874908Y564472D01*
X874031Y563993D01*
X873121Y563577D01*
X872184Y563228D01*
X871225Y562946D01*
X870247Y562734D01*
X869258Y562591D01*
X868260Y562520D01*
X867260Y562520D01*
X866263Y562591D01*
X865273Y562734D01*
X864296Y562946D01*
X863336Y563228D01*
X862399Y563577D01*
X861489Y563993D01*
X860612Y564472D01*
X859770Y565013D01*
X858970Y565612D01*
X858214Y566267D01*
X857507Y566974D01*
X856852Y567730D01*
X856253Y568530D01*
X855712Y569372D01*
X855233Y570249D01*
X854817Y571159D01*
X854468Y572096D01*
X854186Y573056D01*
X853974Y574033D01*
X853831Y575023D01*
X853760Y576020D01*
X853760Y577020D01*
X853831Y578018D01*
X853974Y579007D01*
X854186Y579985D01*
X854468Y580944D01*
X854817Y581881D01*
X855233Y582791D01*
X855712Y583668D01*
X856253Y584510D01*
X856852Y585310D01*
X857507Y586066D01*
X858214Y586773D01*
X858970Y587428D01*
X859770Y588027D01*
X860612Y588568D01*
X861489Y589047D01*
X862399Y589463D01*
X863336Y589812D01*
X864296Y590094D01*
X865273Y590306D01*
X866263Y590449D01*
X867260Y590520D01*
X868260Y590520D01*
X869258Y590449D01*
X870247Y590306D01*
X871225Y590094D01*
X872184Y589812D01*
X873121Y589463D01*
X874031Y589047D01*
X874908Y588568D01*
X875750Y588027D01*
X876550Y587428D01*
X877306Y586773D01*
X878013Y586066D01*
X878668Y585310D01*
X879267Y584510D01*
X879808Y583668D01*
X880287Y582791D01*
X880703Y581881D01*
X881052Y580944D01*
X881334Y579985D01*
X881546Y579007D01*
X881689Y578018D01*
X881760Y577020D01*
X881760Y576020D01*
M02*
