G04 EAGLE Gerber RS-274X export*
G75*
%MOMM*%
%FSLAX34Y34*%
%LPD*%
%INSoldermask Bottom*%
%IPPOS*%
%AMOC8*
5,1,8,0,0,1.08239X$1,22.5*%
G01*
%ADD10C,2.152400*%
%ADD11C,1.930400*%
%ADD12C,1.803400*%
%ADD13R,1.803400X1.803400*%
%ADD14C,1.272400*%
%ADD15C,1.552400*%
%ADD16C,2.652400*%
%ADD17C,2.112400*%
%ADD18R,1.676400X1.676400*%
%ADD19P,1.814519X8X22.500000*%
%ADD20C,2.952400*%
%ADD21C,0.609600*%
%ADD22C,1.168400*%
%ADD23C,4.597400*%


D10*
X264160Y965200D03*
X701040Y965200D03*
X264160Y1193800D03*
X701040Y1193800D03*
D11*
X523240Y1193800D03*
X497840Y1193800D03*
X472440Y1193800D03*
X447040Y1193800D03*
D12*
X876300Y190500D03*
X876300Y139700D03*
D13*
X812800Y190500D03*
D12*
X812800Y165100D03*
X812800Y139700D03*
D14*
X901700Y1150100D03*
X901700Y1085100D03*
D15*
X520300Y139700D03*
X495300Y139700D03*
X470300Y139700D03*
D16*
X545300Y69700D03*
X445300Y69700D03*
D17*
X189500Y164700D03*
X189500Y114700D03*
X64500Y114700D03*
X64500Y164700D03*
D18*
X262300Y472700D03*
D19*
X262300Y447300D03*
X287700Y472700D03*
X287700Y447300D03*
X313100Y472700D03*
X313100Y447300D03*
X338500Y472700D03*
X338500Y447300D03*
X363900Y472700D03*
X363900Y447300D03*
X389300Y472700D03*
X389300Y447300D03*
X414700Y472700D03*
X414700Y447300D03*
X440100Y472700D03*
X440100Y447300D03*
X465500Y472700D03*
X465500Y447300D03*
X490900Y472700D03*
X490900Y447300D03*
X516300Y472700D03*
X516300Y447300D03*
X541700Y472700D03*
X541700Y447300D03*
X567100Y472700D03*
X567100Y447300D03*
X592500Y472700D03*
X592500Y447300D03*
X617900Y472700D03*
X617900Y447300D03*
X643300Y472700D03*
X643300Y447300D03*
X668700Y472700D03*
X668700Y447300D03*
X694100Y472700D03*
X694100Y447300D03*
D18*
X262300Y218700D03*
D19*
X262300Y193300D03*
X287700Y218700D03*
X287700Y193300D03*
X313100Y218700D03*
X313100Y193300D03*
X338500Y218700D03*
X338500Y193300D03*
X363900Y218700D03*
X363900Y193300D03*
X389300Y218700D03*
X389300Y193300D03*
X414700Y218700D03*
X414700Y193300D03*
X440100Y218700D03*
X440100Y193300D03*
X465500Y218700D03*
X465500Y193300D03*
X490900Y218700D03*
X490900Y193300D03*
X516300Y218700D03*
X516300Y193300D03*
X541700Y218700D03*
X541700Y193300D03*
X567100Y218700D03*
X567100Y193300D03*
X592500Y218700D03*
X592500Y193300D03*
X617900Y218700D03*
X617900Y193300D03*
X643300Y218700D03*
X643300Y193300D03*
X668700Y218700D03*
X668700Y193300D03*
X694100Y218700D03*
X694100Y193300D03*
D11*
X172760Y886520D03*
X198160Y886520D03*
X223560Y886520D03*
X248960Y886520D03*
X274360Y886520D03*
X299760Y886520D03*
X325160Y886520D03*
X350560Y886520D03*
X375960Y886520D03*
X401360Y886520D03*
X426760Y886520D03*
X452160Y886520D03*
X477560Y886520D03*
X502960Y886520D03*
X528360Y886520D03*
X553760Y886520D03*
D20*
X117760Y576520D03*
X117760Y886520D03*
X867760Y886520D03*
X867760Y576520D03*
D21*
X970280Y88900D02*
X970282Y89087D01*
X970289Y89274D01*
X970301Y89461D01*
X970317Y89647D01*
X970337Y89833D01*
X970362Y90018D01*
X970392Y90203D01*
X970426Y90387D01*
X970465Y90570D01*
X970508Y90752D01*
X970556Y90932D01*
X970608Y91112D01*
X970665Y91290D01*
X970725Y91467D01*
X970791Y91642D01*
X970860Y91816D01*
X970934Y91988D01*
X971012Y92158D01*
X971094Y92326D01*
X971180Y92492D01*
X971270Y92656D01*
X971364Y92817D01*
X971462Y92977D01*
X971564Y93133D01*
X971670Y93288D01*
X971780Y93439D01*
X971893Y93588D01*
X972010Y93734D01*
X972130Y93877D01*
X972254Y94017D01*
X972381Y94154D01*
X972512Y94288D01*
X972646Y94419D01*
X972783Y94546D01*
X972923Y94670D01*
X973066Y94790D01*
X973212Y94907D01*
X973361Y95020D01*
X973512Y95130D01*
X973667Y95236D01*
X973823Y95338D01*
X973983Y95436D01*
X974144Y95530D01*
X974308Y95620D01*
X974474Y95706D01*
X974642Y95788D01*
X974812Y95866D01*
X974984Y95940D01*
X975158Y96009D01*
X975333Y96075D01*
X975510Y96135D01*
X975688Y96192D01*
X975868Y96244D01*
X976048Y96292D01*
X976230Y96335D01*
X976413Y96374D01*
X976597Y96408D01*
X976782Y96438D01*
X976967Y96463D01*
X977153Y96483D01*
X977339Y96499D01*
X977526Y96511D01*
X977713Y96518D01*
X977900Y96520D01*
X978087Y96518D01*
X978274Y96511D01*
X978461Y96499D01*
X978647Y96483D01*
X978833Y96463D01*
X979018Y96438D01*
X979203Y96408D01*
X979387Y96374D01*
X979570Y96335D01*
X979752Y96292D01*
X979932Y96244D01*
X980112Y96192D01*
X980290Y96135D01*
X980467Y96075D01*
X980642Y96009D01*
X980816Y95940D01*
X980988Y95866D01*
X981158Y95788D01*
X981326Y95706D01*
X981492Y95620D01*
X981656Y95530D01*
X981817Y95436D01*
X981977Y95338D01*
X982133Y95236D01*
X982288Y95130D01*
X982439Y95020D01*
X982588Y94907D01*
X982734Y94790D01*
X982877Y94670D01*
X983017Y94546D01*
X983154Y94419D01*
X983288Y94288D01*
X983419Y94154D01*
X983546Y94017D01*
X983670Y93877D01*
X983790Y93734D01*
X983907Y93588D01*
X984020Y93439D01*
X984130Y93288D01*
X984236Y93133D01*
X984338Y92977D01*
X984436Y92817D01*
X984530Y92656D01*
X984620Y92492D01*
X984706Y92326D01*
X984788Y92158D01*
X984866Y91988D01*
X984940Y91816D01*
X985009Y91642D01*
X985075Y91467D01*
X985135Y91290D01*
X985192Y91112D01*
X985244Y90932D01*
X985292Y90752D01*
X985335Y90570D01*
X985374Y90387D01*
X985408Y90203D01*
X985438Y90018D01*
X985463Y89833D01*
X985483Y89647D01*
X985499Y89461D01*
X985511Y89274D01*
X985518Y89087D01*
X985520Y88900D01*
X985518Y88713D01*
X985511Y88526D01*
X985499Y88339D01*
X985483Y88153D01*
X985463Y87967D01*
X985438Y87782D01*
X985408Y87597D01*
X985374Y87413D01*
X985335Y87230D01*
X985292Y87048D01*
X985244Y86868D01*
X985192Y86688D01*
X985135Y86510D01*
X985075Y86333D01*
X985009Y86158D01*
X984940Y85984D01*
X984866Y85812D01*
X984788Y85642D01*
X984706Y85474D01*
X984620Y85308D01*
X984530Y85144D01*
X984436Y84983D01*
X984338Y84823D01*
X984236Y84667D01*
X984130Y84512D01*
X984020Y84361D01*
X983907Y84212D01*
X983790Y84066D01*
X983670Y83923D01*
X983546Y83783D01*
X983419Y83646D01*
X983288Y83512D01*
X983154Y83381D01*
X983017Y83254D01*
X982877Y83130D01*
X982734Y83010D01*
X982588Y82893D01*
X982439Y82780D01*
X982288Y82670D01*
X982133Y82564D01*
X981977Y82462D01*
X981817Y82364D01*
X981656Y82270D01*
X981492Y82180D01*
X981326Y82094D01*
X981158Y82012D01*
X980988Y81934D01*
X980816Y81860D01*
X980642Y81791D01*
X980467Y81725D01*
X980290Y81665D01*
X980112Y81608D01*
X979932Y81556D01*
X979752Y81508D01*
X979570Y81465D01*
X979387Y81426D01*
X979203Y81392D01*
X979018Y81362D01*
X978833Y81337D01*
X978647Y81317D01*
X978461Y81301D01*
X978274Y81289D01*
X978087Y81282D01*
X977900Y81280D01*
X977713Y81282D01*
X977526Y81289D01*
X977339Y81301D01*
X977153Y81317D01*
X976967Y81337D01*
X976782Y81362D01*
X976597Y81392D01*
X976413Y81426D01*
X976230Y81465D01*
X976048Y81508D01*
X975868Y81556D01*
X975688Y81608D01*
X975510Y81665D01*
X975333Y81725D01*
X975158Y81791D01*
X974984Y81860D01*
X974812Y81934D01*
X974642Y82012D01*
X974474Y82094D01*
X974308Y82180D01*
X974144Y82270D01*
X973983Y82364D01*
X973823Y82462D01*
X973667Y82564D01*
X973512Y82670D01*
X973361Y82780D01*
X973212Y82893D01*
X973066Y83010D01*
X972923Y83130D01*
X972783Y83254D01*
X972646Y83381D01*
X972512Y83512D01*
X972381Y83646D01*
X972254Y83783D01*
X972130Y83923D01*
X972010Y84066D01*
X971893Y84212D01*
X971780Y84361D01*
X971670Y84512D01*
X971564Y84667D01*
X971462Y84823D01*
X971364Y84983D01*
X971270Y85144D01*
X971180Y85308D01*
X971094Y85474D01*
X971012Y85642D01*
X970934Y85812D01*
X970860Y85984D01*
X970791Y86158D01*
X970725Y86333D01*
X970665Y86510D01*
X970608Y86688D01*
X970556Y86868D01*
X970508Y87048D01*
X970465Y87230D01*
X970426Y87413D01*
X970392Y87597D01*
X970362Y87782D01*
X970337Y87967D01*
X970317Y88153D01*
X970301Y88339D01*
X970289Y88526D01*
X970282Y88713D01*
X970280Y88900D01*
D22*
X977900Y88900D03*
D21*
X30480Y1168400D02*
X30482Y1168587D01*
X30489Y1168774D01*
X30501Y1168961D01*
X30517Y1169147D01*
X30537Y1169333D01*
X30562Y1169518D01*
X30592Y1169703D01*
X30626Y1169887D01*
X30665Y1170070D01*
X30708Y1170252D01*
X30756Y1170432D01*
X30808Y1170612D01*
X30865Y1170790D01*
X30925Y1170967D01*
X30991Y1171142D01*
X31060Y1171316D01*
X31134Y1171488D01*
X31212Y1171658D01*
X31294Y1171826D01*
X31380Y1171992D01*
X31470Y1172156D01*
X31564Y1172317D01*
X31662Y1172477D01*
X31764Y1172633D01*
X31870Y1172788D01*
X31980Y1172939D01*
X32093Y1173088D01*
X32210Y1173234D01*
X32330Y1173377D01*
X32454Y1173517D01*
X32581Y1173654D01*
X32712Y1173788D01*
X32846Y1173919D01*
X32983Y1174046D01*
X33123Y1174170D01*
X33266Y1174290D01*
X33412Y1174407D01*
X33561Y1174520D01*
X33712Y1174630D01*
X33867Y1174736D01*
X34023Y1174838D01*
X34183Y1174936D01*
X34344Y1175030D01*
X34508Y1175120D01*
X34674Y1175206D01*
X34842Y1175288D01*
X35012Y1175366D01*
X35184Y1175440D01*
X35358Y1175509D01*
X35533Y1175575D01*
X35710Y1175635D01*
X35888Y1175692D01*
X36068Y1175744D01*
X36248Y1175792D01*
X36430Y1175835D01*
X36613Y1175874D01*
X36797Y1175908D01*
X36982Y1175938D01*
X37167Y1175963D01*
X37353Y1175983D01*
X37539Y1175999D01*
X37726Y1176011D01*
X37913Y1176018D01*
X38100Y1176020D01*
X38287Y1176018D01*
X38474Y1176011D01*
X38661Y1175999D01*
X38847Y1175983D01*
X39033Y1175963D01*
X39218Y1175938D01*
X39403Y1175908D01*
X39587Y1175874D01*
X39770Y1175835D01*
X39952Y1175792D01*
X40132Y1175744D01*
X40312Y1175692D01*
X40490Y1175635D01*
X40667Y1175575D01*
X40842Y1175509D01*
X41016Y1175440D01*
X41188Y1175366D01*
X41358Y1175288D01*
X41526Y1175206D01*
X41692Y1175120D01*
X41856Y1175030D01*
X42017Y1174936D01*
X42177Y1174838D01*
X42333Y1174736D01*
X42488Y1174630D01*
X42639Y1174520D01*
X42788Y1174407D01*
X42934Y1174290D01*
X43077Y1174170D01*
X43217Y1174046D01*
X43354Y1173919D01*
X43488Y1173788D01*
X43619Y1173654D01*
X43746Y1173517D01*
X43870Y1173377D01*
X43990Y1173234D01*
X44107Y1173088D01*
X44220Y1172939D01*
X44330Y1172788D01*
X44436Y1172633D01*
X44538Y1172477D01*
X44636Y1172317D01*
X44730Y1172156D01*
X44820Y1171992D01*
X44906Y1171826D01*
X44988Y1171658D01*
X45066Y1171488D01*
X45140Y1171316D01*
X45209Y1171142D01*
X45275Y1170967D01*
X45335Y1170790D01*
X45392Y1170612D01*
X45444Y1170432D01*
X45492Y1170252D01*
X45535Y1170070D01*
X45574Y1169887D01*
X45608Y1169703D01*
X45638Y1169518D01*
X45663Y1169333D01*
X45683Y1169147D01*
X45699Y1168961D01*
X45711Y1168774D01*
X45718Y1168587D01*
X45720Y1168400D01*
X45718Y1168213D01*
X45711Y1168026D01*
X45699Y1167839D01*
X45683Y1167653D01*
X45663Y1167467D01*
X45638Y1167282D01*
X45608Y1167097D01*
X45574Y1166913D01*
X45535Y1166730D01*
X45492Y1166548D01*
X45444Y1166368D01*
X45392Y1166188D01*
X45335Y1166010D01*
X45275Y1165833D01*
X45209Y1165658D01*
X45140Y1165484D01*
X45066Y1165312D01*
X44988Y1165142D01*
X44906Y1164974D01*
X44820Y1164808D01*
X44730Y1164644D01*
X44636Y1164483D01*
X44538Y1164323D01*
X44436Y1164167D01*
X44330Y1164012D01*
X44220Y1163861D01*
X44107Y1163712D01*
X43990Y1163566D01*
X43870Y1163423D01*
X43746Y1163283D01*
X43619Y1163146D01*
X43488Y1163012D01*
X43354Y1162881D01*
X43217Y1162754D01*
X43077Y1162630D01*
X42934Y1162510D01*
X42788Y1162393D01*
X42639Y1162280D01*
X42488Y1162170D01*
X42333Y1162064D01*
X42177Y1161962D01*
X42017Y1161864D01*
X41856Y1161770D01*
X41692Y1161680D01*
X41526Y1161594D01*
X41358Y1161512D01*
X41188Y1161434D01*
X41016Y1161360D01*
X40842Y1161291D01*
X40667Y1161225D01*
X40490Y1161165D01*
X40312Y1161108D01*
X40132Y1161056D01*
X39952Y1161008D01*
X39770Y1160965D01*
X39587Y1160926D01*
X39403Y1160892D01*
X39218Y1160862D01*
X39033Y1160837D01*
X38847Y1160817D01*
X38661Y1160801D01*
X38474Y1160789D01*
X38287Y1160782D01*
X38100Y1160780D01*
X37913Y1160782D01*
X37726Y1160789D01*
X37539Y1160801D01*
X37353Y1160817D01*
X37167Y1160837D01*
X36982Y1160862D01*
X36797Y1160892D01*
X36613Y1160926D01*
X36430Y1160965D01*
X36248Y1161008D01*
X36068Y1161056D01*
X35888Y1161108D01*
X35710Y1161165D01*
X35533Y1161225D01*
X35358Y1161291D01*
X35184Y1161360D01*
X35012Y1161434D01*
X34842Y1161512D01*
X34674Y1161594D01*
X34508Y1161680D01*
X34344Y1161770D01*
X34183Y1161864D01*
X34023Y1161962D01*
X33867Y1162064D01*
X33712Y1162170D01*
X33561Y1162280D01*
X33412Y1162393D01*
X33266Y1162510D01*
X33123Y1162630D01*
X32983Y1162754D01*
X32846Y1162881D01*
X32712Y1163012D01*
X32581Y1163146D01*
X32454Y1163283D01*
X32330Y1163423D01*
X32210Y1163566D01*
X32093Y1163712D01*
X31980Y1163861D01*
X31870Y1164012D01*
X31764Y1164167D01*
X31662Y1164323D01*
X31564Y1164483D01*
X31470Y1164644D01*
X31380Y1164808D01*
X31294Y1164974D01*
X31212Y1165142D01*
X31134Y1165312D01*
X31060Y1165484D01*
X30991Y1165658D01*
X30925Y1165833D01*
X30865Y1166010D01*
X30808Y1166188D01*
X30756Y1166368D01*
X30708Y1166548D01*
X30665Y1166730D01*
X30626Y1166913D01*
X30592Y1167097D01*
X30562Y1167282D01*
X30537Y1167467D01*
X30517Y1167653D01*
X30501Y1167839D01*
X30489Y1168026D01*
X30482Y1168213D01*
X30480Y1168400D01*
D22*
X38100Y1168400D03*
D21*
X30480Y88900D02*
X30482Y89087D01*
X30489Y89274D01*
X30501Y89461D01*
X30517Y89647D01*
X30537Y89833D01*
X30562Y90018D01*
X30592Y90203D01*
X30626Y90387D01*
X30665Y90570D01*
X30708Y90752D01*
X30756Y90932D01*
X30808Y91112D01*
X30865Y91290D01*
X30925Y91467D01*
X30991Y91642D01*
X31060Y91816D01*
X31134Y91988D01*
X31212Y92158D01*
X31294Y92326D01*
X31380Y92492D01*
X31470Y92656D01*
X31564Y92817D01*
X31662Y92977D01*
X31764Y93133D01*
X31870Y93288D01*
X31980Y93439D01*
X32093Y93588D01*
X32210Y93734D01*
X32330Y93877D01*
X32454Y94017D01*
X32581Y94154D01*
X32712Y94288D01*
X32846Y94419D01*
X32983Y94546D01*
X33123Y94670D01*
X33266Y94790D01*
X33412Y94907D01*
X33561Y95020D01*
X33712Y95130D01*
X33867Y95236D01*
X34023Y95338D01*
X34183Y95436D01*
X34344Y95530D01*
X34508Y95620D01*
X34674Y95706D01*
X34842Y95788D01*
X35012Y95866D01*
X35184Y95940D01*
X35358Y96009D01*
X35533Y96075D01*
X35710Y96135D01*
X35888Y96192D01*
X36068Y96244D01*
X36248Y96292D01*
X36430Y96335D01*
X36613Y96374D01*
X36797Y96408D01*
X36982Y96438D01*
X37167Y96463D01*
X37353Y96483D01*
X37539Y96499D01*
X37726Y96511D01*
X37913Y96518D01*
X38100Y96520D01*
X38287Y96518D01*
X38474Y96511D01*
X38661Y96499D01*
X38847Y96483D01*
X39033Y96463D01*
X39218Y96438D01*
X39403Y96408D01*
X39587Y96374D01*
X39770Y96335D01*
X39952Y96292D01*
X40132Y96244D01*
X40312Y96192D01*
X40490Y96135D01*
X40667Y96075D01*
X40842Y96009D01*
X41016Y95940D01*
X41188Y95866D01*
X41358Y95788D01*
X41526Y95706D01*
X41692Y95620D01*
X41856Y95530D01*
X42017Y95436D01*
X42177Y95338D01*
X42333Y95236D01*
X42488Y95130D01*
X42639Y95020D01*
X42788Y94907D01*
X42934Y94790D01*
X43077Y94670D01*
X43217Y94546D01*
X43354Y94419D01*
X43488Y94288D01*
X43619Y94154D01*
X43746Y94017D01*
X43870Y93877D01*
X43990Y93734D01*
X44107Y93588D01*
X44220Y93439D01*
X44330Y93288D01*
X44436Y93133D01*
X44538Y92977D01*
X44636Y92817D01*
X44730Y92656D01*
X44820Y92492D01*
X44906Y92326D01*
X44988Y92158D01*
X45066Y91988D01*
X45140Y91816D01*
X45209Y91642D01*
X45275Y91467D01*
X45335Y91290D01*
X45392Y91112D01*
X45444Y90932D01*
X45492Y90752D01*
X45535Y90570D01*
X45574Y90387D01*
X45608Y90203D01*
X45638Y90018D01*
X45663Y89833D01*
X45683Y89647D01*
X45699Y89461D01*
X45711Y89274D01*
X45718Y89087D01*
X45720Y88900D01*
X45718Y88713D01*
X45711Y88526D01*
X45699Y88339D01*
X45683Y88153D01*
X45663Y87967D01*
X45638Y87782D01*
X45608Y87597D01*
X45574Y87413D01*
X45535Y87230D01*
X45492Y87048D01*
X45444Y86868D01*
X45392Y86688D01*
X45335Y86510D01*
X45275Y86333D01*
X45209Y86158D01*
X45140Y85984D01*
X45066Y85812D01*
X44988Y85642D01*
X44906Y85474D01*
X44820Y85308D01*
X44730Y85144D01*
X44636Y84983D01*
X44538Y84823D01*
X44436Y84667D01*
X44330Y84512D01*
X44220Y84361D01*
X44107Y84212D01*
X43990Y84066D01*
X43870Y83923D01*
X43746Y83783D01*
X43619Y83646D01*
X43488Y83512D01*
X43354Y83381D01*
X43217Y83254D01*
X43077Y83130D01*
X42934Y83010D01*
X42788Y82893D01*
X42639Y82780D01*
X42488Y82670D01*
X42333Y82564D01*
X42177Y82462D01*
X42017Y82364D01*
X41856Y82270D01*
X41692Y82180D01*
X41526Y82094D01*
X41358Y82012D01*
X41188Y81934D01*
X41016Y81860D01*
X40842Y81791D01*
X40667Y81725D01*
X40490Y81665D01*
X40312Y81608D01*
X40132Y81556D01*
X39952Y81508D01*
X39770Y81465D01*
X39587Y81426D01*
X39403Y81392D01*
X39218Y81362D01*
X39033Y81337D01*
X38847Y81317D01*
X38661Y81301D01*
X38474Y81289D01*
X38287Y81282D01*
X38100Y81280D01*
X37913Y81282D01*
X37726Y81289D01*
X37539Y81301D01*
X37353Y81317D01*
X37167Y81337D01*
X36982Y81362D01*
X36797Y81392D01*
X36613Y81426D01*
X36430Y81465D01*
X36248Y81508D01*
X36068Y81556D01*
X35888Y81608D01*
X35710Y81665D01*
X35533Y81725D01*
X35358Y81791D01*
X35184Y81860D01*
X35012Y81934D01*
X34842Y82012D01*
X34674Y82094D01*
X34508Y82180D01*
X34344Y82270D01*
X34183Y82364D01*
X34023Y82462D01*
X33867Y82564D01*
X33712Y82670D01*
X33561Y82780D01*
X33412Y82893D01*
X33266Y83010D01*
X33123Y83130D01*
X32983Y83254D01*
X32846Y83381D01*
X32712Y83512D01*
X32581Y83646D01*
X32454Y83783D01*
X32330Y83923D01*
X32210Y84066D01*
X32093Y84212D01*
X31980Y84361D01*
X31870Y84512D01*
X31764Y84667D01*
X31662Y84823D01*
X31564Y84983D01*
X31470Y85144D01*
X31380Y85308D01*
X31294Y85474D01*
X31212Y85642D01*
X31134Y85812D01*
X31060Y85984D01*
X30991Y86158D01*
X30925Y86333D01*
X30865Y86510D01*
X30808Y86688D01*
X30756Y86868D01*
X30708Y87048D01*
X30665Y87230D01*
X30626Y87413D01*
X30592Y87597D01*
X30562Y87782D01*
X30537Y87967D01*
X30517Y88153D01*
X30501Y88339D01*
X30489Y88526D01*
X30482Y88713D01*
X30480Y88900D01*
D22*
X38100Y88900D03*
D23*
X38100Y38100D03*
X38100Y1231900D03*
X977900Y1231900D03*
X977900Y38100D03*
M02*
